<?xml version="1.0" encoding="UTF-8"?>
<!DOCTYPE svg PUBLIC "-//W3C//DTD SVG 1.1//EN" "http://www.w3.org/Graphics/SVG/1.1/DTD/svg11.dtd">
<!-- Creator: CorelDRAW -->
<svg xmlns="http://www.w3.org/2000/svg" xml:space="preserve" width="77px" height="69px" version="1.1" style="shape-rendering:geometricPrecision; text-rendering:geometricPrecision; image-rendering:optimizeQuality; fill-rule:evenodd; clip-rule:evenodd"
viewBox="0 0 77 68.63"
 xmlns:xlink="http://www.w3.org/1999/xlink"
 xmlns:xodm="http://www.corel.com/coreldraw/odm/2003">
 <defs>
  <style type="text/css">
   <![CDATA[
    .fil2 {fill:#2B2A29}
    .fil1 {fill:#2B2A29}
    .fil0 {fill:#DC2E2D}
   ]]>
  </style>
 </defs>
 <g id="Layer_x0020_1">
  <metadata id="CorelCorpID_0Corel-Layer"/>
  <g id="_3084604605168">
   <path class="fil0" d="M36.49 17.77l-1.43 -0.06 7.34 -3.53c-0.03,0.31 -0.72,1.09 -0.93,1.38l-1.27 1.12c-0.72,0.48 -2.5,1.09 -3.71,1.09zm0.34 -17.15l0.02 0c1.5,0.01 2.98,0.67 3.96,1.48l1.64 1.51c2.23,2.44 1.69,3.99 2.58,5.8 0.85,-0.07 1.55,-0.83 2.28,-0.83 0.53,0 2.11,1.05 2.85,1.24l0 0.35c-0.76,0.17 -3.08,1.42 -3.94,1.84 -0.76,0.37 -1.19,0.57 -1.52,1.37 -0.28,0.7 -0.51,1.29 -0.79,1.99 -0.18,0.47 -0.27,0.59 -0.52,0.95l-0.98 1.19c-0.15,0.16 -0.17,0.23 -0.31,0.39 -0.58,0.61 -1.78,1.44 -2.55,1.74 -0.35,0.13 -0.66,0.25 -1.02,0.4 -0.54,0.21 -0.45,0.22 -1.19,0.22 0.07,0.28 0.03,0.21 0.23,0.33 0.6,0.35 6.75,2.82 8.1,3.41l1.43 0.76c0.24,0.13 0.46,0.17 0.72,0.33 1.7,1.04 1.55,0.93 1.55,2.71 0,2.09 -0.11,4.29 0,6.36 0.02,0.36 0.08,0.58 0.08,1.04l0 14.31c0,0.99 -0.08,1.72 -0.08,2.7 -0.26,0.06 -0.67,0.27 -0.95,0.39l-1.8 0.74c-0.25,0.1 -0.7,0.25 -1.02,0.25l0 -26.07c-1.46,-0.33 -1.45,-0.32 -2.91,-0.9 -1.24,-0.51 -2.4,-1.08 -3.62,-1.68 -1.79,-0.87 -5.82,-2.83 -7.2,-3.37 -3.31,-1.3 -2.98,-1.77 -6.4,-0.11l-5.17 2.38c-0.41,0.19 -2.47,0.99 -2.47,1.26l0 25.18c-0.49,0 -1.95,-0.58 -2.32,-0.79 -0.47,-0.28 -0.69,-0.21 -1.15,-0.41 -0.3,-0.13 -0.21,-0.16 -0.26,-0.51 -0.15,-1.12 -0.04,-21.49 -0.04,-24.43 0,-1.06 1.08,-1.47 2.02,-1.98 0.45,-0.25 0.94,-0.39 1.39,-0.58 0.48,-0.21 0.86,-0.39 1.4,-0.59 1.45,-0.53 2.85,-1.09 4.23,-1.76 0.4,-0.2 1.01,-0.37 1.14,-0.83 -0.25,-0.34 -1.02,-0.44 -1.46,-0.66 -0.25,-0.13 -0.43,-0.24 -0.7,-0.36l-3.6 -1.48c-0.47,-0.19 -0.96,-0.45 -1.46,-0.66 -0.31,-0.12 -0.46,-0.2 -0.75,-0.31 -0.52,-0.21 -3.24,-1.24 -3.49,-1.58 0.16,-0.22 2.26,-1.37 2.59,-1.56 0.95,-0.56 1.18,-0.41 2.15,0.06l1.12 0.51c0.68,0.28 1.49,0.83 2.18,0.99 0,-0.55 -0.33,-1.14 -0.52,-1.57 -0.62,-1.43 -1.4,-3.13 -1.4,-4.72 0,-1.01 0,-1.19 0.17,-2.19 0.07,-0.4 0.15,-0.52 0.26,-0.85 0.33,-0.94 1.33,-2 2.14,-2.35 1.31,-0.56 3.28,-0.39 4.41,0.41 0.17,0.12 0.28,0.22 0.47,0.36 1.78,1.27 2.59,4.76 3.44,5.31l0.44 -1.38c0.28,-0.81 0.8,-1.52 1.22,-2.27 0.63,-1.09 1.61,-1.97 2.72,-2.62 0.21,-0.13 0.4,-0.21 0.62,-0.29 0.61,-0.24 1.34,-0.56 2.04,-0.57zm-5.47 14.6c0,-2.18 0.45,-5.02 1.26,-7.01 0.39,-0.97 0.78,-1.85 1.36,-2.62 0.29,-0.38 0.57,-0.78 0.98,-1.05 1.26,-0.84 3.01,-0.59 4.16,0.1 1.2,0.72 2.06,2.02 2.6,3.28 0.37,0.83 0.68,1.73 0.68,2.66 0,0.39 -1.24,0.71 -1.91,0.99l-5.55 2.28c-0.74,0.35 -1.98,0.77 -2.8,1.16 -0.25,0.12 -0.39,0.21 -0.78,0.21zm-9.83 -9.06c0,-0.46 0.22,-0.87 0.48,-1.13 0.69,-0.68 2.28,-0.44 3.07,0.31 0.32,0.31 0.91,1.07 1.09,1.5l0.56 2.01c0.29,1.65 0.21,3.23 0.21,4.91 0,0.61 -0.23,1.18 -0.28,1.73 -0.33,-0.08 -0.7,-0.57 -0.94,-0.81 -0.2,-0.19 -0.27,-0.25 -0.44,-0.47 -0.88,-1.09 -1.13,-1.36 -1.87,-2.68 -0.63,-1.13 -0.72,-0.99 -1.24,-2.39 -0.48,-1.28 -0.64,-1.36 -0.64,-2.98z"/>
   <path class="fil0" d="M6.44 41.22l-0.36 0 0 -7.06c0.95,0.02 1.39,0.38 1.69,1.06 0.57,1.3 0.38,1.04 0.37,2.19 0,1 0.05,2.76 -0.69,3.4 -0.21,0.18 -0.64,0.41 -1.01,0.41zm0.43 -10.93c-0.84,0 -0.42,-0.04 -0.86,-0.14l0 -5.88c1.9,0.16 1.99,2.28 1.99,3.81 0,0.86 -0.32,2.21 -1.13,2.21zm-5.13 13.35c0,0.34 0.98,0.4 1.61,0.71 0.56,0.28 1.13,0.48 1.67,0.74 0.53,0.25 1.04,0.47 1.62,0.7 1.72,0.68 1.39,0.54 3.36,0.54 0.7,0 0.95,-0.46 1.21,-0.89 0.44,-0.71 0.58,-1.58 0.72,-2.41 0.04,-0.24 0.1,-0.68 0.12,-0.92 0.2,-1.76 0.21,-4.67 -0.58,-6.2 -0.25,-0.49 -0.58,-0.84 -0.89,-1.28l-0.94 -1.23c0.35,-0.16 0.74,-0.2 1.19,-0.57 1.12,-0.93 0.73,-3.29 0.73,-4.48 0,-0.89 0.09,-1.42 0.01,-2.28 -0.13,-1.52 -0.39,-1.81 -0.93,-2.83 -0.37,-0.69 -1.18,-1.59 -1.77,-2.02l-4.23 -2.04c-0.78,-0.3 -2.2,-0.92 -2.9,-0.92l0 25.38z"/>
   <path class="fil0" d="M33.5 41.01l0 10.72c0,1.42 0.11,2.61 0.42,3.73 0.15,0.56 0.27,1.07 0.58,1.51 0.67,0.95 1.31,0.84 2.13,0.84 1.26,0 2.54,-0.56 3.33,-1.19 1.13,-0.9 0.93,-0.78 1.81,-1.76 0.17,-0.18 0.22,-0.35 0.35,-0.56 0.84,-1.34 1.27,-2.24 1.27,-4.16l0 -9.34c-1.13,0 -2.6,0.82 -3.5,1.37 -0.32,0.2 -0.7,0.42 -0.93,0.69 -0.34,0.42 -0.24,0.65 -0.26,1.33 -0.02,0.62 -0.17,0.49 -0.03,1.47 0.17,1.15 -0.35,1.98 0.49,1.68 0.27,-0.09 0.32,-0.17 0.67,-0.18 0,1.43 0.32,3.09 -0.38,4.55 -0.38,0.79 -1.12,1.58 -1.66,0.55 -0.33,-0.62 -0.16,-2.14 -0.16,-3.02l-0.08 -9.48c0,-1.12 0.08,-2.02 0.07,-3.11 0,-1 0.93,-1.86 1.36,-1.86 1.48,0 0.52,3.61 0.94,3.82 0.23,0.11 3.23,-1.27 3.47,-1.34 0,-1.63 0.3,-4.94 -0.41,-6.23 -0.5,-0.91 -1.78,-1.37 -3,-1.37 -1.11,0 -2.39,0.61 -3.19,1.26 -0.87,0.71 -1.43,1.64 -1.87,2.61 -0.7,1.53 -0.43,0.89 -0.87,2.48 -0.49,1.74 -0.55,2.98 -0.55,4.99z"/>
   <path class="fil0" d="M19.75 30.64l0 16.11c0,0.76 0.38,2.36 0.65,3.1 0.25,0.66 0.96,1.89 1.38,2.47 0.72,1.02 2.39,2.46 3.65,2.74 0.13,0.03 1.07,0.12 1.21,0.11 1.06,-0.08 1.25,-0.17 1.86,-0.76 0.22,-0.22 0.39,-0.46 0.5,-0.75 0.09,-0.24 0.29,-0.76 0.29,-1.03l0 -10.51c0,-0.59 -0.96,-0.65 -2.13,-1.11 -0.47,-0.18 -2.06,-0.82 -2.49,-0.83l0 4.77c0,0.24 0.17,0.21 0.42,0.22 0.23,0 0.48,-0.01 0.72,-0.01 0.27,1.01 0.35,-0.3 0.35,2.56l-0.16 1.22c-0.06,0.39 -0.25,0.75 -0.34,1.13 -0.28,0.02 -0.58,0.32 -1.28,-0.62 -0.84,-1.13 -0.42,-3.15 -0.43,-4.43l0 -11.62c0,-0.64 -0.1,-1.1 0.37,-1.31 0.82,-0.36 1.45,0.85 1.63,1.59 0.18,0.8 0.07,2.3 0.07,3.25 0.3,0.15 0.39,0.23 0.75,0.37 0.58,0.24 2.16,0.87 2.52,0.87l0 -5.39c0,-0.87 -0.73,-1.96 -1.19,-2.64 -0.15,-0.22 -0.19,-0.24 -0.35,-0.42 -0.27,-0.32 -0.47,-0.56 -0.79,-0.83 -1,-0.87 -2.81,-2.13 -4.14,-2.13 -1.38,0 -1.54,0.4 -2.17,1.29 -0.13,0.18 -0.26,0.32 -0.34,0.5 -0.17,0.39 -0.56,1.65 -0.56,2.09z"/>
   <path class="fil0" d="M51.08 24.9l0 26.34 1.32 -0.37c0.23,-0.07 0.43,-0.17 0.62,-0.24l1.23 -0.46c0.59,-0.13 0.61,0.4 0.61,-1.97l-0.07 -8.09c0,-1.62 0.48,-1.54 1.64,-2 1.67,-0.65 1.84,-0.45 1.84,-2.56 0,-0.3 -0.05,-0.39 -0.05,-0.56 -0.01,-0.21 0.05,-0.3 0.05,-0.62l-0.07 -2c-0.27,0.02 -1.31,0.43 -1.57,0.54 -0.59,0.23 -1.32,0.56 -1.84,0.56 0,-0.98 -0.06,-3.83 0.06,-4.64 0.08,-0.58 0.59,-0.6 1.55,-0.98l1.78 -0.76c0.22,-0.09 0.47,-0.21 0.66,-0.26 0,-1.94 -0.14,-2.93 -0.14,-4.98 -0.93,0.08 -2.22,0.87 -2.86,1.1 -0.34,0.13 -0.69,0.19 -0.98,0.36 -0.57,0.32 -2.15,0.91 -2.83,1.19 -0.29,0.12 -0.7,0.34 -0.95,0.4z"/>
   <path class="fil0" d="M59.34 21.44c0,1.74 -0.07,3.29 -0.07,4.98 1.4,0 1.61,-0.54 2.35,-0.56 0,0.99 0.07,1.72 0.07,2.7 0,1.35 0.09,12.97 -0.03,13.73 -0.07,0.49 -0.17,4.14 0.03,4.33 0.19,0.19 2.8,-0.89 3.34,-1.05 0.48,-0.14 0.35,-0.17 0.42,-0.71 0.07,-0.59 0.02,-11.45 0.02,-12.15 0,-3.01 0.07,-5.82 0.07,-8.78l1.37 -0.54c0.48,-0.3 0.76,-0.43 0.76,-1.19l0 -4.22c-0.44,0 -0.76,0.21 -1.07,0.34 -0.92,0.36 -0.89,0.48 -2.09,0.88l-3.1 1.34c-0.68,0.3 -1.42,0.57 -2.07,0.9z"/>
   <path class="fil1" d="M34.92 64.17c0,-0.75 0.44,-1.87 0.76,-2.51 0.19,-0.38 0.1,-0.46 0.66,-0.46l-0.26 -0.3c-0.34,-0.24 -0.42,-0.18 -0.61,0.08l-0.46 0.87c-0.47,0.93 -1,1.85 -1.67,2.66 -0.2,0.24 -0.19,0.29 -0.63,0.29 -0.27,-0.4 -0.22,-0.45 -0.15,-0.98 0.06,-0.39 0.14,-0.69 0.25,-1.07 0.15,-0.51 0.4,-1.49 0.97,-1.62 -0.07,-0.26 -0.22,-0.35 -0.5,-0.41 -0.11,0.07 -0.07,0.06 -0.15,0.13l-0.15 0.13c-0.1,0.06 -0.33,0.11 -0.42,0.14 -1.42,0.37 -1.79,0.35 -1.35,1.19 0.1,0.2 0.07,0.25 0.36,0.27 -0.02,-0.26 -0.07,-0.22 -0.07,-0.55 0.22,-0.14 0.35,-0.25 0.63,-0.36 0.19,-0.07 0.51,-0.21 0.72,-0.26 -0.29,0.59 -0.62,1.46 -0.74,2.11 -0.17,0.94 -0.11,0.99 0.4,1.47 0.54,0.5 0.86,0.07 1.37,-0.65 0.18,-0.25 0.5,-0.87 0.68,-1 -0.07,0.33 -0.32,1.24 -0.29,1.56 0.02,0.22 0.19,0.31 0.51,0.38 0.15,-0.28 0.16,-0.53 0.28,-0.83 0.12,-0.3 0.26,-0.72 -0.14,-0.28z"/>
   <path class="fil1" d="M14.98 62.1c0.56,-0.13 1.03,-1.05 1.71,-1.11 0,1.34 -0.99,3.95 -2.06,3.95 -0.42,0 -0.79,-0.35 -0.79,-0.9 0,-0.81 0.58,-2.08 0.99,-2.57 0.27,-0.33 0.3,-0.43 0.72,-0.34 -0.1,0.37 -0.53,0.55 -0.57,0.97zm0.79 -1.11c-0.32,-0.08 -0.86,-0.96 -1.86,1.11 -0.24,0.52 -1.03,2.34 -0.17,2.79l0.61 0.24c0.22,0.09 -0.22,0.08 0.63,0.08 0.74,0 1.32,-1.14 1.59,-1.7 0.38,-0.77 0.62,-1.55 0.62,-2.65 -0.11,-0.03 -0.28,-0.07 -0.39,-0.11 -0.73,-0.31 -0.29,-0.24 -1.03,0.24z"/>
   <g>
    <path class="fil1" d="M17.83 63.48l-0.04 0.15 0.04 -0.15zm0 0c0.08,-0.34 0.21,-0.55 0.36,-0.83 0.16,-0.32 0.2,-0.48 0.71,-0.48 -0.08,-0.29 -0.37,-0.35 -0.64,-0.42 -0.75,0.64 -1.52,3.62 -1.7,4.65 -0.2,1.17 -0.32,1.3 0.2,1.65 0.36,-0.72 -0.15,-2.18 1.31,-4.33 0.2,-0.3 0.63,-0.84 0.97,-0.93 0.18,0.37 -0.05,1.09 -0.19,1.41 -0.41,0.95 -0.54,0.48 -0.95,0.67 0.5,0.72 1.07,0.28 1.38,-0.6 0.52,-1.45 0.28,-1.48 -0.38,-1.82 -0.22,0.14 -0.36,0.31 -0.55,0.5 -0.2,0.18 -0.34,0.41 -0.52,0.53z"/>
   </g>
   <path class="fil1" d="M44.75 64.17c0.04,-0.49 0.21,-0.34 0.21,-1.52 -0.62,-0.31 -0.55,-0.39 -1.33,0.64 -0.14,0.18 -0.22,0.35 -0.38,0.47 0.03,-0.37 0.07,-0.63 0.07,-1.11 -0.51,-0.33 -0.56,-0.33 -1.17,0.53l-0.32 0.44 0.15 -0.96 -0.51 -0.21c-0.14,0.26 -0.35,0.42 -0.43,0.69 0.27,-0.07 0.21,-0.14 0.43,-0.28 0,0.51 -0.06,0.73 -0.17,1.15 -0.09,0.34 -0.31,0.81 -0.33,1.06 0.27,0.07 0.09,0.07 0.36,0.14l1.26 -2.23c0.14,-0.16 0.12,-0.17 0.38,-0.19 0,1.07 -0.48,1.97 -0.5,2.28 0.22,0.05 0.2,0.09 0.42,0.14 0.05,-0.52 0.71,-1.51 1.06,-1.94 0.31,-0.38 0.26,-0.41 0.58,-0.48 0,0.51 -0.1,0.85 -0.21,1.25 -0.1,0.38 -0.35,0.79 -0.36,1.17 0.49,0.11 0.44,0 0.64,-0.41 0.14,-0.29 0.36,-0.52 0.43,-0.83 -0.16,0.04 -0.19,0.1 -0.28,0.2z"/>
   <path class="fil1" d="M52.01 62.86c-0.04,0.45 -1.11,1.89 -1.64,2.01 0.01,-0.53 0.29,-0.95 0.53,-1.29 0.16,-0.24 0.21,-0.3 0.41,-0.5 0.27,-0.27 0.2,-0.22 0.7,-0.22zm0 0c-0.09,-0.31 -0.44,-0.41 -0.5,-0.41 -0.58,0 -2.32,2.76 -1.14,2.76 0.39,-0.1 0.52,-0.37 0.77,-0.64l0.65 -0.74c-0.05,0.63 -0.49,1.22 0.22,1.38 0.09,-0.19 0.11,-0.42 0.21,-0.62 0.1,-0.21 0.23,-0.3 0.29,-0.55 -0.15,0.04 -0.09,0.01 -0.19,0.09 -0.02,0.01 -0.06,0.05 -0.08,0.07l-0.06 0.07c-0.01,0.01 -0.02,0.03 -0.03,0.04 0.02,-0.83 0.85,-3.37 1.44,-3.93 0.25,-0.25 0.28,-0.11 0.63,-0.08 -0.06,-0.18 -0.12,-0.25 -0.28,-0.36 -0.02,-0.02 -0.15,-0.09 -0.17,-0.1 -0.35,-0.14 -0.47,0.14 -0.74,0.56 -0.54,0.87 -0.62,1.53 -0.9,2.23 -0.01,0.02 -0.04,0.08 -0.05,0.1 -0.06,0.14 -0.02,0.06 -0.07,0.13z"/>
   <path class="fil1" d="M37.91 64.04c0.01,-0.32 0.12,-0.57 0.17,-0.95 0.08,-0.6 -0.43,-0.91 -1.06,-0.12l-0.53 0.65c0.01,-0.41 0.14,-0.42 0.14,-0.97 -0.17,-0.08 -0.24,-0.16 -0.43,-0.2 -0.13,0.08 -0.18,0.16 -0.28,0.28 -0.2,0.24 -0.3,0.48 0.05,0.19 0.12,-0.1 0.08,-0.1 0.23,-0.2 -0.08,0.91 -0.5,1.69 -0.64,2.28l0.28 0.15c0.25,-0.17 0.27,-0.3 0.41,-0.58 0.13,-0.27 0.24,-0.44 0.38,-0.67 0.22,-0.36 0.65,-0.88 1,-1.11 0,2.06 -1.1,2.4 -0.15,2.42l0.71 -1.31c-0.21,0.02 -0.18,0.03 -0.28,0.14z"/>
   <path class="fil1" d="M25.66 63.76l0.02 0.02c0,0 -0.02,-0.01 -0.02,-0.02zm1.57 0.28c0.01,-0.52 0.33,-1.12 0.08,-1.39 -0.56,-0.63 -1.23,0.79 -1.58,1.04 0.1,-0.39 0.22,-0.53 0.22,-1.04 -0.17,-0.08 -0.24,-0.16 -0.43,-0.2 -0.31,0.2 -0.71,0.86 -0.23,0.47 0.12,-0.1 0.08,-0.1 0.23,-0.2 -0.1,0.41 -0.16,0.81 -0.27,1.19 -0.09,0.28 -0.35,0.85 -0.37,1.09l0.28 0.15c0.27,-0.18 0.51,-0.79 0.79,-1.25 0.17,-0.27 0.65,-1.02 0.99,-1.11 0,0.65 -0.04,0.75 -0.18,1.28 -0.11,0.45 -0.3,0.71 -0.38,1.07 0.16,0.04 0.21,0.07 0.42,0.07l0.64 -1.31c-0.23,0.08 -0.03,-0.05 -0.21,0.14z"/>
   <path class="fil1" d="M38.91 65.21c0.09,-0.19 0.13,-0.4 0.22,-0.61 0.11,-0.27 0.2,-0.27 0.28,-0.56 -0.38,0.09 -0.07,0.06 -0.36,0.27 0.05,-0.55 0.4,-1.74 0.58,-2.27 0.11,-0.34 0.75,-1.81 1.06,-1.81 0.27,0 0.13,0.05 0.42,0.07 -0.08,-0.29 -0.32,-0.42 -0.57,-0.55 -1.13,0.58 -2.14,5 -1.98,5.26 0.05,0.09 0.21,0.17 0.35,0.2z"/>
   <path class="fil1" d="M23.1 65c-0.16,-0.67 -0.05,-1.15 0.31,-1.78 0,-0.01 0.05,-0.1 0.07,-0.12l0.36 -0.14c0.33,-0.12 0.7,-0.5 0.42,0.68 -0.15,0.6 -0.43,1.36 -1.16,1.36zm0.28 0.21c0.48,0 0.65,-0.04 1.03,-0.8 0.17,-0.35 0.33,-0.89 0.33,-1.34 0,-0.32 -0.15,-0.36 -0.29,-0.55 -0.25,0.02 -0.34,0.08 -0.57,0.13 -0.2,-0.13 -0.09,-0.14 -0.35,-0.2 -0.44,0.28 -0.68,0.92 -0.85,1.45 -0.22,0.69 -0.17,1.31 0.7,1.31z"/>
   <path class="fil1" d="M46.74 62.65c0.07,0.2 0.07,0.19 0.36,0.21 -0.02,0.55 -0.43,1.36 -0.43,2.21 0.44,0.1 0.38,0.35 0.87,-0.19 0.14,-0.15 0.25,-0.26 0.27,-0.5 -0.21,0.11 -0.16,0.06 -0.34,0.23 -0.18,0.17 -0.12,0.19 -0.37,0.26 0,-0.74 0.38,-1.53 0.42,-2.01 0.83,-0.19 0.75,0.12 0.86,-0.28l-0.71 0 0.49 -1.18c0.13,-0.19 0.13,-0.19 0.43,-0.2 -0.53,-0.76 -0.91,0.11 -1.09,0.67 -0.31,0.92 -0.29,0.56 -0.76,0.78z"/>
   <path class="fil1" d="M21.53 62.79l0 -0.21 -0.64 0c0.01,-0.31 0.15,-0.59 0.27,-0.85 0.12,-0.29 0.21,-0.5 0.59,-0.53 -0.09,-0.3 -0.26,-0.28 -0.64,-0.28l-0.67 1.5c-0.22,0.25 -0.27,0.04 -0.47,0.3 0.15,0.2 -0.01,0.13 0.35,0.14 -0.13,0.28 -0.46,1.74 -0.5,2.14 0.4,0.26 0.42,0.4 1.03,-0.26 0.12,-0.14 0.39,-0.58 -0.2,-0.11 -0.16,0.13 -0.21,0.19 -0.4,0.24 0.04,-0.43 0.18,-1 0.29,-1.38 0.23,-0.74 0.03,-0.7 0.99,-0.7z"/>
   <path class="fil1" d="M49.37 63.55c-0.25,0.06 -0.23,0.07 -0.57,0.07 0.07,-0.29 0.33,-0.82 0.65,-0.9 0,0.45 0.13,0.46 -0.08,0.83zm-1.14 -0.07c0.14,0.56 -0.12,0.74 -0.14,1.32 0.16,0.15 0.41,0.41 0.71,0.41 0.19,0 0.55,-0.34 0.66,-0.46l0.39 -0.47c0.33,-0.58 -0.51,0.21 -0.59,0.27 -0.1,0.07 -0.74,0.6 -0.74,0.25 0,-0.39 0.09,-0.78 0.21,-1.04 1.13,0.25 1.14,-0.3 1.14,-1.18 0,-0.35 -0.73,-0.21 -0.98,0.09 -0.09,0.11 -0.2,0.28 -0.27,0.42 -0.25,0.48 -0.13,0.37 -0.39,0.39z"/>
   <path class="fil1" d="M28.01 63.07c0,0.48 0.41,0.96 0.4,1.39 0,0.69 -0.83,0.15 -1.18,0.61 0.19,0.09 0.56,0.14 0.85,0.14 0.2,0 0.17,-0.1 0.41,-0.3 0.26,-0.21 0.31,-0.1 0.31,-0.6 0,-0.47 -0.29,-0.73 -0.29,-1.31 0,-0.34 0.26,-0.12 0.36,-0.48 -0.34,0.02 -0.86,0.25 -0.86,0.55z"/>
   <path class="fil1" d="M45.89 64.24l0.02 0.02c-0.01,0 -0.03,-0.01 -0.02,-0.02zm-0.5 -1.17c0.21,-0.05 0.27,-0.11 0.42,-0.21 0,0.66 -0.4,1.77 -0.64,2.21 0.17,0.09 0.19,0.12 0.43,0.14 0.12,-0.49 0.47,-0.7 0.57,-1.1l-0.21 0c0.1,-0.22 0.33,-1.09 0.35,-1.39 -0.2,-0.13 -0.21,-0.11 -0.42,-0.2 -0.26,0.16 -0.36,0.28 -0.5,0.55z"/>
   <path class="fil1" d="M21.53 62.79c-0.05,0.21 -0.03,0.11 -0.14,0.28 0.34,-0.03 0.25,-0.11 0.5,-0.28 -0.06,0.75 -0.42,1.75 -0.71,2.28 0.16,0.09 0.18,0.12 0.42,0.14l0.65 -1.17 -0.26 0.16c-0.01,0.01 -0.02,0.03 -0.03,0.04 0.04,-0.49 0.36,-0.9 0.36,-1.52 -0.16,-0.1 -0.21,-0.16 -0.43,-0.2l-0.36 0.27z"/>
   <path class="fil1" d="M39.83 63.14l0.42 -0.36c0.02,0.84 -0.59,1.94 -0.63,2.36l0.28 0.08c0.15,-0.11 0.67,-1 0.72,-1.18 -0.28,0.1 -0.01,0.01 -0.29,0.2 0.13,-0.55 0.36,-0.88 0.36,-1.59 -0.22,-0.05 -0.21,-0.08 -0.43,-0.13 -0.18,0.11 -0.11,0.06 -0.25,0.24 -0.13,0.16 -0.16,0.14 -0.18,0.38z"/>
   <path class="fil1" d="M56.85 65.21l0.21 0c0.57,-0.82 0.14,-0.73 -0.07,-0.83 -0.26,0.48 -0.46,0.83 -0.14,0.83z"/>
   <path class="fil1" d="M55.36 65.21c0.33,0 0.58,-0.02 0.64,-0.69 -0.13,-0.06 -0.23,-0.08 -0.36,-0.14 -0.09,0.19 -0.26,0.58 -0.28,0.83z"/>
   <path class="fil1" d="M52.65 65.21l0.43 0c0.11,-0.49 0.55,-0.76 -0.22,-0.76 -0.03,0.38 -0.18,0.42 -0.21,0.76z"/>
   <path class="fil1" d="M54 65.21c0.45,0 0.64,-0.19 0.64,-0.69 -0.12,-0.06 -0.23,-0.08 -0.35,-0.14 -0.07,0.14 -0.27,0.66 -0.29,0.83z"/>
   <path class="fil1" d="M40.33 61.96c0.53,0.29 1.37,-0.48 0.43,-0.55 -0.13,0.45 -0.31,0.1 -0.43,0.55z"/>
   <path class="fil1" d="M21.96 61.96c0.33,0.18 0.76,-0.03 0.86,-0.41 -0.41,-0.21 -0.35,-0.19 -0.63,0.08 -0.17,0.16 -0.17,0.11 -0.23,0.33z"/>
   <path class="fil1" d="M28.87 63.28c0.25,-0.02 0.31,-0.03 0.4,-0.24 0.32,-0.76 -0.2,-0.75 -0.32,-0.44 -0.02,0.06 -0.08,0.58 -0.08,0.68z"/>
   <path class="fil1" d="M45.89 61.82c0.31,0.46 0.71,0.11 0.92,-0.2 -0.33,-0.22 -0.26,-0.35 -0.59,-0.02 -0.17,0.17 -0.09,0.16 -0.33,0.22z"/>
   <path class="fil2" d="M69.61 18.37l0 -2.87 -1.05 0 0 -0.58 2.82 0 0 0.58 -1.05 0 0 2.87 -0.72 0zm2.22 0l0 -3.45 1.08 0 0.64 2.35 0.63 -2.35 1.08 0 0 3.45 -0.67 0 0 -2.72 -0.7 2.72 -0.69 0 -0.7 -2.72 0 2.72 -0.67 0z"/>
  </g>
 </g>
</svg>
