<?xml version="1.0" encoding="UTF-8"?>
<!DOCTYPE svg PUBLIC "-//W3C//DTD SVG 1.1//EN" "http://www.w3.org/Graphics/SVG/1.1/DTD/svg11.dtd">
<!-- Creator: CorelDRAW -->
<svg xmlns="http://www.w3.org/2000/svg" xml:space="preserve" width="591px" height="591px" version="1.1" style="shape-rendering:geometricPrecision; text-rendering:geometricPrecision; image-rendering:optimizeQuality; fill-rule:evenodd; clip-rule:evenodd"
viewBox="0 0 591 591"
 xmlns:xlink="http://www.w3.org/1999/xlink"
 xmlns:xodm="http://www.corel.com/coreldraw/odm/2003">
 <defs>
  <style type="text/css">
   <![CDATA[
    .fil0 {fill:none}
    .fil2 {fill:white}
    .fil1 {fill:#0F6A36;fill-rule:nonzero;fill-opacity:0.650980}
   ]]>
  </style>
 </defs>
 <g id="Layer_x0020_1">
  <metadata id="CorelCorpID_0Corel-Layer"/>
  <rect class="fil0" x="-0.72" y="0.72" width="591" height="591"/>
  <g id="_1843272102128">
   <path class="fil1" d="M586.97 283.77c0,-145.94 -118.31,-264.25 -264.25,-264.25 -145.94,0 -264.25,118.31 -264.25,264.25 0,145.94 118.31,264.25 264.25,264.25 145.94,0 264.25,-118.31 264.25,-264.25z"/>
   <path class="fil2" d="M219.1 187.48l-109.19 0c-5.72,0 -12.13,-6.41 -12.13,-12.13l0 -33.6c0,-8.71 8.8,-13.06 18.66,-13.06l98.93 0c21.94,0 17.73,19.45 17.73,41.99 0,9.35 -4.85,16.8 -14,16.8zm-136.26 -46.66l0 10.27c-29.78,0 -60.44,-4.19 -75.3,25.48 -2.69,5.37 -4.96,11.65 -4.96,19.31l0 332.25c0,7.66 2.27,13.95 4.96,19.31 9.3,18.58 26.2,25.49 49.17,25.49l217.46 0c43.75,0 31.24,-18.67 26.13,-18.67 -9.54,0 -5.28,1.99 -13.03,2.84 -4.44,0.49 -6.89,0.9 -12.17,0.9l-222.12 0c-20.08,0 -35.47,-11.61 -35.47,-29.87l0 -332.25c0,-17.9 15.05,-29.86 34.54,-29.86l30.79 0c0,11.53 -0.59,18.38 7.89,27.58 3.47,3.76 11.48,8.82 18.25,8.82l111.06 0c8.72,0 16.77,-5.14 20.7,-10.11 5.96,-7.53 7.29,-14.74 7.29,-26.29 23.6,0 51.46,-4.61 61.89,17.45 5.11,10.81 3.44,30.55 3.44,46.01 0,17.62 -0.91,70.82 -0.07,86.87 0.18,3.38 -0.22,2.83 1.59,4.95 3.82,4.49 13.42,3.97 13.42,-7.82l0 -110.13c0,-7.86 -1.02,-16.99 -3.44,-22.7 -14.62,-34.47 -45.79,-29.56 -76.83,-29.56 0,-25 -10.6,-37.34 -36.39,-37.34l-93.33 0c-11.17,0 -17.77,1.86 -24.29,6.51 -4.94,3.52 -11.18,12.34 -11.18,20.56z"/>
   <path class="fil2" d="M215.06 516.77l0 -101.92c0,-11.98 18.9,-8.94 32.18,-8.94 5.96,0 10.73,3.08 10.73,8.94l0 104.6c0,10.27 -23.19,7.15 -33.08,7.15 -5.22,0 -9.83,-4.61 -9.83,-9.83zm101.91 -97.45c0,8.2 8.78,7.17 16.99,7.16l62.65 -0.08c6.84,-0.04 7.08,1.08 7.08,7.23 0,10 -43.81,-4.4 -43.81,10.72 0,10.51 16.32,8.18 29.56,8 5.6,-0.08 7.99,-0.15 7.99,5.41 0,7.65 -6.99,5.37 -22.35,5.37 -9.18,0 -21.45,-2.05 -21.45,7.15 0,7.49 5.87,7.21 13.4,7.16 7.15,-0.05 14.31,-0.01 21.46,-0.01 3.79,5.65 3.69,6.12 0,11.62l-42.91 -0.89c-5.98,0 -10.43,14.69 2.63,15.25 4.8,0.2 10.37,-0.04 15.25,-0.05 11.94,-0.02 14.32,-1.76 11.62,9.83 -17.64,0 -73.93,0.94 -89.46,0.07 -7.42,-0.41 -7.07,-6.43 -13.35,-8.11l0 -79.57c6.81,-0.15 16.03,-5.08 20.32,-8.29 12.66,-9.45 17.22,-21.9 20.6,-37.51 2.03,-9.43 2,-16.28 2,-27.51 1.77,-1.19 2.47,-1.62 4.47,-2.68 11.85,6.27 13.99,39.07 5.97,55.14 -4.2,8.42 -8.66,9.39 -8.66,14.59zm-44.7 -8.04c-5.35,-22.99 -26.61,-19.67 -45.59,-19.67 -14.46,0 -25.93,9.76 -25.93,22.35l0 103.7c0,11.28 11.03,23.25 25.03,23.25l22.36 0c11.03,0 22.42,-8.09 23.24,-17.88 3.66,0.98 5.28,3.46 10.05,4.25 12.74,2.1 68.55,1.11 84.71,1.11 20.75,0 24.14,-9.07 24.14,-25.93 5.08,-0.42 8.46,-2.98 10.77,-6.21 6.11,-8.53 4.62,-13.9 2.64,-22.39 7.94,-5.32 10.08,-17.07 6.26,-25.03 9.18,-6.15 12.48,-23.95 -0.33,-33.64 -5.76,-4.36 -12.62,-3.02 -22.02,-3.02 -16.69,0 -33.38,0 -50.06,0 10.45,-19.76 8.86,-41.51 0.9,-61.69 -9.2,-23.31 -31.05,-15.66 -36.06,-2.96 -3.8,9.65 3.5,55.93 -30.11,63.76z"/>
   <path class="fil2" d="M77.38 359.85c0,-2.06 0.62,-2.68 2.69,-2.68l28.6 0 0 31.29 -31.29 0 0 -28.61zm-14.3 0c0,41.39 -3.39,43.81 37.55,43.81 5.9,0 10.95,-0.62 14.88,-3 3.4,-2.07 7.47,-6.4 7.47,-11.3 0,-47.46 5.01,-46.49 -41.13,-46.49 -10.65,0 -18.77,6.54 -18.77,16.98z"/>
   <path class="fil2" d="M77.38 485.01l0 -25.92c0,-2.06 0.62,-2.68 2.68,-2.68l28.61 0 0 31.29 -28.61 0c-2.06,0 -2.68,-0.62 -2.68,-2.69zm-14.3 -25.03c0,45.7 -1.25,42.02 43.8,42.02 8.54,0 16.09,-6.57 16.09,-15.2l0 -31.29c0,-6.87 -7.69,-13.41 -15.19,-13.41 -22.92,0 -44.7,-4.77 -44.7,17.88z"/>
   <path class="fil2" d="M77.38 288.33l0 -28.6 31.29 0 0 28.6c0,2.07 -0.62,2.69 -2.68,2.69l-25.93 0c-2.06,0 -2.68,-0.62 -2.68,-2.69zm-14.3 -25.03c0,44.98 -1.71,42.02 43.8,42.02 9,0 16.09,-8.41 16.09,-14.3l0 -32.19c0,-6.56 -6.66,-13.41 -15.19,-13.41l-29.5 0c-9.31,0 -15.2,8.01 -15.2,17.88z"/>
   <path class="fil2" d="M151.58 254.36c0,4.66 1.09,8.94 7.15,8.94l112.65 0c10.52,0 8.22,-14.3 1.79,-14.3l-116.22 0c-2.16,0 -5.37,3.21 -5.37,5.36z"/>
   <path class="fil2" d="M151.58 291.91c0,5.69 1.25,8.94 8.94,8.94l56.32 0c10.48,0 10.75,-14.3 0.9,-14.3l-60.79 0c-2.16,0 -5.37,3.21 -5.37,5.36z"/>
   <path class="fil2" d="M151.58 354.49c0,4.36 1.16,7.15 6.26,7.15l38.44 0c8.55,0 9.78,-14.3 -3.57,-14.3l-31.29 0c-5.33,0 -9.84,1.72 -9.84,7.15z"/>
   <path class="fil2" d="M151.58 489.49c0,11.26 5.98,8.94 25.03,8.94 9.6,0 9.6,-14.31 0,-14.31 -7.94,0 -25.03,-2.13 -25.03,5.37z"/>
   <path class="fil2" d="M151.58 392.04c0,9.41 6.58,7.15 22.35,7.15 9.61,0 10.4,-14.3 -2.68,-14.3 -8.14,0 -19.67,-1.88 -19.67,7.15z"/>
   <path class="fil2" d="M151.58 451.94c0,10.04 4.36,8.94 16.09,8.94 10.63,0 10.63,-14.31 0,-14.31 -4.27,0 -16.09,-1.23 -16.09,5.37z"/>
  </g>
 </g>
</svg>
