<?xml version="1.0" encoding="UTF-8"?>
<!DOCTYPE svg PUBLIC "-//W3C//DTD SVG 1.1//EN" "http://www.w3.org/Graphics/SVG/1.1/DTD/svg11.dtd">
<!-- Creator: CorelDRAW -->
<svg xmlns="http://www.w3.org/2000/svg" xml:space="preserve" width="591px" height="591px" version="1.1" style="shape-rendering:geometricPrecision; text-rendering:geometricPrecision; image-rendering:optimizeQuality; fill-rule:evenodd; clip-rule:evenodd"
viewBox="0 0 591 591"
 xmlns:xlink="http://www.w3.org/1999/xlink"
 xmlns:xodm="http://www.corel.com/coreldraw/odm/2003">
 <defs>
  <style type="text/css">
   <![CDATA[
    .fil0 {fill:none}
    .fil1 {fill:white}
   ]]>
  </style>
 </defs>
 <g id="Layer_x0020_1">
  <metadata id="CorelCorpID_0Corel-Layer"/>
  <rect class="fil0" x="-0.72" y="0.72" width="591" height="591"/>
  <g id="_2311640399152">
   <path class="fil1" d="M305.53 105.35l-133.73 0c-7.01,0 -14.86,-7.85 -14.86,-14.86l0 -41.15c0,-10.66 10.78,-15.99 22.86,-15.99l121.15 0c26.87,0 21.72,23.82 21.72,51.43 0,11.44 -5.94,20.57 -17.14,20.57zm-166.88 -57.15l0 12.57c-36.48,0 -74.02,-5.13 -92.22,31.22 -3.29,6.57 -6.07,14.26 -6.07,23.65l0 406.89c0,9.38 2.78,17.08 6.07,23.65 11.39,22.74 32.09,31.21 60.22,31.21l266.31 0c53.59,0 38.26,-22.86 32.01,-22.86 -11.69,0 -6.47,2.44 -15.96,3.48 -5.44,0.59 -8.44,1.09 -14.91,1.09l-272.02 0c-24.58,0 -43.43,-14.22 -43.43,-36.57l0 -406.89c0,-21.93 18.42,-36.58 42.29,-36.58l37.71 0c0,14.13 -0.72,22.51 9.66,33.78 4.25,4.61 14.06,10.8 22.35,10.8l136.01 0c10.68,0 20.54,-6.3 25.35,-12.37 7.3,-9.23 8.94,-18.06 8.94,-32.21 28.89,0 63.01,-5.64 75.78,21.37 6.26,13.24 4.22,37.42 4.22,56.35 0,21.58 -1.11,86.73 -0.08,106.38 0.21,4.15 -0.28,3.47 1.94,6.07 4.68,5.5 16.43,4.87 16.43,-9.58l0 -134.87c0,-9.62 -1.24,-20.81 -4.21,-27.79 -17.9,-42.23 -56.08,-36.22 -94.08,-36.22 0,-30.61 -13,-45.71 -44.58,-45.71l-114.29 0c-13.69,0 -21.76,2.27 -29.75,7.96 -6.05,4.31 -13.69,15.12 -13.69,25.18z"/>
   <path class="fil1" d="M300.57 508.61l0 -124.81c0,-14.67 23.15,-10.95 39.42,-10.95 7.29,0 13.13,3.77 13.13,10.95l0 128.1c0,12.57 -28.4,8.76 -40.51,8.76 -6.39,0 -12.04,-5.65 -12.04,-12.05zm124.81 -119.33c0,10.03 10.75,8.77 20.8,8.75l76.74 -0.08c8.37,-0.05 8.67,1.32 8.67,8.84 0,12.25 -53.66,-5.39 -53.66,13.14 0,12.87 19.99,10.02 36.2,9.79 6.86,-0.09 9.79,-0.19 9.79,6.63 0,9.37 -8.57,6.58 -27.37,6.57 -11.25,0 -26.28,-2.51 -26.28,8.76 0,9.17 7.2,8.83 16.42,8.77 8.75,-0.06 17.53,-0.01 26.28,-0.01 4.63,6.91 4.52,7.49 0,14.23l-52.55 -1.09c-7.33,0 -12.78,17.99 3.22,18.67 5.87,0.25 12.69,-0.05 18.68,-0.06 14.62,-0.02 17.53,-2.15 14.23,12.05 -21.61,0 -90.54,1.13 -109.57,0.08 -9.08,-0.51 -8.65,-7.88 -16.34,-9.94l0 -97.44c8.34,-0.19 19.63,-6.23 24.89,-10.15 15.49,-11.57 21.08,-26.82 25.22,-45.95 2.49,-11.54 2.45,-19.93 2.45,-33.68 2.17,-1.46 3.03,-1.99 5.47,-3.29 14.52,7.69 17.14,47.85 7.31,67.54 -5.14,10.31 -10.6,11.5 -10.6,17.87zm-54.74 -9.86c-6.56,-28.15 -32.6,-24.09 -55.84,-24.09 -17.7,0 -31.75,11.96 -31.75,27.38l0 127c0,13.81 13.51,28.46 30.66,28.46l27.37 0c13.51,0 27.47,-9.9 28.47,-21.89 4.48,1.19 6.46,4.23 12.31,5.2 15.59,2.58 83.94,1.37 103.74,1.37 25.4,0 29.56,-11.11 29.56,-31.75 6.21,-0.52 10.36,-3.66 13.19,-7.62 7.47,-10.45 5.66,-17.02 3.24,-27.42 9.72,-6.51 12.34,-20.9 7.66,-30.65 11.24,-7.53 15.28,-29.33 -0.41,-41.2 -7.06,-5.34 -15.45,-3.69 -26.96,-3.69 -20.44,0 -40.88,0 -61.31,0 12.8,-24.2 10.85,-50.84 1.1,-75.56 -11.27,-28.54 -38.02,-19.17 -44.15,-3.62 -4.67,11.82 4.28,68.49 -36.88,78.08z"/>
   <path class="fil1" d="M131.97 316.45c0,-2.53 0.76,-3.29 3.28,-3.29l35.04 0 0 38.32 -38.32 0 0 -35.03zm-17.52 0c0,50.68 -4.15,53.64 45.98,53.64 7.23,0 13.42,-0.76 18.22,-3.67 4.18,-2.53 9.15,-7.84 9.15,-13.84 0,-58.12 6.14,-56.93 -50.36,-56.93 -13.04,0 -22.99,8.01 -22.99,20.8z"/>
   <path class="fil1" d="M131.96 469.73l0 -31.76c0,-2.52 0.77,-3.28 3.29,-3.28l35.03 0 0 38.32 -35.03 0c-2.52,0 -3.29,-0.76 -3.29,-3.28zm-17.51 -30.66c0,55.96 -1.54,51.46 53.64,51.46 10.46,0 19.71,-8.05 19.71,-18.61l0 -38.33c0,-8.41 -9.42,-16.41 -18.61,-16.41 -28.07,0 -54.74,-5.85 -54.74,21.89z"/>
   <path class="fil1" d="M131.96 228.86l0 -35.04 38.32 0 0 35.04c0,2.52 -0.76,3.28 -3.28,3.28l-31.75 0c-2.52,0 -3.29,-0.76 -3.29,-3.28zm-17.51 -30.66c0,55.09 -2.1,51.46 53.64,51.46 11.02,0 19.71,-10.29 19.71,-17.52l0 -39.41c0,-8.04 -8.16,-16.42 -18.61,-16.42l-36.13 0c-11.39,0 -18.61,9.81 -18.61,21.89z"/>
   <path class="fil1" d="M222.83 187.25c0,5.7 1.33,10.95 8.76,10.95l137.96 0c12.88,0 10.06,-17.51 2.19,-17.51l-142.34 0c-2.63,0 -6.57,3.93 -6.57,6.56z"/>
   <path class="fil1" d="M222.83 233.24c0,6.97 1.53,10.95 10.95,10.95l68.98 0c12.83,0 13.16,-17.52 1.09,-17.52l-74.45 0c-2.63,0 -6.57,3.93 -6.57,6.57z"/>
   <path class="fil1" d="M222.83 309.88c0,5.33 1.43,8.76 7.67,8.76l47.08 0c10.46,0 11.98,-17.52 -4.38,-17.52l-38.32 0c-6.52,0 -12.05,2.11 -12.05,8.76z"/>
   <path class="fil1" d="M222.83 475.2c0,13.8 7.33,10.95 30.66,10.95 11.75,0 11.75,-17.52 0,-17.52 -9.73,0 -30.66,-2.61 -30.66,6.57z"/>
   <path class="fil1" d="M222.83 355.86c0,11.53 8.06,8.76 27.37,8.76 11.77,0 12.73,-17.52 -3.28,-17.52 -9.96,0 -24.09,-2.3 -24.09,8.76z"/>
   <path class="fil1" d="M222.83 429.22c0,12.3 5.34,10.95 19.71,10.95 13.02,0 13.02,-17.52 0,-17.52 -5.23,0 -19.71,-1.51 -19.71,6.57z"/>
  </g>
 </g>
</svg>
