<?xml version="1.0" encoding="UTF-8"?>
<!DOCTYPE svg PUBLIC "-//W3C//DTD SVG 1.1//EN" "http://www.w3.org/Graphics/SVG/1.1/DTD/svg11.dtd">
<!-- Creator: CorelDRAW -->
<svg xmlns="http://www.w3.org/2000/svg" xml:space="preserve" width="591px" height="591px" version="1.1" style="shape-rendering:geometricPrecision; text-rendering:geometricPrecision; image-rendering:optimizeQuality; fill-rule:evenodd; clip-rule:evenodd"
viewBox="0 0 591 591"
 xmlns:xlink="http://www.w3.org/1999/xlink"
 xmlns:xodm="http://www.corel.com/coreldraw/odm/2003">
 <defs>
  <style type="text/css">
   <![CDATA[
    .fil0 {fill:none}
    .fil1 {fill:white}
   ]]>
  </style>
 </defs>
 <g id="Layer_x0020_1">
  <metadata id="CorelCorpID_0Corel-Layer"/>
  <rect class="fil0" x="-0.72" y="0.72" width="591" height="591"/>
  <g id="_2311512022944">
   <path class="fil1" d="M95.98 536.75l397.59 0 0 25.26 -397.59 0 0 -25.26zm157.06 -98.84l83.47 0 0 83.47 -83.47 0 0 -83.47zm-26.36 -34.05l136.19 0 0 18.67 -136.19 0 0 -18.67zm-16.48 -5.49c0,45.06 -4.37,39.54 27.46,39.54l0 83.47 -99.94 0 0 -421.75c0,-5.32 3.47,-8.79 8.78,-8.79l296.55 0c5.31,0 8.78,3.47 8.78,8.79l0 421.75 -99.94 0 0 -83.47c31.83,0 27.45,5.52 27.45,-39.54 0,-7.85 -3.12,-10.99 -10.98,-10.99l-147.17 0c-7.85,0 -10.99,3.14 -10.99,10.99zm-36.24 -367.94l113.13 0 0 43.94 -113.13 0 0 -43.94zm-15.37 -7.69l0 51.63 -12.09 0c-12.83,0 -25.26,11.43 -25.26,24.16l0 422.85 -35.14 0c-2.65,0 -6.59,3.94 -6.59,6.59l0 42.83c0,2.65 3.94,6.59 6.59,6.59l417.35 0c2.65,0 6.59,-3.94 6.59,-6.59l0 -42.83c0,-2.65 -3.94,-6.59 -6.59,-6.59l-35.14 0 0 -420.66c0,-7.77 -3.03,-14.13 -6.88,-18.38 -3.33,-3.68 -11.73,-7.97 -18.38,-7.97l-140.59 0 0 -51.63c0,-5.12 -2.56,-7.68 -7.68,-7.68l-128.51 0c-5.12,0 -7.68,2.56 -7.68,7.68z"/>
   <path class="fil1" d="M181.65 225.93l72.49 0 0 26.36 -72.49 0 0 -26.36zm-16.47 -7.69l0 41.74c0,6.67 5.54,8.79 12.08,8.79l81.27 0c6.86,0 12.08,-3.15 12.08,-9.89l0 -39.54c0,-5.98 -3.9,-9.88 -9.88,-9.88l-84.57 0c-6.55,0 -10.98,2.24 -10.98,8.78z"/>
   <path class="fil1" d="M335.41 225.93l72.49 0 0 26.36 -72.49 0 0 -26.36zm-16.47 -6.59l0 39.54c0,6.74 5.23,9.89 12.08,9.89l81.27 0c6.54,0 12.09,-2.12 12.09,-8.79l0 -41.74c0,-6.54 -4.44,-8.78 -10.99,-8.78l-84.57 0c-5.98,0 -9.88,3.9 -9.88,9.88z"/>
   <path class="fil1" d="M335.41 317.09l72.49 0 0 26.36 -72.49 0 0 -26.36zm-16.47 -6.59l0 38.44c0,7.86 3.13,10.98 10.98,10.98l85.67 0c5.31,0 8.79,-3.47 8.79,-8.78l0 -41.73c0,-5.13 -2.57,-7.69 -7.69,-7.69l-91.16 0c-3.56,0 -6.59,4.77 -6.59,8.78z"/>
   <path class="fil1" d="M181.65 134.77l72.49 0 0 26.36 -72.49 0 0 -26.36zm-16.47 -7.69l0 42.84c0,2.64 3.94,6.59 6.59,6.59l92.25 0c3.56,0 6.59,-4.77 6.59,-8.79l0 -38.44c0,-6.55 -2.24,-10.98 -8.78,-10.98l-87.87 0c-5.31,0 -8.78,3.47 -8.78,8.78z"/>
   <path class="fil1" d="M335.41 134.77l72.49 0 0 26.36 -72.49 0 0 -26.36zm-16.47 -5.49l0 38.44c0,4.02 3.03,8.79 6.59,8.79l92.26 0c2.64,0 6.59,-3.95 6.59,-6.59l0 -42.84c0,-5.31 -3.48,-8.78 -8.79,-8.78l-87.87 0c-6.54,0 -8.78,4.43 -8.78,10.98z"/>
   <path class="fil1" d="M181.65 317.09l72.49 0 0 26.36 -72.49 0 0 -26.36zm-16.47 -8.78l0 42.83c0,5.31 3.47,8.78 8.78,8.78l85.67 0c7.85,0 10.98,-3.12 10.98,-10.98l0 -38.44c0,-4.01 -3.03,-8.78 -6.59,-8.78l-91.16 0c-5.41,0 -7.68,4.5 -7.68,6.59z"/>
  </g>
 </g>
</svg>
