<svg width="115" height="102" viewBox="0 0 115 102" fill="none" xmlns="http://www.w3.org/2000/svg">
<circle cx="66.5" cy="48.5" r="48.5" fill="#0F6A36" fill-opacity="0.65"/>
<path fill-rule="evenodd" clip-rule="evenodd" d="M2.48043 95.5353H62.3324V99.3379H2.48043V95.5353ZM26.1234 80.655H38.6891V93.2207H26.1234V80.655ZM22.1552 75.5294H42.6572V78.3401H22.1552V75.5294ZM19.6752 74.7026C19.6752 81.4861 19.0166 80.655 23.8089 80.655V93.2207H8.76309V29.7309C8.76309 28.9309 9.28614 28.4083 10.0857 28.4083H54.7268C55.5267 28.4083 56.0498 28.9309 56.0498 29.7309V93.2207H41.004V80.655C45.7959 80.655 45.1373 81.4861 45.1373 74.7026C45.1373 73.5206 44.6661 73.0494 43.4841 73.0494H21.3288C20.1468 73.0494 19.6752 73.5206 19.6752 74.7026ZM14.2193 19.3145H31.249V25.9282H14.2193V19.3145ZM11.9044 18.1571V25.9282H10.0857C8.15364 25.9282 6.28305 27.6502 6.28305 29.5653V93.2207H0.992325C0.59409 93.2207 0 93.8145 0 94.2127V100.661C0 101.059 0.59409 101.653 0.992325 101.653H63.8205C64.2188 101.653 64.8125 101.059 64.8125 100.661V94.2127C64.8125 93.8145 64.2188 93.2207 63.8205 93.2207H58.5298V29.896C58.5298 28.7251 58.0736 27.7689 57.4945 27.1287C56.9933 26.5738 55.7276 25.9282 54.7268 25.9282H33.5639V18.1571C33.5639 17.3852 33.1783 17 32.4064 17H13.0619C12.29 17 11.9044 17.3852 11.9044 18.1571Z" fill="white"/>
<path fill-rule="evenodd" clip-rule="evenodd" d="M15.3765 48.7447H26.289V52.7128H15.3765V48.7447ZM12.8965 47.5872V53.8703C12.8965 54.8745 13.731 55.1929 14.7152 55.1929H26.9503C27.9822 55.1929 28.7691 54.7198 28.7691 53.7048V47.7527C28.7691 46.8522 28.1811 46.2646 27.2809 46.2646H14.5501C13.5639 46.2646 12.8965 46.6018 12.8965 47.5872Z" fill="white"/>
<path fill-rule="evenodd" clip-rule="evenodd" d="M38.524 48.7447H49.4361V52.7128H38.524V48.7447ZM36.0439 47.7527V53.7048C36.0439 54.7198 36.8308 55.1929 37.8627 55.1929H50.0974C51.0816 55.1929 51.9161 54.8745 51.9161 53.8703V47.5872C51.9161 46.6018 51.2491 46.2646 50.2629 46.2646H37.532C36.6315 46.2646 36.0439 46.8522 36.0439 47.7527Z" fill="white"/>
<path fill-rule="evenodd" clip-rule="evenodd" d="M38.524 62.468H49.4361V66.4357H38.524V62.468ZM36.0439 61.4757V67.2626C36.0439 68.4446 36.5151 68.9158 37.6972 68.9158H50.5935C51.3935 68.9158 51.9161 68.3931 51.9161 67.5932V61.3105C51.9161 60.5386 51.5306 60.1531 50.7591 60.1531H37.0359C36.5002 60.1531 36.0439 60.8716 36.0439 61.4757Z" fill="white"/>
<path fill-rule="evenodd" clip-rule="evenodd" d="M15.3765 35.0215H26.289V38.9897H15.3765V35.0215ZM12.8965 33.8641V40.3123C12.8965 40.7105 13.4906 41.3046 13.8888 41.3046H27.7771C28.3128 41.3046 28.7691 40.5861 28.7691 39.9816V34.1947C28.7691 33.2089 28.4319 32.5415 27.4465 32.5415H14.2195C13.4195 32.5415 12.8965 33.0645 12.8965 33.8641Z" fill="white"/>
<path fill-rule="evenodd" clip-rule="evenodd" d="M38.524 35.0215H49.4361V38.9897H38.524V35.0215ZM36.0439 34.1947V39.9816C36.0439 40.5861 36.5002 41.3046 37.0359 41.3046H50.9242C51.3224 41.3046 51.9161 40.7105 51.9161 40.3123V33.8641C51.9161 33.0645 51.3935 32.5415 50.5935 32.5415H37.3665C36.3811 32.5415 36.0439 33.2089 36.0439 34.1947Z" fill="white"/>
<path fill-rule="evenodd" clip-rule="evenodd" d="M15.3765 62.468H26.289V66.4357H15.3765V62.468ZM12.8965 61.145V67.5932C12.8965 68.3931 13.4195 68.9158 14.2195 68.9158H27.1158C28.2975 68.9158 28.7691 68.4446 28.7691 67.2626V61.4757C28.7691 60.8716 28.3128 60.1531 27.7771 60.1531H14.0539C13.2394 60.1531 12.8965 60.8316 12.8965 61.145Z" fill="white"/>
</svg>
