<?xml version="1.0" encoding="UTF-8"?>
<!DOCTYPE svg PUBLIC "-//W3C//DTD SVG 1.1//EN" "http://www.w3.org/Graphics/SVG/1.1/DTD/svg11.dtd">
<!-- Creator: CorelDRAW -->
<svg xmlns="http://www.w3.org/2000/svg" xml:space="preserve" width="591px" height="591px" version="1.1" style="shape-rendering:geometricPrecision; text-rendering:geometricPrecision; image-rendering:optimizeQuality; fill-rule:evenodd; clip-rule:evenodd"
viewBox="0 0 591 591"
 xmlns:xlink="http://www.w3.org/1999/xlink"
 xmlns:xodm="http://www.corel.com/coreldraw/odm/2003">
 <defs>
  <style type="text/css">
   <![CDATA[
    .fil0 {fill:none}
    .fil2 {fill:white}
    .fil1 {fill:#0F6A36;fill-rule:nonzero;fill-opacity:0.650980}
   ]]>
  </style>
 </defs>
 <g id="Layer_x0020_1">
  <metadata id="CorelCorpID_0Corel-Layer"/>
  <rect class="fil0" x="-0.72" y="0.72" width="591" height="591"/>
  <g id="_1843277283856">
   <path class="fil1" d="M585.14 284.48c0,-135.27 -109.65,-244.92 -244.92,-244.92 -135.26,0 -244.91,109.65 -244.91,244.92 0,135.26 109.65,244.91 244.91,244.91 135.27,0 244.92,-109.65 244.92,-244.91z"/>
   <path class="fil2" d="M16.94 521.99l302.24 0 0 19.21 -302.24 0 0 -19.21zm119.39 -75.14l63.45 0 0 63.46 -63.45 0 0 -63.46zm-20.04 -25.88l103.53 0 0 14.19 -103.53 0 0 -14.19zm-12.52 -4.18c0,34.26 -3.33,30.06 20.87,30.06l0 63.46 -75.98 0 0 -320.61c0,-4.04 2.64,-6.68 6.68,-6.68l225.43 0c4.04,0 6.68,2.64 6.68,6.68l0 320.61 -75.98 0 0 -63.46c24.2,0 20.87,4.2 20.87,-30.06 0,-5.96 -2.37,-8.34 -8.34,-8.34l-111.88 0c-5.97,0 -8.35,2.38 -8.35,8.34zm-27.55 -279.69l85.99 0 0 33.39 -85.99 0 0 -33.39zm-11.69 -5.85l0 39.24 -9.19 0c-9.75,0 -19.2,8.7 -19.2,18.37l0 321.45 -26.72 0c-2.01,0 -5.01,3 -5.01,5.01l0 32.56c0,2.01 3,5.01 5.01,5.01l317.27 0c2.01,0 5.01,-3 5.01,-5.01l0 -32.56c0,-2.01 -3,-5.01 -5.01,-5.01l-26.71 0 0 -319.78c0,-5.91 -2.31,-10.74 -5.23,-13.97 -2.53,-2.81 -8.92,-6.07 -13.98,-6.07l-106.87 0 0 -39.24c0,-3.9 -1.95,-5.84 -5.84,-5.84l-97.69 0c-3.9,0 -5.84,1.94 -5.84,5.84z"/>
   <path class="fil2" d="M82.06 285.71l55.11 0 0 20.04 -55.11 0 0 -20.04zm-12.52 -5.84l0 31.73c0,5.07 4.21,6.67 9.18,6.67l61.79 0c5.21,0 9.18,-2.38 9.18,-7.51l0 -30.06c0,-4.54 -2.97,-7.51 -7.52,-7.51l-64.28 0c-4.98,0 -8.35,1.7 -8.35,6.68z"/>
   <path class="fil2" d="M198.95 285.71l55.1 0 0 20.04 -55.1 0 0 -20.04zm-12.52 -5.01l0 30.06c0,5.13 3.97,7.51 9.18,7.51l61.78 0c4.97,0 9.19,-1.6 9.19,-6.67l0 -31.73c0,-4.98 -3.37,-6.68 -8.35,-6.68l-64.29 0c-4.55,0 -7.51,2.97 -7.51,7.51z"/>
   <path class="fil2" d="M198.95 355.01l55.1 0 0 20.04 -55.1 0 0 -20.04zm-12.52 -5.01l0 29.22c0,5.97 2.37,8.35 8.34,8.35l65.13 0c4.04,0 6.68,-2.64 6.68,-6.68l0 -31.72c0,-3.9 -1.95,-5.85 -5.84,-5.85l-69.31 0c-2.7,0 -5,3.63 -5,6.68z"/>
   <path class="fil2" d="M82.06 216.41l55.11 0 0 20.04 -55.11 0 0 -20.04zm-12.52 -5.84l0 32.56c0,2.01 3,5.01 5.01,5.01l70.13 0c2.71,0 5.01,-3.63 5.01,-6.68l0 -29.22c0,-4.98 -1.7,-8.35 -6.68,-8.35l-66.79 0c-4.04,0 -6.68,2.64 -6.68,6.68z"/>
   <path class="fil2" d="M198.95 216.41l55.1 0 0 20.04 -55.1 0 0 -20.04zm-12.52 -4.17l0 29.22c0,3.05 2.3,6.68 5,6.68l70.14 0c2.01,0 5.01,-3 5.01,-5.01l0 -32.56c0,-4.04 -2.64,-6.68 -6.68,-6.68l-66.8 0c-4.97,0 -6.67,3.37 -6.67,8.35z"/>
   <path class="fil2" d="M82.06 355.01l55.11 0 0 20.04 -55.11 0 0 -20.04zm-12.52 -6.68l0 32.56c0,4.04 2.64,6.68 6.68,6.68l65.12 0c5.97,0 8.35,-2.38 8.35,-8.35l0 -29.22c0,-3.05 -2.3,-6.68 -5.01,-6.68l-69.3 0c-4.11,0 -5.84,3.43 -5.84,5.01z"/>
  </g>
 </g>
</svg>
