<?xml version="1.0" encoding="UTF-8"?>
<!DOCTYPE svg PUBLIC "-//W3C//DTD SVG 1.1//EN" "http://www.w3.org/Graphics/SVG/1.1/DTD/svg11.dtd">
<!-- Creator: CorelDRAW -->
<svg xmlns="http://www.w3.org/2000/svg" xml:space="preserve" width="591px" height="591px" version="1.1" style="shape-rendering:geometricPrecision; text-rendering:geometricPrecision; image-rendering:optimizeQuality; fill-rule:evenodd; clip-rule:evenodd"
viewBox="0 0 591 591"
 xmlns:xlink="http://www.w3.org/1999/xlink"
 xmlns:xodm="http://www.corel.com/coreldraw/odm/2003">
 <defs>
  <style type="text/css">
   <![CDATA[
    .fil0 {fill:none}
    .fil2 {fill:white}
    .fil1 {fill:#0F6A36;fill-rule:nonzero;fill-opacity:0.650980}
   ]]>
  </style>
 </defs>
 <g id="Layer_x0020_1">
  <metadata id="CorelCorpID_0Corel-Layer"/>
  <rect class="fil0" x="-0.72" y="0.72" width="591" height="591"/>
  <g id="_1843282472288">
   <path class="fil1" d="M585.74 284.5c0,-137.36 -111.35,-248.71 -248.7,-248.71 -137.36,0 -248.71,111.35 -248.71,248.71 0,137.36 111.35,248.71 248.71,248.71 137.35,0 248.7,-111.35 248.7,-248.71z"/>
   <g>
    <path class="fil2" d="M101.99 398.43c29.15,0 58.31,0 87.47,0 14.76,0 30.26,-1.52 40.14,3.65 8.52,4.47 16.09,14.7 16.09,28.11l0 96.17c0,14.96 -17.46,14.37 -19.47,4.36l-0.13 -86.06c-0.12,-15.56 -5.38,-14.48 -19.68,-14.47 -22.38,0 -45.59,0.61 -67.86,0.03 -18.46,-0.48 -34.43,-14.88 -36.56,-31.79zm-98.18 133.64l0 -11.15c0,-10.29 14.77,-21.77 24.09,-21.77l83.01 0 0 -56.26c0,-4.55 -28.56,-15.08 -28.56,-54.44l0 -94.37c0,-14.1 4.56,-24.48 10.57,-32.8 5.03,-6.96 15.77,-17.21 25.13,-18.01 -18.37,-16.24 -16.96,-32.17 -16.96,-56.25l-15.17 0c-8.43,0 -12.72,-12.49 -5.36,-17.25 4.05,-2.62 11.24,-1.81 16.07,-1.81l0 -13.61c0,-12.74 10.06,-26.31 23.21,-26.31l47.3 0c6.09,0 13.28,4.44 16.31,7.92 7.82,8.99 6.9,20.25 6.9,32 7.64,0 20.53,-1.45 20.53,9.98 0,11.22 -16.1,9.08 -23.21,9.08l0 23.59c0,26.81 -22.88,34.85 -25.88,39.01 8.46,2.3 24.02,26.41 30.52,36.12 3.15,4.7 6.11,7.8 8.75,12.88 18.55,0 37.8,-0.51 56.26,-0.03 17.42,0.45 26.92,10.62 30.32,25.44 16.31,-3.87 34.49,-0.6 48.19,6.35 15.77,7.99 17.04,13.3 22.32,17.24l0 -35.39c-10.73,0 -21.9,-2.12 -30.37,-6.33 -12.91,-6.41 -22.7,-17.56 -28.58,-30.83 -2.6,-5.86 -5.32,-16.06 -5.32,-24.54 0,-13.6 2.83,-21.77 18.75,-21.77 10.19,0 20.75,1.91 28.55,5.45 7.51,3.4 11.07,7.77 16.97,11.79l0 -11.8c-6.16,-3.31 -10.7,-10.05 -14.47,-16.14 -6.13,-9.9 -6.95,-21.56 -6.95,-33.77 0,-17.75 19.5,-43.55 29.45,-43.55 16.57,0 42.23,36.23 27.31,72.23 -6,14.48 -16.51,17.48 -16.67,25.69l0.07 41.81 9.93 -8.04c15.05,-11.5 47.36,-17.49 57.73,-9.02 5.67,4.65 4.64,17.31 4.64,25.23 0,26.61 -20.85,50.86 -43.85,59.77 -9.11,3.53 -19.56,4.5 -28.45,3.74l0 117.96c10.19,0.23 20.13,9.1 25.66,14.74l49.09 49.91c2.82,2.86 8.26,6.64 8.26,11.57 0,5.05 -2.31,9.98 -8.04,9.98 -5.93,0 -9.02,-4.19 -12.71,-7.94l-46.86 -47.64c-6.31,-6.41 -12.08,-13.38 -24.32,-13.38 -12.73,0 -18.77,6.83 -25.67,13.83l-37.48 38.12c-4.64,4.71 -13.84,17.01 -20.75,17.01 -4.52,0 -8.93,-3.28 -8.93,-8.17 0,-6.26 4.83,-9.9 8.7,-13.84 10.95,-11.13 51.46,-54.59 60.31,-59.36 5.03,-2.71 9.84,-3.71 14,-5.74l0 -47.18c-10.79,0.91 -21.59,-0.33 -32.49,-4.18 -10,-3.53 -15.86,-8.38 -23.37,-14.35 -6.08,-4.82 -12.9,-14.74 -16.74,-22 -3.44,-6.51 -7.73,-20.65 -7.73,-30.24 -3.16,0.85 -5.02,2.98 -8.26,4.31 -3.07,1.26 -5.54,2.04 -9.59,2.04l-87.47 0 0 22.68 47.3 0c13.97,0 24.96,8.48 33.25,17.92 3.84,4.37 7.04,10.75 9.05,17.12 4.25,13.52 2.33,88.26 2.33,105.6 0,20.56 -9.44,35.39 -30.35,35.39 -14.28,0 -26.77,-13.44 -26.77,-28.13l0 -78.94 -32.13 0 0 58.98c0,24.99 -21.81,48.09 -46.42,48.09 -7.73,0 -24.1,3.08 -24.1,-9.08 0,-8.39 6.71,-9.16 13.38,-9.08 9.08,0.1 13.33,-0.21 19.79,-2.57 9.37,-3.42 18.6,-13.88 18.6,-26.45l0 -59.89 -26.78 -0.91 0 56.26c0,8.14 -2.61,12.62 -10.65,12.76 -15.79,0.27 -82.67,-1.6 -90.47,0.57 -5.47,1.52 -9.13,7.61 -6.61,13.55 2.7,6.37 8.09,6.8 16.71,6.67 4.84,-0.07 6.82,-0.36 9.64,2 5.88,4.94 3.79,16.17 -5.19,16.17 -10.9,0 -22.58,0.93 -30.6,-7.01 -6.71,-6.64 -8.34,-11.15 -8.67,-17.23zm292.75 -179.92l0 -10.89c20.85,0 27,0.97 42.72,13.74 12.87,10.45 18.87,26.32 18.87,46.15 0,3.43 -2.09,2.72 -7.14,2.72 -16.17,0 -28.93,-7.34 -37.72,-15.19 -8.6,-7.68 -16.73,-23.68 -16.73,-36.53zm-141.91 -11.79l0 39.92 -53.56 0 0 -88.01c0,-5.66 1.07,-9.48 2.77,-13.52 9.05,-21.46 38.02,-26.82 54.15,-8.96 2.42,2.67 5.34,6.89 7.34,9.78l21.42 29.94c2.62,3.83 3.78,7.11 9.1,7.99 7.23,1.19 61.74,-1.06 66.96,0.89 11.21,4.22 6.46,20.15 -1.08,20.15l-81.22 0c-4.59,0 -18.14,-22.68 -24.1,-22.68 -5.99,0 -11.19,4.5 -10.37,10.57 0.79,5.91 8.59,10.39 8.59,13.93zm228.49 -6.35l-6.25 0c0,-15.97 1.79,-29.71 14.49,-41.53 16.69,-15.55 39.95,-15.8 39.95,-12.01 0,30.85 -21.74,53.54 -48.19,53.54zm-70.51 -82.57l0 -3.63c5.01,-0.11 3.46,-0.64 8.91,-0.05 3.79,0.4 5.37,0.94 8.75,2.05 10.12,3.33 18.82,12.07 23.42,21.57 3.71,7.68 4.44,12.45 4.44,21.8 -15.28,0 -22.28,-1.35 -33.71,-12.92 -6.33,-6.41 -11.81,-16.33 -11.81,-28.82zm-165.12 -18.15c-5.69,0 -8.39,0.35 -13.94,-2.16 -17.11,-7.74 -13.73,-28.39 -13.73,-44.11l49.98 0c0,13.56 1.88,28.5 -6.02,37.43 -3.61,4.08 -9.12,8.84 -16.29,8.84zm207.07 -43.55c0,-11.65 6.35,-22.7 12.49,-28.13 16,10.89 17.43,44.39 0,56.26 -6.5,-4.43 -12.49,-16.85 -12.49,-28.13zm-239.21 -36.3c0,-4.68 3.72,-7.25 8.04,-7.25l39.27 0c11.6,0 9.82,10.6 9.82,21.77l-57.13 0 0 -14.52z"/>
    <path class="fil2" d="M68.96 342.35c0,12.13 18.75,11.57 18.75,0 0,-11.56 -18.75,-12.13 -18.75,0z"/>
   </g>
  </g>
 </g>
</svg>
