<?xml version="1.0" encoding="UTF-8"?>
<!DOCTYPE svg PUBLIC "-//W3C//DTD SVG 1.1//EN" "http://www.w3.org/Graphics/SVG/1.1/DTD/svg11.dtd">
<!-- Creator: CorelDRAW -->
<svg xmlns="http://www.w3.org/2000/svg" xml:space="preserve" width="591px" height="591px" version="1.1" style="shape-rendering:geometricPrecision; text-rendering:geometricPrecision; image-rendering:optimizeQuality; fill-rule:evenodd; clip-rule:evenodd"
viewBox="0 0 591 591"
 xmlns:xlink="http://www.w3.org/1999/xlink"
 xmlns:xodm="http://www.corel.com/coreldraw/odm/2003">
 <defs>
  <style type="text/css">
   <![CDATA[
    .fil0 {fill:none}
    .fil1 {fill:white}
   ]]>
  </style>
 </defs>
 <g id="Layer_x0020_1">
  <metadata id="CorelCorpID_0Corel-Layer"/>
  <rect class="fil0" x="-0.72" y="0.72" width="591" height="591"/>
  <path class="fil1" d="M137.77 369.8c35.25,0 70.5,0 105.75,0 17.84,0 36.59,-1.99 48.53,4.79 10.3,5.87 19.45,19.28 19.45,36.88l0 126.18c0,19.63 -21.11,18.85 -23.53,5.72l-0.16 -112.91c-0.15,-20.42 -6.51,-19 -23.79,-18.99 -27.06,0 -55.12,0.8 -82.05,0.04 -22.31,-0.63 -41.62,-19.53 -44.2,-41.71zm-118.7 175.33l0 -14.62c0,-13.51 17.86,-28.57 29.13,-28.57l100.36 0 0 -73.81c0,-5.96 -34.53,-19.78 -34.53,-71.42l0 -123.81c0,-18.51 5.52,-32.12 12.78,-43.04 6.07,-9.13 19.06,-22.58 30.38,-23.62 -22.22,-21.31 -20.5,-42.22 -20.5,-73.81l-18.35 0c-10.19,0 -15.37,-16.38 -6.48,-22.62 4.9,-3.45 13.6,-2.38 19.43,-2.38l0 -17.85c0,-16.72 12.16,-34.52 28.06,-34.52l57.19 0c7.36,0 16.06,5.82 19.72,10.39 9.45,11.8 8.34,26.56 8.34,41.98 9.23,0 24.82,-1.9 24.82,13.1 0,14.71 -19.46,11.9 -28.06,11.9l0 30.95c0,35.18 -27.66,45.72 -31.29,51.19 10.23,3.02 29.04,34.64 36.9,47.38 3.81,6.18 7.38,10.24 10.58,16.91 22.43,0 45.7,-0.68 68.02,-0.05 21.05,0.6 32.55,13.94 36.65,33.38 19.72,-5.07 41.7,-0.79 58.27,8.33 19.06,10.49 20.59,17.46 26.98,22.62l0 -46.43c-12.97,0 -26.48,-2.78 -36.72,-8.31 -15.6,-8.41 -27.44,-23.03 -34.55,-40.44 -3.14,-7.69 -6.43,-21.08 -6.43,-32.2 0,-17.84 3.42,-28.57 22.66,-28.57 12.33,0 25.09,2.51 34.52,7.16 9.08,4.46 13.39,10.2 20.52,15.46l0 -15.48c-7.44,-4.34 -12.93,-13.18 -17.5,-21.18 -7.4,-12.98 -8.4,-28.27 -8.4,-44.29 0,-23.29 23.58,-57.14 35.61,-57.14 20.04,0 51.06,47.53 33.02,94.76 -7.26,19 -19.97,22.93 -20.16,33.71l0.09 54.86 12.01 -10.56c18.18,-15.09 57.25,-22.94 69.78,-11.82 6.86,6.09 5.61,22.69 5.61,33.09 0,34.91 -25.2,66.72 -53.01,78.42 -11.01,4.63 -23.65,5.9 -34.39,4.91l0 154.75c12.32,0.31 24.33,11.95 31.02,19.35l59.35 65.47c3.4,3.76 9.98,8.72 9.98,15.18 0,6.63 -2.79,13.1 -9.71,13.1 -7.17,0 -10.92,-5.5 -15.38,-10.42l-56.65 -62.5c-7.62,-8.41 -14.59,-17.56 -29.4,-17.56 -15.39,0 -22.69,8.96 -31.03,18.16l-45.32 50c-5.61,6.18 -16.73,22.32 -25.09,22.32 -5.45,0 -10.79,-4.3 -10.79,-10.72 0,-8.21 5.84,-12.98 10.52,-18.15 13.24,-14.6 62.22,-71.63 72.92,-77.89 6.08,-3.55 11.89,-4.87 16.92,-7.53l0 -61.9c-13.04,1.2 -26.1,-0.44 -39.28,-5.48 -12.09,-4.63 -19.17,-11 -28.26,-18.82 -7.35,-6.34 -15.6,-19.35 -20.23,-28.87 -4.16,-8.55 -9.35,-27.1 -9.35,-39.68 -3.82,1.12 -6.06,3.91 -9.98,5.66 -3.71,1.65 -6.71,2.67 -11.6,2.67l-105.75 0 0 29.76 57.19 0c16.88,0 30.17,11.12 40.19,23.51 4.65,5.74 8.52,14.1 10.94,22.46 5.15,17.74 2.82,115.8 2.82,138.55 0,26.98 -11.41,46.43 -36.69,46.43 -17.26,0 -32.37,-17.63 -32.37,-36.91l0 -103.57 -38.85 0 0 77.38c0,32.79 -26.36,63.1 -56.11,63.1 -9.35,0 -29.13,4.04 -29.13,-11.91 0,-11.01 8.11,-12.02 16.16,-11.92 10.99,0.13 16.12,-0.28 23.93,-3.37 11.33,-4.48 22.49,-18.21 22.49,-34.7l0 -78.58 -32.37 -1.19 0 73.81c0,10.69 -3.16,16.56 -12.88,16.74 -19.1,0.36 -99.95,-2.09 -109.39,0.76 -6.6,1.99 -11.02,9.97 -7.98,17.77 3.26,8.36 9.78,8.93 20.2,8.75 5.85,-0.09 8.25,-0.47 11.65,2.63 7.12,6.48 4.58,21.21 -6.27,21.21 -13.17,0 -27.29,1.22 -37,-9.19 -8.11,-8.72 -10.08,-14.63 -10.48,-22.62zm353.94 -236.04l0 -14.29c25.21,0 32.64,1.26 51.65,18.02 15.55,13.71 22.81,34.53 22.81,60.55 0,4.51 -2.52,3.58 -8.64,3.58 -19.54,0 -34.97,-9.63 -45.6,-19.94 -10.39,-10.08 -20.22,-31.06 -20.22,-47.92zm-171.58 -15.48l0 52.38 -64.74 0 0 -115.47c0,-7.43 1.29,-12.44 3.35,-17.73 10.94,-28.16 45.96,-35.19 65.46,-11.76 2.92,3.51 6.46,9.04 8.88,12.84l25.89 39.28c3.17,5.01 4.57,9.33 11.01,10.48 8.73,1.56 74.64,-1.4 80.94,1.17 13.56,5.52 7.82,26.43 -1.29,26.43l-98.2 0c-5.55,0 -21.93,-29.76 -29.14,-29.76 -7.24,0 -13.53,5.9 -12.54,13.86 0.96,7.76 10.38,13.64 10.38,18.28zm276.25 -8.33l-7.55 0c0,-20.94 2.16,-38.98 17.51,-54.49 20.19,-20.39 48.31,-20.72 48.31,-15.74 0,40.46 -26.29,70.23 -58.27,70.23zm-85.25 -108.33l0 -4.76c6.06,-0.15 4.18,-0.84 10.78,-0.07 4.59,0.54 6.49,1.24 10.58,2.7 12.24,4.36 22.75,15.83 28.31,28.29 4.49,10.08 5.37,16.34 5.37,28.6 -18.48,0 -26.93,-1.77 -40.75,-16.95 -7.65,-8.41 -14.29,-21.41 -14.29,-37.81zm-199.63 -23.81c-6.87,0 -10.14,0.46 -16.85,-2.83 -20.68,-10.15 -16.6,-37.25 -16.6,-57.88l60.43 0c0,17.8 2.27,37.39 -7.28,49.11 -4.36,5.36 -11.02,11.6 -19.7,11.6zm250.35 -57.14c0,-15.27 7.68,-29.78 15.11,-36.9 19.33,14.28 21.07,58.24 0,73.81 -7.87,-5.81 -15.11,-22.11 -15.11,-36.91zm-289.2 -47.61c0,-6.15 4.5,-9.53 9.72,-9.53l47.48 0c14.03,0 11.87,13.92 11.87,28.57l-69.07 0 0 -19.04z"/>
  <path class="fil1" d="M97.82 296.23c0,14.66 22.66,13.98 22.66,0 0,-13.99 -22.66,-14.66 -22.66,0z"/>
 </g>
</svg>
