<svg width="106" height="97" viewBox="0 0 106 97" fill="none" xmlns="http://www.w3.org/2000/svg">
<circle cx="57.5" cy="48.5" r="48.5" fill="#0F6A36" fill-opacity="0.65"/>
<path fill-rule="evenodd" clip-rule="evenodd" d="M38.0679 28.9625H18.8699C17.8637 28.9625 16.7368 27.8356 16.7368 26.8294V20.9224C16.7368 19.3908 18.2847 18.6254 20.0184 18.6254H37.4114C41.2684 18.6254 40.5291 22.0465 40.5291 26.009C40.5291 27.6516 39.676 28.9625 38.0679 28.9625ZM14.1114 20.7585V22.5632C8.8741 22.5632 3.48479 21.8267 0.870849 27.0441C0.398371 27.9877 0 29.0923 0 30.4395V88.8539C0 90.201 0.398371 91.3057 0.870849 92.2492C2.50678 95.5145 5.47769 96.7301 9.51706 96.7301H47.7488C55.4421 96.7301 53.2415 93.4482 52.3435 93.4482C50.6655 93.4482 51.4159 93.7982 50.0528 93.9474C49.272 94.0327 48.8417 94.1047 47.9131 94.1047H8.86053C5.33121 94.1047 2.62542 92.0634 2.62542 88.8539V30.4395C2.62542 27.2915 5.26998 25.1886 8.69666 25.1886H14.1114C14.1114 27.2163 14.0073 28.4201 15.4975 30.038C16.1078 30.7001 17.5165 31.588 18.7057 31.588H38.2321C39.7647 31.588 41.1804 30.6844 41.871 29.8122C42.92 28.4873 43.1545 27.2198 43.1545 25.1886C47.3028 25.1886 52.2015 24.3787 54.0341 28.2566C54.9324 30.1577 54.6405 33.6278 54.6405 36.3465C54.6405 39.4444 54.4801 48.7969 54.628 51.6189C54.6593 52.2138 54.5886 52.1164 54.9063 52.4894C55.5788 53.2795 57.2659 53.188 57.2659 51.1144V31.7522C57.2659 30.3702 57.0871 28.7653 56.6616 27.7622C54.0915 21.7004 48.6106 22.5632 43.1545 22.5632C43.1545 18.1686 41.2893 16 36.7552 16H20.3465C18.3821 16 17.2235 16.3257 16.0754 17.1436C15.2073 17.7619 14.1114 19.3133 14.1114 20.7585Z" fill="white"/>
<path fill-rule="evenodd" clip-rule="evenodd" d="M37.7397 87.049V68.3433C37.7397 66.1448 41.2099 66.7025 43.6467 66.7025C44.7399 66.7025 45.6156 67.2671 45.6156 68.3433V87.5413C45.6156 89.426 41.3591 88.854 39.5444 88.854C38.5858 88.854 37.7397 88.0078 37.7397 87.049ZM56.4454 69.1637C56.4454 70.6674 58.0559 70.4785 59.5627 70.4764L71.0623 70.4632C72.3176 70.4559 72.3618 70.6615 72.3618 71.7891C72.3618 73.6251 64.3213 70.9816 64.3213 73.758C64.3213 75.6865 67.3165 75.2593 69.7454 75.2259C70.7735 75.2116 71.2129 75.197 71.2129 76.2195C71.2129 77.6234 69.9294 77.2042 67.1109 77.2038C65.4252 77.2038 63.1728 76.8281 63.1728 78.5165C63.1728 79.8905 64.251 79.8397 65.6329 79.8306C66.945 79.8216 68.2598 79.8292 69.5721 79.8292C70.2659 80.8653 70.2492 80.9516 69.5721 81.9623L61.6962 81.7985C60.5982 81.7985 59.7809 84.4945 62.1791 84.5968C63.059 84.6347 64.0812 84.5892 64.9778 84.5878C67.1687 84.5843 67.6064 84.2652 67.1109 86.3928C63.8721 86.3928 53.542 86.5636 50.69 86.405C49.3286 86.3295 49.3937 85.2238 48.241 84.9158V70.3125C49.4904 70.2847 51.1827 69.3797 51.9707 68.7914C54.2931 67.0567 55.1306 64.7712 55.7502 61.9053C56.1242 60.1755 56.1173 58.9177 56.1173 56.8573C56.4433 56.6388 56.5717 56.5588 56.9377 56.365C59.1132 57.5163 59.5064 63.5357 58.034 66.4861C57.2626 68.0315 56.4454 68.209 56.4454 69.1637ZM48.241 67.6871C47.2581 63.4675 43.3558 64.0771 39.8728 64.0771C37.2199 64.0771 35.1143 65.8685 35.1143 68.1791V87.2132C35.1143 89.283 37.1388 91.4794 39.7086 91.4794H43.8109C45.8351 91.4794 47.9272 89.9955 48.0768 88.1978C48.7483 88.377 49.0454 88.8324 49.9225 88.9775C52.2595 89.364 62.503 89.1821 65.4701 89.1821C69.2771 89.1821 69.9002 87.5169 69.9002 84.4235C70.8316 84.3463 71.4526 83.8756 71.8768 83.2827C72.9971 81.7167 72.7246 80.7317 72.3618 79.173C73.8192 78.1971 74.2113 76.04 73.5103 74.5787C75.1952 73.4501 75.7999 70.1838 73.449 68.4045C72.3917 67.6046 71.1336 67.851 69.4082 67.851C66.3451 67.851 63.282 67.851 60.2193 67.851C62.1381 64.2246 61.8465 60.2322 60.3845 56.5282C58.6957 52.2501 54.6866 53.655 53.7678 55.9847C53.0688 57.7564 54.4097 66.2498 48.241 67.6871Z" fill="white"/>
<path fill-rule="evenodd" clip-rule="evenodd" d="M12.4709 60.1387C12.4709 59.7608 12.5851 59.6463 12.9633 59.6463H18.2138V65.3895H12.4709V60.1387ZM9.84553 60.1387C9.84553 67.7345 9.22414 68.1788 16.7372 68.1788C17.8203 68.1788 18.7478 68.0647 19.468 67.628C20.0936 67.2488 20.8392 66.4538 20.8392 65.5537C20.8392 56.8442 21.7587 57.0213 13.2913 57.0213C11.3367 57.0213 9.84553 58.2223 9.84553 60.1387Z" fill="white"/>
<path fill-rule="evenodd" clip-rule="evenodd" d="M12.4708 83.1106V78.3524C12.4708 77.9742 12.5849 77.8601 12.9631 77.8601H18.2136V83.6029H12.9631C12.5849 83.6029 12.4708 83.4888 12.4708 83.1106ZM9.84536 78.5163C9.84536 86.9036 9.61539 86.2283 17.8855 86.2283C19.4522 86.2283 20.839 85.0221 20.839 83.439V77.6959C20.839 76.4343 19.4271 75.2347 18.0497 75.2347C13.8433 75.2347 9.84536 74.3586 9.84536 78.5163Z" fill="white"/>
<path fill-rule="evenodd" clip-rule="evenodd" d="M12.4707 47.0121V41.7612H18.2135V47.0121C18.2135 47.3903 18.0994 47.5044 17.7215 47.5044H12.963C12.5848 47.5044 12.4707 47.3903 12.4707 47.0121ZM9.84528 42.4178C9.84528 50.6733 9.53146 50.1298 17.8854 50.1298C19.536 50.1298 20.8389 48.5868 20.8389 47.5044V41.5974C20.8389 40.3929 19.616 39.1362 18.0496 39.1362H12.6349C10.9277 39.1362 9.84528 40.6061 9.84528 42.4178Z" fill="white"/>
<path fill-rule="evenodd" clip-rule="evenodd" d="M26.0894 40.777C26.0894 41.6308 26.2887 42.4178 27.4021 42.4178H48.0766C50.008 42.4178 49.5859 39.7924 48.4051 39.7924H27.074C26.6787 39.7924 26.0894 40.3818 26.0894 40.777Z" fill="white"/>
<path fill-rule="evenodd" clip-rule="evenodd" d="M26.0894 47.6685C26.0894 48.7126 26.3183 49.3093 27.7302 49.3093H38.0676C39.9913 49.3093 40.0407 46.6839 38.2318 46.6839H27.074C26.6787 46.6839 26.0894 47.2733 26.0894 47.6685Z" fill="white"/>
<path fill-rule="evenodd" clip-rule="evenodd" d="M26.0894 59.1545C26.0894 59.954 26.3026 60.4672 27.2378 60.4672H34.2937C35.8621 60.4672 36.089 57.8418 33.6372 57.8418H27.8944C26.9174 57.8418 26.0894 58.1577 26.0894 59.1545Z" fill="white"/>
<path fill-rule="evenodd" clip-rule="evenodd" d="M26.0894 83.9314C26.0894 85.9991 27.1874 85.5722 30.6837 85.5722C32.4448 85.5722 32.4448 82.9468 30.6837 82.9468C29.2248 82.9468 26.0894 82.5558 26.0894 83.9314Z" fill="white"/>
<path fill-rule="evenodd" clip-rule="evenodd" d="M26.0894 66.0462C26.0894 67.7736 27.2963 67.3586 30.1914 67.3586C31.955 67.3586 32.0994 64.7335 29.699 64.7335C28.2061 64.7335 26.0894 64.3884 26.0894 66.0462Z" fill="white"/>
<path fill-rule="evenodd" clip-rule="evenodd" d="M26.0894 77.0399C26.0894 78.8831 26.8889 78.6807 29.0429 78.6807C30.994 78.6807 30.994 76.0552 29.0429 76.0552C28.2587 76.0552 26.0894 75.8287 26.0894 77.0399Z" fill="white"/>
</svg>
