<?xml version="1.0" encoding="UTF-8"?>
<!DOCTYPE svg PUBLIC "-//W3C//DTD SVG 1.1//EN" "http://www.w3.org/Graphics/SVG/1.1/DTD/svg11.dtd">
<!-- Creator: CorelDRAW -->
<svg xmlns="http://www.w3.org/2000/svg" xml:space="preserve" width="591px" height="591px" version="1.1" style="shape-rendering:geometricPrecision; text-rendering:geometricPrecision; image-rendering:optimizeQuality; fill-rule:evenodd; clip-rule:evenodd"
viewBox="0 0 591 591"
 xmlns:xlink="http://www.w3.org/1999/xlink"
 xmlns:xodm="http://www.corel.com/coreldraw/odm/2003">
 <defs>
  <style type="text/css">
   <![CDATA[
    .fil0 {fill:none}
    .fil2 {fill:white}
    .fil1 {fill:#0F6A36;fill-rule:nonzero;fill-opacity:0.650980}
   ]]>
  </style>
 </defs>
 <g id="Layer_x0020_1">
  <metadata id="CorelCorpID_0Corel-Layer"/>
  <rect class="fil0" x="-0.72" y="0.72" width="591" height="591"/>
  <g id="_1843271677600">
   <path class="fil1" d="M585.74 284.02c0,-143.01 -115.93,-258.94 -258.93,-258.94 -143.01,0 -258.94,115.93 -258.94,258.94 0,143 115.93,258.93 258.94,258.93 143,0 258.93,-115.93 258.93,-258.93z"/>
   <path class="fil2" d="M281.33 503.05c6.15,-0.14 16.26,-4.87 20.86,-7.33 3.16,-1.69 5.69,-3.54 8.48,-5.63 2.81,-2.09 5.43,-5.59 8.55,-6.43 0.68,2.92 9.65,17.97 11.83,21.66 2.26,3.82 3.96,6.73 6.09,10.64 1.64,3 5.1,7.98 5.87,10.88 -23.93,0 -22.58,-9.91 -33.46,15 -1.4,3.2 -0.82,4.14 -3.54,6.14 -1.06,-4.53 -15.59,-28.09 -18.51,-33.48l-5.66 -10.19c-0.1,-0.21 -0.37,-1 -0.51,-1.26zm-153.35 -386.78l0.98 0c4.28,0.14 7.01,2.26 7.01,7.05 0,5.41 -5.53,6.34 -10.02,7.61 -10.7,3.03 -24.38,11.95 -30.53,20.57 -12.35,17.3 -14.08,24.74 -14.08,53.76 2.21,-1.06 2.8,-0.41 4.43,-1.74 1.26,-1.02 1.34,-2.16 2.46,-3.71 7.28,-10.13 26.28,3.35 65.95,-15.11 10.89,-5.06 21.17,-16.31 30.77,-4.64l16.2 18.15c2.47,4.17 0.33,5.75 5.3,6.16 0,-19.1 0.35,-37.3 -13.89,-53.07 -5.52,-6.12 -10.22,-11.14 -18.11,-15.36 -12.42,-6.64 -20.87,-4.75 -20.87,-12.62 0,-12.88 17.83,-4.1 23.5,-1.48 25.75,11.9 43.65,39.27 43.48,69.31 -0.2,34.29 0.43,17.96 4.53,29.82 3.39,9.82 1.64,21.43 -6.3,28.34 -6.21,5.4 -7.51,5.77 -16.75,7.93 -1,12.01 -13.02,33.95 -21.14,36.12l0 17.62c5.66,1.32 40.04,15.38 47.9,18.17 4.44,1.58 7.94,3.14 12,4.75 3.79,1.5 7.79,2.76 11.45,4.4 10.98,4.9 16.55,9.9 22.99,18.43 1.72,2.28 1.23,2.28 4.8,3.13 2.6,0.62 4.38,0.7 6.6,1.32 17.37,4.85 32.07,16.35 41.9,31.23 3.11,4.72 17.26,29.58 2.13,29.58 -6.67,0 -7.75,-11.96 -10.93,-17.26 -2.07,-3.45 -3.01,-5.51 -5.41,-8.69 -17.14,-22.67 -48.41,-30.25 -74.41,-17.23 -11.64,5.83 -22.28,16.64 -27.57,28.82 -9.7,22.37 -5.17,48.33 11.49,64.81 5.89,5.81 8.33,8.24 16.08,12.12 16.93,8.46 36.66,8.56 53.76,0 32.03,-16.04 28.08,-44.95 36.11,-44.95 8.94,0 9.62,3.75 7.44,11.83 -4.82,17.84 -11.39,17.69 -7.47,24.26 5.17,8.66 31.75,54.09 31.75,56.42 0,7.93 -6.23,10.45 -14.47,9.21 -6.39,-0.97 -15.41,-2.16 -21.65,-2.16 -1.16,4.96 -4.54,11.41 -6.75,16.16 -2.39,5.11 -3.93,12.04 -10.87,12.04 -7.64,0 -9.82,-7.2 -13.26,-13.18l-27.27 -47.62c-3.26,2.39 -24.32,41.28 -28.47,48.18 -2.8,4.66 -5.59,12.62 -12.06,12.62 -8.05,0 -9.03,-5.22 -11.82,-11.97 -1.63,-3.9 -6.38,-12.6 -6.68,-16.23 -21.31,0 -32.64,8.79 -36.12,-6.17 -30.84,0 -61.68,0 -92.51,0 -10.27,0 -59.31,1.56 -66.73,-1.99 -4.52,-2.17 -9.04,-7.39 -9.04,-13.87l0 -130.39c0,-14.15 5.09,-23.37 12.7,-33.11 6.78,-8.68 16.94,-14.12 27.08,-17.86 11.06,-4.08 21.42,-8.63 32.36,-12.57l32.7 -12.23c0,-8.88 1.35,-13.95 -1.91,-17.48 -8.94,-9.66 -14.19,-12.62 -19.13,-29.31 -0.87,-2.92 -0.57,-5.7 -2.59,-7.11 -0.62,-0.44 -16.73,-2.35 -21.82,-16.95 -1.82,-5.23 -2.19,-10.54 -0.88,-16 0.67,-2.81 1.64,-4.61 2.91,-6.79 7.78,-13.42 -6.38,-37.28 16.63,-70.59 10.49,-15.19 33.8,-30.06 46.12,-30.48zm97.85 430.83c-1.01,-4.33 -3.65,-8.69 -5.16,-12.46 -6.17,-15.48 -11.92,-7.8 -30.08,-7.8 0.68,-2.94 15.31,-27.68 17.99,-32.23 1.69,-2.84 5.12,-8.06 5.8,-10.95 3.82,2.03 21.56,19.02 37.88,19.39l-22.28 39.39c-1.77,3.35 -0.77,3.76 -4.15,4.66zm-80.18 -31.72c-3.97,-1.06 -0.84,-0.53 -7.26,-6.82 -2.71,-2.65 -4.81,-5.14 -6.83,-8.15 6.02,-3.19 11.15,-6.27 16.79,-9.65l17.57 -9.74c1.51,12.75 2.73,8.16 -9.48,21.36 -2.02,2.17 -10.24,10.96 -10.79,13zm-22.9 -25.55c0,-3.93 2.41,-18.97 3.36,-21.31 1.47,-3.61 21.92,-14.39 26.87,-17.18 2.06,-1.17 2.49,-1.88 4.48,-2.79 4.18,-1.91 3.13,1.87 3.81,6.28 0.64,4.15 1.17,7.61 2,11.21 -11.8,6.25 -28.03,17.18 -40.52,23.79zm7.05 -41.41c0,-4.92 1.04,-8.86 1.76,-13.21l1.5 -9.07c1.07,-3.35 5.38,-4.66 11.21,-8.17 3.83,-2.3 6.43,-3.68 10.19,-5.67 0,7.81 2.65,13.33 2.65,21.15 -4.86,1.13 -22.51,13.86 -27.31,14.97zm7.04 -42.29c0,-6.37 2.51,-12.41 2.65,-18.5l10.57 0c0.07,3.13 1.13,7.84 1.76,10.57 -3.23,0.76 -11.5,6.09 -14.98,7.93zm-28.19 85.46c0,4.42 0.96,5.79 3.28,8.18l16.98 19.14 -63.43 0 0 -119.83c0,-6.09 -13.22,-8.51 -13.22,0.88l0 118.95 -31.71 0c-2.06,0 -3.53,-1.46 -3.53,-3.53l0 -120.7c0,-40.43 26.13,-43.53 55.63,-55.38 3.42,-1.37 8.84,-3.74 12.21,-4.53 1.13,4.84 9.01,18.9 11.75,24.37 6.76,13.53 11.08,26.24 26.14,16.16 2.45,9.16 5.38,-2.06 1.64,20.15l-6.93 40.64c-1.82,10.98 -8.81,47.01 -8.81,55.5zm24.67 -124.22c4.18,-2.21 7.63,-5.37 11.45,-7.93l10.58 7.05c-0.28,3.32 -1.99,4.75 -3.53,7.04l-14.98 0c-0.71,-2.69 -2.15,-4.12 -3.52,-6.16zm59.91 65.19c0,26.23 13.86,35.94 11.5,41.37 -0.39,0.91 -2.08,3.37 -2.99,5.03l-22.6 39.95 -18.51 0c7.06,-10.54 20.27,-17.98 20.27,-28.2l-4.29 -27.43c-1.53,-9.27 -13.34,-75.73 -13.34,-81.82 0,-0.37 2.89,-3.76 3.53,-6.16 15.71,10.52 19.46,-3.68 25.84,-16.45 4.13,-8.26 7.87,-16.19 12.04,-24.08l41.41 15.86c6.65,2.94 9.66,6.33 12.34,7.05l0 1.76c-29.6,0 -56.77,27.85 -63.23,57.47 -0.82,3.76 -1.97,11.72 -1.97,15.65zm-17.62 -68.72c-3.72,-0.99 -7,-4.3 -10.22,-6.52 -2.5,-1.72 -8.72,-5.77 -10.04,-7.57 0.72,-2.71 12.38,-16.08 14.97,-19.39 2.38,-3.05 3.32,-3.33 5.29,-7.05 4.9,2.36 10.96,3.82 15.86,6.17 -1.52,6.53 -14.67,29.24 -15.86,34.36zm-78.41 -34.36l16.74 -6.17c1.7,3.23 2.46,3.73 4.78,6.67 3.83,4.86 13.24,15.53 15.48,19.77 -1.1,1.49 -17.17,13.27 -20.26,14.09l-16.74 -34.36zm25.55 -26.43c11.74,2.73 9.58,3.53 23.78,3.53 7.65,0 15.29,-1.77 20.27,-4.41 0,15.4 2.03,8 -14.86,29.19 -2.55,3.19 -5.55,5.93 -6.29,8.69l-1.76 0c-0.74,-2.77 -3.13,-4.79 -5.89,-8.2 -3.49,-4.33 -14.73,-15.94 -15.27,-20.85 -0.22,-1.97 0.02,-5.77 0.02,-7.95zm-23.79 -59.91l0 -33.48c30.14,0 54.67,-6.72 74.89,-20.26 2.54,1.7 14.98,13.77 14.98,16.73l0 45.82c0,11.57 -8.33,24.87 -14.97,29.97 -10.44,8.01 -19.13,12.06 -33.55,10.66 -27.09,-2.61 -41.35,-22.35 -41.35,-49.44zm103.96 0l0 -25.55c2.67,1.41 3.74,1.48 5.99,3.7 4.43,4.38 3.7,6.22 3.7,11.28 0,5.86 -5.75,8.48 -9.69,10.57zm-127.75 -12.33c0,-6.71 4.74,-10.98 10.57,-12.34l0 24.67c-2.13,-1.02 -10.57,-3.37 -10.57,-12.33z"/>
   <path class="fil2" d="M247.86 426.4c19.13,0 12.44,-8.14 19.38,-13.22 3.51,15.07 13.96,11.92 18.5,14.1 -2.3,3.44 -6.02,5.29 -7.66,9.14 -1.82,4.26 0.5,8.59 0.61,13.76 -15.02,-10.05 -15.07,-2.91 -23.78,-0.88 0.33,-15.1 4.3,-8.93 -5.12,-19.56 -2.47,-2.78 -0.83,-1.25 -1.93,-3.34zm-19.39 -3.53c0,6.07 2.32,7.22 5.51,10.36 13.45,13.24 5.95,6.02 5.95,25.76 0,6.76 5.58,7.93 10.57,7.93 5.23,0 12.08,-7.06 16.03,-7.36 4.91,-0.36 8.14,7.36 19.21,7.36 13.28,0 6.27,-23.5 5.29,-25.55 3.61,-2.42 14.09,-12.26 14.09,-16.74 0,-4.95 -3.14,-8.49 -6.99,-9.75 -11.62,-3.81 -14.22,2.24 -18.59,-6.96l-4.33 -8.88c-3.56,-6.51 -12.74,-8.47 -18.26,2.09 -8.59,16.42 -2.51,9.63 -20.08,13.4 -4.02,0.86 -8.4,4.24 -8.4,8.34z"/>
  </g>
 </g>
</svg>
