<?xml version="1.0" encoding="UTF-8"?>
<!DOCTYPE svg PUBLIC "-//W3C//DTD SVG 1.1//EN" "http://www.w3.org/Graphics/SVG/1.1/DTD/svg11.dtd">
<!-- Creator: CorelDRAW -->
<svg xmlns="http://www.w3.org/2000/svg" xml:space="preserve" width="591px" height="591px" version="1.1" style="shape-rendering:geometricPrecision; text-rendering:geometricPrecision; image-rendering:optimizeQuality; fill-rule:evenodd; clip-rule:evenodd"
viewBox="0 0 591 591"
 xmlns:xlink="http://www.w3.org/1999/xlink"
 xmlns:xodm="http://www.corel.com/coreldraw/odm/2003">
 <defs>
  <style type="text/css">
   <![CDATA[
    .fil0 {fill:none}
    .fil1 {fill:white}
   ]]>
  </style>
 </defs>
 <g id="Layer_x0020_1">
  <metadata id="CorelCorpID_0Corel-Layer"/>
  <rect class="fil0" x="-0.72" y="0.72" width="591" height="591"/>
  <g id="_2311512265728">
   <path class="fil1" d="M417.78 497.22c7.66,-0.17 20.26,-6.08 26.01,-9.15 3.94,-2.1 7.09,-4.41 10.57,-7 3.49,-2.61 6.77,-6.98 10.66,-8.02 0.84,3.63 12.02,22.4 14.74,26.99 2.82,4.77 4.94,8.4 7.6,13.27 2.04,3.74 6.35,9.95 7.31,13.56 -29.83,0 -28.15,-12.35 -41.71,18.7 -1.75,4 -1.02,5.17 -4.42,7.66 -1.32,-5.65 -19.43,-35.02 -23.07,-41.74l-7.06 -12.7c-0.12,-0.27 -0.45,-1.25 -0.63,-1.57zm-191.17 -482.16l1.23 0c5.33,0.17 8.73,2.81 8.73,8.78 0,6.75 -6.89,7.91 -12.49,9.49 -13.33,3.78 -30.39,14.9 -38.06,25.64 -15.39,21.57 -17.55,30.85 -17.55,67.01 2.75,-1.32 3.49,-0.5 5.53,-2.15 1.56,-1.28 1.67,-2.7 3.06,-4.63 9.07,-12.63 32.76,4.17 82.21,-18.84 13.57,-6.31 26.4,-20.34 38.36,-5.78l20.2 22.63c3.07,5.2 0.41,7.16 6.6,7.68 0,-23.82 0.44,-46.5 -17.31,-66.17 -6.88,-7.63 -12.75,-13.89 -22.58,-19.15 -15.48,-8.27 -26.01,-5.92 -26.01,-15.73 0,-16.05 22.22,-5.11 29.3,-1.84 32.09,14.83 54.4,48.96 54.19,86.4 -0.25,42.74 0.54,22.38 5.65,37.18 4.23,12.24 2.04,26.7 -7.86,35.33 -7.73,6.73 -9.35,7.19 -20.87,9.88 -1.25,14.97 -16.24,42.33 -26.36,45.03l0 21.96c7.06,1.65 49.92,19.17 59.72,22.66 5.53,1.96 9.9,3.9 14.95,5.91 4.72,1.87 9.71,3.45 14.28,5.49 13.68,6.11 20.63,12.34 28.66,22.97 2.14,2.84 1.53,2.84 5.98,3.9 3.24,0.78 5.47,0.88 8.23,1.65 21.66,6.04 39.97,20.38 52.23,38.94 3.88,5.88 21.52,36.87 2.66,36.87 -8.31,0 -9.66,-14.91 -13.63,-21.52 -2.58,-4.3 -3.75,-6.87 -6.74,-10.83 -21.37,-28.26 -60.35,-37.71 -92.76,-21.48 -14.51,7.26 -27.78,20.74 -34.37,35.93 -12.09,27.88 -6.45,60.25 14.33,80.79 7.34,7.25 10.38,10.28 20.04,15.1 21.1,10.56 45.7,10.67 67.01,0 39.93,-19.99 35.01,-56.02 45.02,-56.02 11.14,0 11.99,4.66 9.27,14.74 -6.01,22.24 -14.19,22.06 -9.31,30.24 6.45,10.8 39.58,67.43 39.58,70.34 0,9.88 -7.77,13.03 -18.03,11.48 -7.98,-1.21 -19.22,-2.69 -27,-2.69 -1.44,6.18 -5.66,14.22 -8.42,20.13 -2.97,6.38 -4.89,15.01 -13.54,15.01 -9.53,0 -12.25,-8.97 -16.53,-16.42l-34 -59.36c-4.06,2.98 -30.32,51.45 -35.49,60.06 -3.49,5.81 -6.97,15.72 -15.03,15.72 -10.04,0 -11.25,-6.5 -14.74,-14.91 -2.02,-4.87 -7.95,-15.71 -8.33,-20.23 -26.56,0 -40.68,10.95 -45.02,-7.69 -38.45,0 -76.89,0 -115.33,0 -12.79,0 -73.93,1.94 -83.18,-2.49 -5.63,-2.71 -11.27,-9.21 -11.27,-17.28l0 -162.55c0,-17.65 6.34,-29.13 15.83,-41.28 8.46,-10.82 21.12,-17.6 33.75,-22.26 13.8,-5.09 26.71,-10.76 40.35,-15.67l40.77 -15.25c0,-11.07 1.68,-17.39 -2.38,-21.78 -11.15,-12.05 -17.7,-15.74 -23.86,-36.55 -1.08,-3.64 -0.7,-7.11 -3.22,-8.87 -0.78,-0.54 -20.86,-2.92 -27.2,-21.12 -2.27,-6.52 -2.73,-13.14 -1.1,-19.95 0.83,-3.5 2.04,-5.74 3.63,-8.47 9.7,-16.73 -7.95,-46.46 20.73,-87.99 13.08,-18.94 42.13,-37.47 57.49,-37.99zm121.98 537.07c-1.26,-5.39 -4.55,-10.83 -6.43,-15.53 -7.69,-19.3 -14.86,-9.73 -37.5,-9.73 0.86,-3.67 19.08,-34.51 22.43,-40.17 2.1,-3.54 6.39,-10.05 7.22,-13.65 4.77,2.52 26.89,23.71 47.23,24.17l-27.77 49.1c-2.22,4.17 -0.96,4.69 -5.18,5.81zm-99.95 -39.54c-4.95,-1.32 -1.05,-0.66 -9.06,-8.51 -3.37,-3.3 -5.99,-6.4 -8.51,-10.16 7.51,-3.98 13.91,-7.81 20.93,-12.02l21.91 -12.14c1.88,15.89 3.4,10.17 -11.82,26.62 -2.51,2.71 -12.76,13.66 -13.45,16.21zm-28.55 -31.85c0,-4.9 3,-23.65 4.19,-26.56 1.83,-4.5 27.33,-17.95 33.49,-21.43 2.58,-1.45 3.11,-2.34 5.59,-3.47 5.21,-2.38 3.91,2.33 4.75,7.83 0.8,5.17 1.46,9.49 2.5,13.98 -14.71,7.78 -34.95,21.41 -50.52,29.65zm8.79 -51.62c0,-6.14 1.29,-11.05 2.19,-16.47l1.87 -11.31c1.34,-4.17 6.71,-5.8 13.98,-10.18 4.77,-2.87 8.01,-4.59 12.71,-7.07 0,9.74 3.29,16.61 3.29,26.36 -6.05,1.41 -28.06,17.28 -34.04,18.67zm8.78 -52.72c0,-7.95 3.13,-15.47 3.3,-23.07l13.18 0c0.09,3.9 1.4,9.78 2.19,13.18 -4.02,0.95 -14.34,7.6 -18.67,9.89zm-35.14 106.54c0,5.5 1.19,7.21 4.09,10.19l21.17 23.85 -79.08 0 0 -149.37c0,-7.6 -16.48,-10.61 -16.48,1.1l0 148.27 -39.54 0c-2.57,0 -4.39,-1.82 -4.39,-4.39l0 -150.47c0,-50.4 32.57,-54.26 69.35,-69.04 4.26,-1.71 11.01,-4.66 15.22,-5.64 1.41,6.04 11.23,23.56 14.65,30.38 8.43,16.86 13.81,32.71 32.58,20.14 3.05,11.42 6.71,-2.56 2.05,25.12l-8.64 50.66c-2.27,13.7 -10.98,58.6 -10.98,69.2zm30.75 -154.86c5.21,-2.76 9.51,-6.7 14.28,-9.89l13.18 8.79c-0.35,4.14 -2.48,5.92 -4.4,8.78l-18.67 0c-0.89,-3.36 -2.68,-5.14 -4.39,-7.68zm74.68 81.27c0,32.69 17.29,44.8 14.34,51.57 -0.49,1.13 -2.59,4.19 -3.73,6.27l-28.18 49.79 -23.06 0c8.8,-13.13 25.26,-22.41 25.26,-35.14l-5.34 -34.2c-1.92,-11.55 -16.63,-94.4 -16.63,-101.99 0,-0.47 3.6,-4.7 4.4,-7.69 19.59,13.12 24.25,-4.59 32.21,-20.5 5.15,-10.31 9.81,-20.18 15.01,-30.02l51.62 19.77c8.29,3.67 12.05,7.89 15.38,8.78l0 2.2c-36.89,0 -70.76,34.72 -78.82,71.65 -1.02,4.68 -2.46,14.61 -2.46,19.51zm-21.96 -85.67c-4.64,-1.24 -8.73,-5.36 -12.74,-8.13 -3.11,-2.15 -10.87,-7.19 -12.52,-9.44 0.9,-3.37 15.43,-20.04 18.66,-24.17 2.96,-3.8 4.15,-4.15 6.6,-8.78 6.11,2.93 13.66,4.76 19.77,7.69 -1.9,8.13 -18.29,36.45 -19.77,42.83zm-97.74 -42.84l20.86 -7.68c2.12,4.02 3.07,4.64 5.96,8.31 4.78,6.06 16.5,19.36 19.3,24.64 -1.37,1.86 -21.41,16.54 -25.26,17.57l-20.86 -42.84zm31.84 -32.94c14.63,3.41 11.94,4.39 29.65,4.39 9.54,0 19.05,-2.2 25.27,-5.49 0,19.2 2.52,9.97 -18.53,36.39 -3.18,3.98 -6.92,7.39 -7.84,10.84l-2.19 0c-0.93,-3.47 -3.91,-5.98 -7.35,-10.23 -4.34,-5.4 -18.36,-19.87 -19.03,-25.99 -0.28,-2.46 0.02,-7.2 0.02,-9.91zm-29.66 -74.69l0 -41.73c37.58,0 68.16,-8.39 93.36,-25.26 3.17,2.11 18.67,17.17 18.67,20.86l0 57.12c0,14.42 -10.37,31 -18.65,37.35 -13.01,9.99 -23.85,15.04 -41.83,13.3 -33.76,-3.26 -51.55,-27.87 -51.55,-61.64zm129.61 0l0 -31.85c3.32,1.76 4.66,1.84 7.46,4.61 5.52,5.47 4.62,7.76 4.62,14.06 0,7.31 -7.17,10.58 -12.08,13.18zm-159.26 -15.37c0,-8.37 5.91,-13.69 13.18,-15.38l0 30.75c-2.65,-1.27 -13.18,-4.2 -13.18,-15.37z"/>
   <path class="fil1" d="M376.05 401.66c23.86,0 15.51,-10.14 24.16,-16.48 4.38,18.79 17.4,14.86 23.07,17.58 -2.87,4.29 -7.51,6.6 -9.56,11.4 -2.26,5.3 0.63,10.71 0.77,17.15 -18.73,-12.53 -18.79,-3.62 -29.65,-1.09 0.42,-18.84 5.37,-11.15 -6.38,-24.39 -3.08,-3.47 -1.04,-1.56 -2.41,-4.17zm-24.16 -4.39c0,7.57 2.88,9 6.86,12.91 16.77,16.5 7.41,7.51 7.41,32.12 0,8.42 6.96,9.88 13.19,9.88 6.52,0 15.05,-8.81 19.98,-9.17 6.12,-0.45 10.14,9.17 23.95,9.17 16.55,0 7.81,-29.3 6.59,-31.85 4.51,-3.02 17.57,-15.29 17.57,-20.87 0,-6.18 -3.92,-10.59 -8.71,-12.16 -14.49,-4.74 -17.74,2.8 -23.18,-8.67l-5.4 -11.07c-4.44,-8.12 -15.88,-10.56 -22.76,2.6 -10.71,20.47 -3.13,12.01 -25.03,16.71 -5.01,1.08 -10.47,5.28 -10.47,10.4z"/>
  </g>
 </g>
</svg>
