<svg width="109" height="102" viewBox="0 0 109 102" fill="none" xmlns="http://www.w3.org/2000/svg">
<circle cx="60.5" cy="48.5" r="48.5" fill="#0F6A36" fill-opacity="0.65"/>
<path fill-rule="evenodd" clip-rule="evenodd" d="M51.9826 89.446C53.1334 89.4203 55.0265 88.5328 55.8898 88.0722C56.4813 87.7564 56.9544 87.4092 57.4774 87.0193C58.0029 86.6276 58.4947 85.9712 59.0789 85.8153C59.2058 86.3607 60.8858 89.1805 61.2944 89.8707C61.7183 90.5873 62.0359 91.1326 62.436 91.8646C62.743 92.4264 63.3899 93.3598 63.5344 93.9014C59.0532 93.9014 59.3056 92.0461 57.2676 96.711C57.0051 97.3117 57.1143 97.4877 56.6035 97.8622C56.4054 97.0128 53.6846 92.601 53.1378 91.591L52.0765 89.6822C52.0582 89.6422 52.0083 89.4944 51.9826 89.446ZM23.2575 17H23.4423C24.2436 17.0257 24.7538 17.4225 24.7538 18.3202C24.7538 19.3339 23.7189 19.5077 22.8787 19.7457C20.8745 20.3134 18.311 21.9846 17.1598 23.5983C14.8468 26.8391 14.5219 28.233 14.5219 33.6673C14.936 33.4689 15.0463 33.5918 15.3529 33.3431C15.5884 33.152 15.6034 32.9386 15.8124 32.6478C17.176 30.7499 20.7355 33.2742 28.1651 29.8177C30.2045 28.869 32.1317 26.7617 33.9283 28.9485L36.9642 32.3485C37.4259 33.1297 37.0254 33.4249 37.9554 33.5026C37.9554 29.9237 38.0211 26.5156 35.3553 23.5609C34.3208 22.4148 33.4399 21.4741 31.9616 20.6835C29.6365 19.4402 28.054 19.7938 28.054 18.3202C28.054 15.9086 31.3927 17.5527 32.4559 18.0437C37.2781 20.272 40.6304 25.3993 40.5981 31.025C40.5611 37.4472 40.6806 34.3887 41.4478 36.6111C42.0827 38.4502 41.7548 40.6242 40.2666 41.9192C39.1044 42.9306 38.8609 43.0007 37.1303 43.4041C36.9433 45.6544 34.6908 49.764 33.1699 50.1699V53.4705C34.2305 53.7174 40.67 56.3512 42.1428 56.8742C42.9746 57.1694 43.6299 57.461 44.3898 57.7628C45.099 58.0444 45.8483 58.2813 46.5352 58.5879C48.5911 59.5051 49.6344 60.4414 50.8406 62.0389C51.1634 62.4665 51.072 62.4658 51.7395 62.6253C52.2269 62.7416 52.561 62.757 52.9765 62.8732C56.2301 63.7809 58.9821 65.9354 60.8235 68.7234C61.4073 69.6072 64.0581 74.2636 61.2239 74.2636C59.9745 74.2636 59.7721 72.0229 59.1765 71.0305C58.7881 70.3836 58.6128 69.9981 58.1632 69.4033C54.9528 65.1561 49.095 63.7361 44.2248 66.1753C42.0456 67.2667 40.0524 69.2918 39.0622 71.5743C37.2451 75.7635 38.0926 80.6264 41.2142 83.7121C42.317 84.802 42.7743 85.2568 44.2248 85.9822C47.3959 87.5679 51.0929 87.5856 54.2949 85.9822C60.2943 82.9786 59.5546 77.5642 61.0589 77.5642C62.7327 77.5642 62.8607 78.2654 62.4518 79.7796C61.5489 83.1213 60.3192 83.0931 61.0527 84.3227C62.0209 85.9459 67 94.4548 67 94.8916C67 96.3758 65.8327 96.8489 64.2898 96.616C63.0917 96.4352 61.4022 96.2119 60.2338 96.2119C60.0174 97.1415 59.3837 98.3484 58.9693 99.2378C58.5226 100.195 58.2343 101.493 56.9335 101.493C55.5018 101.493 55.0936 100.145 54.4496 99.0258L49.3422 90.1061C48.7319 90.5532 44.7862 97.8376 44.0095 99.1303C43.4851 100.003 42.9628 101.493 41.7511 101.493C40.2428 101.493 40.0605 100.516 39.5361 99.2521C39.2324 98.5204 38.3423 96.8922 38.2855 96.2119C34.2947 96.2119 32.1724 97.8581 31.5196 95.0567C25.7436 95.0567 19.9679 95.0567 14.1922 95.0567C12.2694 95.0567 3.08276 95.3482 1.69431 94.6822C0.846788 94.2759 0 93.2993 0 92.0861V67.6624C0 65.0113 0.953507 63.2854 2.379 61.4606C3.64936 59.8348 5.55234 58.8157 7.45056 58.1156C9.52407 57.3513 11.4637 56.4994 13.5127 55.7615L19.6378 53.4705C19.6378 51.8067 19.8905 50.8568 19.2803 50.1974C17.6061 48.3876 16.6218 47.8331 15.6958 44.7056C15.5337 44.1592 15.5906 43.6377 15.2125 43.3736C15.0947 43.2911 12.0776 42.9336 11.1252 40.1999C10.7834 39.2196 10.7149 38.2254 10.9591 37.2026C11.0845 36.6767 11.2668 36.3401 11.5044 35.9304C12.9622 33.4165 10.31 28.9485 14.6195 22.7082C16.5848 19.8631 20.95 17.0796 23.2575 17ZM41.5861 97.6971C41.3972 96.8867 40.9018 96.0692 40.6201 95.3629C39.4638 92.4635 38.3875 93.9014 34.9853 93.9014C35.1136 93.3506 37.8524 88.7169 38.3559 87.8657C38.6709 87.3332 39.3149 86.3552 39.4407 85.8153C40.1569 86.1942 43.4806 89.3778 46.537 89.446L42.3636 96.8243C42.0309 97.4507 42.2198 97.5281 41.5861 97.6971ZM26.5687 91.7561C25.8239 91.5573 26.4099 91.657 25.2071 90.4776C24.7006 89.9811 24.3071 89.516 23.9286 88.9509C25.0571 88.3535 26.0179 87.777 27.073 87.1447L30.3644 85.3202C30.6479 87.7088 30.8753 86.8484 28.5883 89.3198C28.2113 89.7276 26.6711 91.3728 26.5687 91.7561ZM22.2783 86.9705C22.2783 86.2345 22.7298 83.4169 22.9076 82.979C23.1831 82.3028 27.0147 80.2824 27.94 79.7598C28.3276 79.5413 28.4064 79.4078 28.7794 79.238C29.5631 78.8811 29.3673 79.5878 29.4938 80.4141C29.6134 81.1923 29.7124 81.8403 29.8693 82.5147C27.659 83.6842 24.6181 85.7324 22.2783 86.9705ZM23.5986 79.2141C23.5986 78.2925 23.7933 77.5539 23.9286 76.739L24.2095 75.0396C24.4109 74.4129 25.2166 74.1682 26.3102 73.51C27.0257 73.0794 27.5138 72.8216 28.219 72.4483C28.219 73.9119 28.7141 74.945 28.7141 76.409C27.8043 76.621 24.4974 79.0047 23.5986 79.2141ZM24.9188 71.2931C24.9188 70.0986 25.3882 68.9683 25.4139 67.8274H27.3939C27.4071 68.4135 27.6048 69.2955 27.7239 69.8078C27.1188 69.949 25.5694 70.9487 24.9188 71.2931ZM19.6378 87.3006C19.6378 88.1272 19.8175 88.385 20.2521 88.8317L23.4335 92.4162H11.5517V69.9728C11.5517 68.8308 9.07629 68.3779 9.07629 70.1378V92.4162H3.1352C2.74903 92.4162 2.47545 92.1426 2.47545 91.7561V69.1477C2.47545 61.575 7.36878 60.9948 12.8954 58.7746C13.5354 58.5175 14.5501 58.0734 15.182 57.926C15.3936 58.8336 16.8697 61.4664 17.3824 62.4918C18.6491 65.0248 19.4581 67.4057 22.2783 65.5174C22.7367 67.2337 23.2868 65.1319 22.5867 69.2914L21.2881 76.9041C20.9463 78.9618 19.6378 85.709 19.6378 87.3006ZM24.2587 64.0321C25.0413 63.6177 25.6878 63.0261 26.4037 62.5468L28.3841 63.8671C28.3324 64.4901 28.0118 64.7575 27.7239 65.1873H24.9188C24.7838 64.6823 24.515 64.415 24.2587 64.0321ZM35.4804 76.244C35.4804 81.1556 38.0768 82.975 37.6338 83.9927C37.5601 84.1617 37.2451 84.6223 37.0738 84.9337L32.8399 92.4162H29.3743C30.6963 90.442 33.1699 89.0485 33.1699 87.1356L32.3679 81.9965C32.0796 80.2615 29.8693 67.8128 29.8693 66.6726C29.8693 66.6022 30.4095 65.9666 30.5295 65.5174C33.4729 67.4882 34.1744 64.8283 35.3703 62.4368C36.1441 60.8888 36.8431 59.405 37.6254 57.926L45.3818 60.8965C46.6261 61.4477 47.1913 62.0829 47.6922 62.2168V62.5468C42.149 62.5468 37.0595 67.7632 35.8489 73.3123C35.6956 74.0157 35.4804 75.5076 35.4804 76.244ZM32.1798 63.372C31.4822 63.1857 30.8676 62.5659 30.2658 62.1504C29.7978 61.8273 28.632 61.0696 28.3841 60.7315C28.5194 60.2247 30.7037 57.721 31.1885 57.1001C31.6337 56.5295 31.8116 56.4767 32.1798 55.7806C33.0981 56.2214 34.232 56.4954 35.1503 56.9358C34.8653 58.1585 32.4031 62.413 32.1798 63.372ZM17.4936 56.9354L20.628 55.7806C20.9478 56.3853 21.0894 56.4778 21.5243 57.0297C22.2416 57.9396 24.0038 59.9383 24.4237 60.7315C24.218 61.012 21.2078 63.2172 20.628 63.372L17.4936 56.9354ZM22.2783 51.9853C24.4769 52.4972 24.0724 52.6454 26.7338 52.6454C28.1666 52.6454 29.5958 52.3142 30.5295 51.8202C30.5295 54.705 30.909 53.3176 27.7456 57.2875C27.2688 57.886 26.707 58.3983 26.5687 58.9162H26.2387C26.0997 58.3958 25.6515 58.0184 25.1355 57.3792C24.4817 56.5683 22.3755 54.394 22.2747 53.4742C22.2339 53.1049 22.2783 52.3923 22.2783 51.9853ZM17.8225 40.7636V34.4925C23.4687 34.4925 28.0624 33.2331 31.8497 30.6971C32.325 31.0155 34.6552 33.2775 34.6552 33.8323V42.4139C34.6552 44.5813 33.0959 47.0721 31.8519 48.0271C29.8972 49.5274 28.2689 50.2855 25.5668 50.0243C20.4945 49.5348 17.8225 45.8381 17.8225 40.7636ZM37.2957 40.7636V35.9777C37.7948 36.2421 37.9965 36.2546 38.4175 36.6708C39.2471 37.4916 39.1107 37.836 39.1107 38.7832C39.1107 39.8805 38.0339 40.3727 37.2957 40.7636ZM13.3671 38.4532C13.3671 37.1964 14.2542 36.3973 15.3471 36.1428V40.7636C14.9484 40.5722 13.3671 40.1321 13.3671 38.4532Z" fill="white"/>
<path fill-rule="evenodd" clip-rule="evenodd" d="M45.7117 75.0885C49.2962 75.0885 48.0427 73.5654 49.342 72.613C49.9996 75.4354 51.9565 74.845 52.8076 75.2535C52.3764 75.8979 51.6792 76.2455 51.3719 76.9662C51.0315 77.7634 51.4658 78.575 51.4874 79.5439C48.6738 77.66 48.6636 78.999 47.032 79.3789C47.0947 76.5496 47.8391 77.7051 46.0744 75.7156C45.6116 75.1941 45.9182 75.4813 45.7117 75.0885ZM42.0811 74.4284C42.0811 75.5656 42.5153 75.7805 43.1119 76.368C45.6318 78.8475 44.2264 77.4968 44.2264 81.1942C44.2264 82.4591 45.272 82.6795 46.2068 82.6795C47.1871 82.6795 48.4692 81.3556 49.2093 81.301C50.1298 81.2331 50.7334 82.6795 52.8076 82.6795C55.2948 82.6795 53.9816 78.2769 53.7978 77.894C54.4755 77.44 56.4383 75.5968 56.4383 74.7584C56.4383 73.8299 55.8493 73.1672 55.1294 72.9314C52.9521 72.2188 52.4644 73.3516 51.6469 71.6287L50.8353 69.9649C50.1679 68.7444 48.4497 68.3776 47.4148 70.3558C45.8056 73.4316 46.9458 72.1605 43.6547 72.8665C42.9018 73.0278 42.0811 73.6593 42.0811 74.4284Z" fill="white"/>
</svg>
