<?xml version="1.0" encoding="UTF-8"?>
<!DOCTYPE svg PUBLIC "-//W3C//DTD SVG 1.1//EN" "http://www.w3.org/Graphics/SVG/1.1/DTD/svg11.dtd">
<!-- Creator: CorelDRAW -->
<svg xmlns="http://www.w3.org/2000/svg" xml:space="preserve" width="49px" height="36px" version="1.1" style="shape-rendering:geometricPrecision; text-rendering:geometricPrecision; image-rendering:optimizeQuality; fill-rule:evenodd; clip-rule:evenodd"
viewBox="0 0 49 35.67"
 xmlns:xlink="http://www.w3.org/1999/xlink"
 xmlns:xodm="http://www.corel.com/coreldraw/odm/2003">
 <defs>
  <style type="text/css">
   <![CDATA[
    .fil0 {fill:#118442}
   ]]>
  </style>
 </defs>
 <g id="Layer_x0020_1">
  <metadata id="CorelCorpID_0Corel-Layer"/>
  <path id="grass.svg" class="fil0" d="M22.92 34.95c1.17,0.04 2.36,0.38 3.55,0.41 2.43,0.05 4.73,-0.39 7.09,-0.89 0.3,-0.06 0.49,-0.35 0.43,-0.65 -0.06,-0.3 -0.36,-0.49 -0.65,-0.43 -2.28,0.48 -4.5,0.91 -6.84,0.86 -1.19,-0.03 -2.37,-0.36 -3.54,-0.41 -0.3,-0.01 -0.56,0.23 -0.57,0.54 -0.02,0.3 0.22,0.56 0.53,0.57zm1 -11.9c-0.35,-2.67 -0.58,-5.35 -0.93,-8.03 -0.16,-1.23 -0.32,-2.46 -0.58,-3.67 -0.29,-1.37 -0.77,-2.69 -0.96,-4.08 0,-0.02 -0.01,-0.04 -0.01,-0.06 0.01,-0.23 -0.13,-0.46 -0.36,-0.54 -0.29,-0.11 -0.61,0.03 -0.71,0.32 -1.2,3.16 -1.47,6.36 -0.77,9.68 0.34,1.61 0.97,3.15 1.57,4.69 -0.97,-1.37 -2.09,-2.61 -3.29,-3.65 -1.45,-1.27 -2.67,-2.39 -4.65,-2.62 -0.08,-0.01 -0.16,0 -0.23,0.02 -0.05,0 -0.1,0.01 -0.15,0.02 -0.29,0.08 -0.47,0.39 -0.38,0.68 0.32,1.14 0.77,2.22 1.48,3.19 1.08,1.47 2.79,2.68 4.13,3.92 1.16,1.07 2.22,2.19 3.1,3.42 -0.1,-0.1 -0.19,-0.19 -0.29,-0.28 -1.03,-0.96 -2.13,-1.85 -3.27,-2.67 -0.89,-0.65 -1.92,-1.04 -2.88,-1.56 -3.08,-1.67 -6.28,-2.76 -9.82,-2.69 -1.3,0.02 -2.58,0.14 -3.79,0.63 -0.23,0.09 -0.36,0.31 -0.35,0.54 -0.01,0.24 0.14,0.47 0.38,0.55 3.21,1.05 6.31,2.33 9.44,3.57 2.36,0.94 4.8,1.83 6.98,3.15 0.56,0.34 1.12,0.72 1.68,1.13 -0.02,-0.01 -0.04,-0.01 -0.06,-0.02 -2.77,-1.09 -5.63,-1.12 -8.55,-1.33 -0.31,-0.02 -0.57,0.21 -0.59,0.52 -0.01,0.05 0,0.09 0.01,0.14 -0.03,0.15 0.01,0.3 0.11,0.43 1.12,1.4 2.54,1.66 4.23,1.92 0.21,0.03 0.42,0.06 0.63,0.08 -0.43,0.08 -0.87,0.17 -1.31,0.25 -1.21,0.22 -2.48,0.64 -3.54,1.28 -0.19,0.12 -0.53,0.31 -0.76,0.53 -0.16,0.15 -0.28,0.31 -0.33,0.47 -0.1,0.29 0.06,0.61 0.35,0.7 0.28,0.1 0.58,-0.05 0.69,-0.32 0.02,-0.02 0.11,-0.11 0.18,-0.15 0.16,-0.12 0.34,-0.21 0.44,-0.28 0.95,-0.58 2.09,-0.94 3.17,-1.14 1.05,-0.19 2.1,-0.45 3.17,-0.5 3.22,-0.15 6.57,0.42 9.6,1.52 0.28,0.11 0.6,-0.04 0.71,-0.33 0.1,-0.29 -0.05,-0.6 -0.33,-0.71 -0.41,-0.15 -0.82,-0.28 -1.23,-0.41 1.31,-0.24 2.62,-0.47 3.95,-0.55 2.22,-0.13 4.51,0.04 6.69,0.4 0.88,0.15 1.8,0.22 2.66,0.5 0.87,0.28 1.67,0.76 2.48,1.17 0.28,0.14 0.61,0.03 0.75,-0.25 0.13,-0.27 0.02,-0.6 -0.25,-0.74 -0.87,-0.43 -1.72,-0.94 -2.64,-1.24 -0.91,-0.29 -1.88,-0.37 -2.82,-0.53 -1.32,-0.22 -2.67,-0.37 -4.03,-0.43 2.82,-0.8 5.6,-1.85 8.1,-3.26 0.18,-0.1 0.28,-0.28 0.29,-0.47 0.04,-0.08 0.06,-0.17 0.06,-0.27 0,-0.3 -0.25,-0.55 -0.56,-0.54 -2.29,0.02 -4.51,0.3 -6.67,0.89 1.56,-0.97 3.1,-1.95 4.67,-2.92 3.38,-2.08 6.87,-3.92 9.48,-6.98 0.05,-0.06 0.08,-0.12 0.11,-0.19 0.08,-0.14 0.1,-0.32 0.05,-0.48 -0.11,-0.29 -0.43,-0.44 -0.71,-0.33 -4.01,1.44 -8.12,3.2 -11.63,5.63 -0.51,0.35 -1.01,0.72 -1.51,1.1 0.32,-0.44 0.63,-0.88 0.95,-1.31 1.28,-1.72 2.53,-3.49 3.13,-5.58 0.02,-0.09 0.03,-0.18 0.01,-0.26 0.04,-0.18 0,-0.37 -0.13,-0.51 -0.21,-0.22 -0.56,-0.23 -0.79,-0.02 -0.97,0.91 -2.11,1.63 -3.1,2.53 -2.48,2.26 -4.93,4.81 -6.93,7.64 0.31,-0.95 0.61,-1.91 0.89,-2.87 0.71,-2.46 1.05,-4.98 1.57,-7.48 0.45,-2.16 0.92,-4.3 1.14,-6.5 0.22,-2.21 0.05,-4.42 -0.07,-6.63 -0.01,-0.07 -0.02,-0.13 -0.05,-0.19 -0.06,-0.16 -0.19,-0.3 -0.36,-0.35 -0.3,-0.08 -0.61,0.08 -0.69,0.38 -1.82,6.15 -4.38,12.1 -5.54,18.44 -0.24,1.28 -0.36,2.58 -0.43,3.89zm-7.57 10.2c1.27,-0.37 2.35,-0.4 3.67,-0.13 0.3,0.06 0.59,-0.13 0.65,-0.43 0.07,-0.3 -0.13,-0.59 -0.43,-0.65 -1.51,-0.31 -2.74,-0.27 -4.2,0.15 -0.29,0.09 -0.46,0.39 -0.38,0.69 0.09,0.29 0.4,0.46 0.69,0.37zm6.67 -2.77c-0.78,-1.32 -1.77,-2.57 -2.89,-3.61 -0.99,-0.93 -2.05,-1.79 -3.16,-2.59 -0.85,-0.61 -1.83,-0.98 -2.76,-1.48 -2.91,-1.58 -5.93,-2.62 -9.27,-2.56 -0.6,0.02 -1.19,0.05 -1.78,0.13 2.65,0.93 5.24,1.99 7.85,3.03 2.41,0.96 4.91,1.88 7.14,3.23 1.27,0.77 2.55,1.75 3.68,2.71 0.42,0.36 0.78,0.78 1.19,1.14zm-11.06 -1.92c0.76,0.45 1.64,0.57 2.62,0.71 1.47,0.22 2.92,0.26 4.38,0.51 -0.06,-0.02 -0.11,-0.04 -0.16,-0.06 -2.23,-0.87 -4.51,-1.02 -6.84,-1.16zm26.54 -2.21c-2.81,0.23 -5.51,0.91 -8.1,2.17 -0.6,0.29 -1.16,0.65 -1.72,1.01 3.33,-0.72 6.73,-1.71 9.82,-3.18zm-1.77 -10.1c-0.54,0.42 -1.09,0.83 -1.6,1.29 -3.42,3.12 -6.82,6.82 -8.93,11.05 1.98,-1.96 4.07,-3.83 6,-5.84 0.83,-0.86 1.46,-1.9 2.18,-2.85 0.87,-1.17 1.72,-2.35 2.35,-3.65zm-6.69 -12.31c-1.67,5.1 -3.63,10.13 -4.61,15.42 -0.53,2.93 -0.48,6 -0.44,9.02 0.76,-2.4 1.59,-4.78 2.29,-7.2 0.71,-2.43 1.04,-4.92 1.56,-7.4 0.44,-2.12 0.91,-4.21 1.12,-6.38 0.11,-1.15 0.12,-2.3 0.08,-3.46zm15.58 13.07c-3.2,1.25 -6.38,2.74 -9.16,4.67 -2.51,1.74 -4.75,3.83 -7.07,5.81 2.88,-1.72 5.69,-3.55 8.56,-5.31 2.65,-1.64 5.38,-3.1 7.67,-5.17zm-31.83 -0.69c0.26,0.72 0.59,1.4 1.05,2.02 1.04,1.42 2.71,2.57 4,3.77 1.53,1.42 2.89,2.92 3.93,4.63 -1.13,-3.15 -3.19,-6.1 -5.61,-8.2 -1.1,-0.95 -2.02,-1.85 -3.37,-2.22zm6.98 -6.91c-0.56,2.3 -0.59,4.63 -0.08,7.03 0.42,2.01 1.31,3.91 2.02,5.83 -0.29,-2.37 -0.5,-4.74 -0.81,-7.1 -0.16,-1.2 -0.32,-2.41 -0.57,-3.59 -0.16,-0.73 -0.37,-1.45 -0.56,-2.17z"/>
 </g>
</svg>
