<svg width="41" height="31" viewBox="0 0 41 31" fill="none" xmlns="http://www.w3.org/2000/svg">
<path fill-rule="evenodd" clip-rule="evenodd" d="M19.1416 29.9443C20.1562 29.9826 21.1818 30.2731 22.2164 30.2946C24.3164 30.3387 26.302 29.9615 28.3455 29.5323C28.604 29.4777 28.77 29.2241 28.7155 28.9656C28.6614 28.7072 28.4073 28.5411 28.1488 28.5957C26.1771 29.0097 24.2623 29.3801 22.2365 29.338C21.2071 29.3164 20.1873 29.0259 19.178 28.9876C18.9138 28.9776 18.6917 29.1839 18.6817 29.448C18.6716 29.7117 18.8779 29.9343 19.1416 29.9443ZM20.0083 19.6555C19.7068 17.3444 19.5087 15.0296 19.2057 12.7133C19.0669 11.6509 18.9262 10.5817 18.7004 9.53365C18.4472 8.35732 18.0337 7.20779 17.8705 6.01327C17.8681 5.9946 17.8643 5.97642 17.86 5.95823C17.8691 5.75723 17.7494 5.56389 17.5508 5.48875C17.3039 5.39495 17.0273 5.51986 16.9339 5.7668C15.8993 8.50137 15.6643 11.268 16.2745 14.1404C16.5702 15.5326 17.112 16.8654 17.6336 18.1939C16.7932 17.0109 15.826 15.9379 14.7866 15.0353C13.5284 13.9427 12.477 12.9746 10.7623 12.7712C10.6938 12.7631 10.6278 12.7698 10.5661 12.7889C10.523 12.7889 10.4794 12.7946 10.4359 12.8071C10.1818 12.8784 10.0334 13.143 10.1052 13.3972C10.3828 14.384 10.769 15.3143 11.383 16.1494C12.3215 17.4263 13.8036 18.4667 14.9598 19.5411C15.961 20.471 16.8751 21.4367 17.6379 22.4953C17.5551 22.414 17.4709 22.334 17.3862 22.2551C16.4946 21.4267 15.5466 20.6538 14.5593 19.9445C13.7864 19.3889 12.9034 19.0515 12.0721 18.6007C9.40551 17.1544 6.63697 16.2112 3.57601 16.272C2.45807 16.294 1.3449 16.3935 0.299222 16.8175C0.1054 16.896 -0.00897933 17.087 0.000592129 17.2846C-0.00993648 17.4952 0.120714 17.6957 0.330808 17.7637C3.10462 18.6658 5.78128 19.7722 8.49 20.85C10.5268 21.6607 12.6407 22.4269 14.5215 23.5692C15.0096 23.8655 15.4973 24.1976 15.9739 24.5484C15.9581 24.5422 15.9428 24.536 15.9275 24.5302C13.5279 23.5927 11.0619 23.564 8.53259 23.385C8.2689 23.3663 8.04014 23.5654 8.02148 23.8286C8.01861 23.8703 8.021 23.9109 8.02818 23.9497C8.00808 24.078 8.03966 24.2144 8.12724 24.3235C9.09444 25.5304 10.3258 25.7616 11.7878 25.9817C11.9692 26.009 12.1501 26.0329 12.331 26.0545C11.9534 26.1253 11.5763 26.2028 11.1982 26.2717C10.1497 26.4622 9.05185 26.8216 8.13442 27.3801C7.97266 27.4787 7.67499 27.6457 7.47734 27.8305C7.33712 27.9611 7.23949 28.1061 7.19307 28.2444C7.1098 28.4952 7.24523 28.7665 7.496 28.8498C7.73864 28.9307 8.00042 28.8063 8.09278 28.5708C8.10954 28.555 8.19137 28.4765 8.24736 28.4368C8.38519 28.3387 8.53786 28.2554 8.63214 28.198C9.45098 27.6993 10.4335 27.3835 11.3696 27.2131C12.2808 27.0475 13.1838 26.825 14.1123 26.7809C16.8942 26.6484 19.7934 27.1442 22.4083 28.0956C22.6567 28.1856 22.9314 28.0573 23.0219 27.8089C23.1118 27.561 22.9836 27.2863 22.7357 27.1959C22.3859 27.0686 22.0317 26.9494 21.6733 26.8384C22.8094 26.6331 23.9403 26.433 25.0951 26.3646C27.0074 26.2512 28.9887 26.3952 30.8748 26.7125C31.6381 26.8408 32.434 26.9035 33.1738 27.1408C33.9276 27.3825 34.6191 27.8027 35.3231 28.1549C35.5595 28.2731 35.8472 28.1769 35.9654 27.941C36.0836 27.7046 35.9874 27.417 35.7514 27.2988C35.0039 26.925 34.2664 26.4861 33.4663 26.2292C32.6828 25.9779 31.8415 25.9047 31.0337 25.7688C29.8937 25.5769 28.7202 25.4467 27.5473 25.3945C29.9885 24.7015 32.3876 23.7966 34.555 22.5733C34.7072 22.4877 34.7943 22.3307 34.7981 22.168C34.8345 22.1 34.8541 22.0225 34.8536 21.9402C34.8508 21.676 34.634 21.464 34.3698 21.4664C32.3861 21.487 30.4675 21.7272 28.6044 22.2398C29.9468 21.3984 31.2859 20.5499 32.6374 19.7172C35.5614 17.9149 38.5784 16.3236 40.8368 13.6776C40.8789 13.6278 40.9095 13.5718 40.9282 13.5135C41.0023 13.3933 41.0229 13.2421 40.9717 13.0995C40.8822 12.8511 40.6075 12.7219 40.3591 12.8114C36.8919 14.0605 33.338 15.5828 30.3019 17.6838C29.8602 17.9891 29.4285 18.3073 29.004 18.6352C29.2759 18.2561 29.5405 17.8723 29.8176 17.5009C30.9289 16.0131 32.0047 14.4811 32.5273 12.676C32.5493 12.5999 32.5517 12.5228 32.5373 12.4501C32.5732 12.2988 32.535 12.1323 32.4206 12.0107C32.2392 11.8184 31.9363 11.8093 31.7439 11.9902C30.9016 12.7832 29.9157 13.4029 29.0591 14.1835C26.9194 16.1317 24.7955 18.3418 23.0683 20.7883C23.3339 19.9642 23.5928 19.1381 23.835 18.3064C24.4547 16.1772 24.7471 14.0002 25.1965 11.8375C25.5851 9.96867 25.9948 8.12329 26.1819 6.22001C26.37 4.30907 26.2245 2.39238 26.1182 0.485747C26.1149 0.425446 26.1005 0.368496 26.0771 0.316332C26.0268 0.178024 25.9139 0.0646022 25.7622 0.0196163C25.509 -0.0550411 25.2425 0.0899664 25.1678 0.343132C23.5971 5.6663 21.3832 10.8129 20.3758 16.2925C20.1734 17.3956 20.0643 18.5208 20.0083 19.6555ZM13.4609 28.478C14.5617 28.1568 15.4949 28.1281 16.6353 28.3626C16.8937 28.4158 17.1474 28.2492 17.2005 27.9903C17.2536 27.7319 17.0871 27.4787 16.8282 27.4251C15.5222 27.1566 14.4535 27.1911 13.1925 27.5591C12.9393 27.6333 12.7933 27.8989 12.8675 28.1525C12.9412 28.4062 13.2073 28.5521 13.4609 28.478ZM19.2277 26.0803C18.5506 24.9356 17.7016 23.855 16.7344 22.9562C15.8725 22.1551 14.9555 21.408 14.0008 20.7217C13.2609 20.1896 12.4119 19.8737 11.616 19.442C9.09731 18.0762 6.48622 17.1717 3.59468 17.2286C3.07877 17.2387 2.56335 17.264 2.05702 17.3382C4.34651 18.1432 6.58432 19.0616 8.84414 19.9608C10.9298 20.7906 13.0924 21.5813 15.0187 22.7509C16.1189 23.4195 17.2201 24.2617 18.2003 25.0964C18.5625 25.405 18.876 25.7635 19.2277 26.0803ZM9.66298 24.4163C10.3201 24.8064 11.0853 24.9078 11.9305 25.0351C13.2059 25.227 14.4602 25.26 15.715 25.4749C15.6696 25.4567 15.6241 25.439 15.5791 25.4218C13.6519 24.6685 11.6778 24.5388 9.66298 24.4163ZM32.611 22.5054C30.1809 22.7088 27.8526 23.2969 25.6086 24.3871C25.0893 24.6393 24.6045 24.9471 24.1212 25.2572C27.0017 24.6369 29.9416 23.7822 32.611 22.5054ZM31.082 13.7743C30.613 14.1342 30.1416 14.4917 29.7032 14.8908C26.7442 17.5861 23.8043 20.7878 21.9762 24.4422C23.6952 22.749 25.4942 21.1328 27.1654 19.399C27.8842 18.6524 28.4331 17.7551 29.0505 16.9286C29.8013 15.9226 30.5431 14.9004 31.082 13.7743ZM25.2975 3.13369C23.8517 7.5447 22.1585 11.8878 21.3172 16.4653C20.8515 19.0003 20.8941 21.6559 20.9334 24.2632C21.5914 22.1876 22.3069 20.1307 22.9156 18.0389C23.5287 15.9336 23.8153 13.781 24.2595 11.6427C24.6409 9.80739 25.0453 7.99552 25.2295 6.12621C25.3276 5.12934 25.331 4.13104 25.2975 3.13369ZM38.7693 14.429C36.0056 15.5101 33.2581 16.8022 30.8465 18.471C28.6762 19.9723 26.7461 21.7856 24.7376 23.497C27.2271 22.0057 29.6606 20.4274 32.1353 18.9022C34.4291 17.4885 36.7909 16.2193 38.7693 14.429ZM11.2485 13.8375C11.4701 14.4553 11.7567 15.042 12.1544 15.5828C13.0585 16.8132 14.4971 17.8048 15.6116 18.8395C16.9387 20.0723 18.1151 21.3697 19.0172 22.8418C18.0375 20.1183 16.251 17.5746 14.1592 15.758C13.2083 14.9324 12.4119 14.1528 11.2485 13.8375ZM17.2852 7.85625C16.8014 9.84664 16.7698 11.8648 17.2106 13.9418C17.5795 15.6781 18.3477 17.3181 18.9593 18.9773C18.7114 16.9329 18.5247 14.8855 18.2567 12.8377C18.1213 11.8011 17.9849 10.7574 17.7647 9.73513C17.6288 9.10485 17.4494 8.48223 17.2852 7.85625Z" fill="#118442"/>
</svg>
