<?xml version="1.0" encoding="UTF-8"?>
<!DOCTYPE svg PUBLIC "-//W3C//DTD SVG 1.1//EN" "http://www.w3.org/Graphics/SVG/1.1/DTD/svg11.dtd">
<!-- Creator: CorelDRAW -->
<svg xmlns="http://www.w3.org/2000/svg" xml:space="preserve" width="591px" height="591px" version="1.1" style="shape-rendering:geometricPrecision; text-rendering:geometricPrecision; image-rendering:optimizeQuality; fill-rule:evenodd; clip-rule:evenodd"
viewBox="0 0 591 591"
 xmlns:xlink="http://www.w3.org/1999/xlink"
 xmlns:xodm="http://www.corel.com/coreldraw/odm/2003">
 <defs>
  <style type="text/css">
   <![CDATA[
    .fil0 {fill:none}
    .fil1 {fill:white}
   ]]>
  </style>
 </defs>
 <g id="Layer_x0020_1">
  <metadata id="CorelCorpID_0Corel-Layer"/>
  <rect class="fil0" x="-0.72" y="0.72" width="591" height="591"/>
  <g id="_2211187874608">
   <g>
    <path class="fil1" d="M82.64 93.77l23.22 -23.77c12.19,8.37 29.68,34.58 39.28,34.33 3.92,-0.1 16.35,-8.29 24.91,-11.54 4.97,-1.88 9.86,-2.89 14.59,-4.43 4.71,-1.54 8.76,-4.34 8.76,-10.26l0 -44.75 33.57 0c0,58.83 -4.13,50.08 20.85,58.58 4.3,1.46 9.54,3.59 13.47,5.55 4.32,2.16 7.52,5.32 12.44,6.55 10.27,2.56 27.65,-25.15 40.5,-33.76l23.77 23.22c-8.89,12.95 -36.01,30.99 -34.55,40.15 0.43,2.68 9.05,16.09 12.35,25.68 8.84,25.63 -1.68,21.71 58.85,21.71l0 33.57 -45.87 0c-9.4,0 -9,9.48 -13.84,23.08 -1.98,5.58 -11.89,23.09 -11.89,25.02 0,8.73 29.04,30.75 34.68,39.16l-23.22 23.77c-7.83,-5.33 -31.52,-34.95 -38.31,-34.95 -3.55,0 -17.15,8.16 -26.2,11.84 -26.53,10.79 -23.03,-6.54 -23.03,59.76l-33.57 0 0 -45.88c0,-12.13 -16.64,-9.05 -35.33,-19.48 -17.15,-9.57 -13.06,-9.88 -33.19,10.26 -4.89,4.88 -13.81,14.87 -18.74,18.18l-23.77 -23.23c5.91,-8.68 34.95,-30.7 34.95,-39.43 0,-2.02 -8.57,-16.56 -11.83,-25.08 -10.72,-27.99 5,-23.02 -59.77,-23.02l0 -33.57 42.52 0c13.72,0 11.78,-8.45 16.6,-21.44 2.08,-5.63 3.36,-8.42 5.76,-13.25 9.06,-18.2 12.11,-11.95 -9.78,-33.84 -4.88,-4.88 -14.87,-13.8 -18.18,-18.73zm92.86 -21.26c-8.42,0.7 -24.58,10.14 -29.09,11.19 -11.63,-7.8 -31.56,-35.81 -40.27,-35.81 -5.95,0 -9.77,5.85 -13.15,9.23 -40.94,40.98 -39.98,32.19 -15.1,57.06 4.99,5 14.26,15.37 19.3,18.74 -4.8,9.07 -9.71,19.04 -12.31,30.21 -11.19,0 -22.38,0 -33.57,0 -28.31,0 -23.49,-5.86 -23.49,59.3 0,11.75 11.76,10.07 23.49,10.07 11.19,-0.01 22.38,0 33.57,0 0.72,3.11 3.79,11.45 5.25,14.88 2.02,4.77 4.77,9.88 7.06,14.2 -2.78,1.87 -36.93,33.79 -36.93,40.28 0,6.37 37.09,41.43 40.48,43.5 9.41,5.73 16.83,-5.14 24.7,-13.01 5.43,-5.43 17.34,-16.11 20.97,-21.54 4.16,2.2 9.17,4.81 13.43,6.72 4.83,2.16 11.01,3.36 15.66,5.59 0,11.56 0,23.12 0,34.68 0,26.49 -4.03,22.38 57.06,22.38 14.59,0 12.31,-8.58 12.31,-22.38 0,-11.56 0,-23.12 0,-34.68 8.24,-3.96 11.06,-2.77 29.09,-12.31l31.59 31.07c11.8,12.14 16.24,2.22 35.25,-16.8 26.13,-26.13 24.95,-21.49 2.24,-44.2 -4.99,-4.99 -15.36,-14.26 -18.74,-19.3 0.81,-3.44 4.22,-10.23 5.98,-14.15 2.22,-4.93 3.96,-9.6 5.21,-14.93l50.09 -0.26c3.78,-0.92 6.97,-4.64 6.97,-9.81l0 -50.35c0,-11.98 -12.76,-8.95 -23.5,-8.95 -11.18,0 -22.37,0 -33.56,0 -3.66,-15.71 -9.83,-23.29 -11.19,-29.09 5.52,-8.23 35.8,-32.26 35.8,-40.27 0,-6.32 -14.44,-18.36 -20.97,-24.9 -27.39,-27.38 -21.93,-27.86 -45.88,-3.92 -4.99,5 -14.26,15.38 -19.29,18.75 -5.34,-1.25 -8.67,-4.19 -13.89,-6.26 -4.16,-1.65 -11.06,-4.59 -15.2,-4.93 0,-10.82 0,-21.63 0,-32.45 0,-30.1 6.54,-24.61 -60.42,-24.61 -11.41,0 -8.95,12.24 -8.95,23.49 0,11.19 0,22.38 0,33.57z"/>
    <path class="fil1" d="M132.99 202.29c0,-16.19 0.44,-23.3 7.07,-37.68 3.74,-8.08 6.09,-10.84 10.97,-17 26.26,-33.12 80.95,-37.13 112.04,-7.16 24.55,23.67 31.76,60.89 16.89,91.33 -4.28,8.77 -9.34,14.66 -15.79,21.14 -29.77,29.89 -78.78,29.3 -107.97,0 -6.45,-6.49 -11.48,-12.38 -15.79,-21.13 -3.22,-6.55 -7.42,-20.3 -7.42,-29.5zm-17.9 -10.07c0,31.1 8.25,53.64 27.12,72.45 33.7,33.63 85.63,37.98 124.57,9.87 38.17,-27.56 50.48,-79.5 26.95,-123.35 -4.98,-9.27 -9.03,-13.27 -15.31,-20.5 -23.04,-26.54 -70.06,-36.16 -104.38,-21.6 -15.89,6.74 -30.21,17.87 -39.79,30.7 -9.27,12.42 -19.16,31.12 -19.16,52.43z"/>
    <path class="fil1" d="M158.72 197.82c0,-19.69 8.13,-31.05 20.37,-41.16 28.43,-23.48 82.56,-7.05 82.56,42.27 0,20.99 -13.91,38.33 -30.4,45.68 -34.42,15.35 -72.53,-10.71 -72.53,-46.79zm-17.9 -3.36c0,69.59 77.35,93.51 117.76,52.87 21.3,-21.44 27.36,-52.54 14.65,-78.99 -3.49,-7.25 -7.55,-13.75 -12.94,-19.51 -4.04,-4.31 -12.68,-10.34 -18.23,-13.1 -19.98,-9.95 -42.86,-10.16 -62.83,-0.2 -21.55,10.75 -38.41,33.78 -38.41,58.93z"/>
   </g>
   <g>
    <path class="fil1" d="M521.57 558.9l-442.72 0c-27.27,0 -27.2,-45.17 -16.34,-57.67 3.58,-4.12 10.91,-8.68 18.51,-8.68l438.38 0c14.87,0 25.02,12.26 25.02,29.37 0,10.2 0.42,19.85 -5.24,27.39 -3.59,4.76 -9.59,9.59 -17.61,9.59zm-78.31 -139.24c0,-2.5 0.75,-3.26 3.26,-3.26l55.48 0 0 58.74 -58.74 0 0 -55.48zm-75.06 -3.26l57.65 0 0 58.74 -57.65 0 0 -58.74zm50.04 -75.05l58.74 0 0 57.65 -58.74 0 0 -57.65zm-17.41 -6.53l0 64.18 -38.07 0c-6.48,0 -11.96,2.09 -11.96,8.7l0 67.44 -268.69 0c-14.55,0 -23.85,5.75 -31.3,13.3 -14.34,14.56 -15.06,46.08 -8.51,62.41 7.78,19.4 25.78,26.54 48.51,26.54l418.8 0c22.77,0 32.9,-4.87 43.79,-18.21 2.23,-2.74 3.27,-4.69 4.73,-8.33 6.4,-15.93 5.76,-47.59 -7.97,-61.87 -6.97,-7.25 -17.3,-13.54 -30.76,-13.84l0 -66.35c0,-12 -14.72,-9.79 -25.02,-9.79l0 -65.27c0,-5.26 -3.09,-9.79 -8.7,-9.79l-76.15 0c-6.48,0 -8.7,4.39 -8.7,10.88z"/>
    <path class="fil1" d="M139.76 526.27c0,14.92 -24.92,4.65 -13.56,-5.98 4.73,-4.44 13.56,-1.78 13.56,5.98zm-33.72 0c0,22.17 27.39,33.15 43.29,18.26 16.53,-15.48 5.44,-44.88 -18.18,-44.2 -13.26,0.39 -25.11,12.03 -25.11,25.94z"/>
    <path class="fil1" d="M468.28 533.88c-14.49,0 -5.41,-24.24 5.97,-13.58 5.4,5.06 1.5,13.58 -5.97,13.58zm-25.02 -9.79c0,8.16 1.82,14.48 7.28,19.91 10.46,10.39 27.87,9.24 36.41,-0.15 15.93,-17.54 3.84,-41.73 -16.76,-43.45 -13.53,-1.13 -26.93,10.82 -26.93,23.69z"/>
    <path class="fil1" d="M208.29 526.27c0,-11.17 15.23,-11.17 15.23,0 0,10.45 -15.23,10.45 -15.23,0zm-17.4 -3.27l0 5.44c0,24.22 38.42,33.2 48.55,7.22 8.07,-20.68 -10.09,-40 -31.57,-33.76 -8.07,2.34 -16.98,11.52 -16.98,21.1z"/>
    <path class="fil1" d="M292.05 526.27c0,-10.83 16.32,-10.48 16.32,0 0,10.14 -16.32,10.14 -16.32,0zm-17.4 -1.09c0,34.83 51.12,34.6 51.12,0 0,-13.16 -12.47,-24.48 -25.1,-24.85 -13.12,-0.38 -26.02,11.77 -26.02,24.85z"/>
    <path class="fil1" d="M376.9 526.27c0,-11.17 15.23,-11.17 15.23,0 0,10.45 -15.23,10.45 -15.23,0zm5.44 25.01c34.43,0 33.8,-40.74 11.87,-48.85 -10.54,-3.9 -21.6,-1.23 -27.96,5.57 -16.45,17.6 -2.53,43.28 16.09,43.28z"/>
   </g>
  </g>
 </g>
</svg>
