<svg width="109" height="97" viewBox="0 0 109 97" fill="none" xmlns="http://www.w3.org/2000/svg">
<circle cx="60.5" cy="48.5" r="48.5" fill="#0F6A36" fill-opacity="0.65"/>
<path fill-rule="evenodd" clip-rule="evenodd" d="M17.8669 68.2058C23.1726 68.2058 28.4786 68.2058 33.7847 68.2058C36.4705 68.2058 39.2927 67.929 41.0895 68.8705C42.6406 69.6834 44.0175 71.5445 44.0175 73.985V91.4874C44.0175 94.2098 40.8399 94.1026 40.4758 92.2808L40.4512 76.6197C40.4293 73.7873 39.4716 73.9842 36.8709 73.985C32.798 73.9858 28.5739 74.0966 24.5206 73.9906C21.1621 73.9028 18.2552 71.2828 17.8669 68.2058ZM0 92.5254V90.4967C0 88.6236 2.68857 86.5342 4.38538 86.5342H19.4911V76.2965C19.4911 75.4697 14.2936 73.5534 14.2936 66.3891V49.2167C14.2936 46.6496 15.124 44.761 16.217 43.2465C17.1314 41.9802 19.0868 40.1143 20.7906 39.9702C17.4462 37.015 17.7044 34.1147 17.7044 29.7329H14.9432C13.4085 29.7329 12.6292 27.4607 13.9674 26.5943C14.7049 26.117 16.0138 26.2651 16.8923 26.2651V23.7885C16.8923 21.4691 18.7223 19 21.1152 19H29.7239C30.8309 19 32.141 19.8085 32.6913 20.4414C34.114 22.0782 33.9472 24.126 33.9472 26.2651C35.3373 26.2651 37.683 26.001 37.683 28.0814C37.683 30.122 34.7538 29.7329 33.4597 29.7329V34.0258C33.4597 38.9056 29.2962 40.3676 28.7493 41.1261C30.2903 41.5442 33.1214 45.9312 34.3042 47.6983C34.8772 48.5544 35.4151 49.1178 35.8963 50.0427C39.2727 50.0427 42.775 49.949 46.135 50.0367C49.304 50.1193 51.034 51.9705 51.6516 54.6659C54.6198 53.9627 57.9291 54.5567 60.4227 55.8215C63.2921 57.2764 63.5222 58.2429 64.4831 58.9589V52.5193C62.5316 52.5193 60.4985 52.1329 58.9572 51.367C56.608 50.1999 54.8265 48.1716 53.7558 45.7569C53.2832 44.6907 52.7886 42.8339 52.7886 41.2913C52.7886 38.8162 53.3031 37.3283 56.1994 37.3283C58.0552 37.3283 59.9759 37.6766 61.3953 38.3207C62.7613 38.9405 63.4101 39.7351 64.4831 40.4657V38.3191C63.3632 37.7163 62.5367 36.4901 61.8504 35.3814C60.7356 33.5806 60.5852 31.4594 60.5852 29.2373C60.5852 26.0066 64.1339 21.3114 65.9452 21.3114C68.9611 21.3114 73.6304 27.9043 70.9157 34.4554C69.8235 37.0913 67.9099 37.6365 67.8806 39.1307L67.8943 46.7401L69.7021 45.2756C72.4395 43.1826 78.3205 42.0934 80.2064 43.6357C81.2391 44.4803 81.0509 46.7842 81.0509 48.226C81.0509 53.0689 77.2576 57.4809 73.0719 59.1038C71.4137 59.7463 69.5114 59.9214 67.8943 59.7844V81.2501C69.7485 81.2922 71.5571 82.9064 72.5641 83.9332L81.4973 93.015C82.0098 93.5356 83 94.2237 83 95.1204C83 96.0396 82.5793 96.9366 81.5379 96.9366C80.4583 96.9366 79.895 96.1742 79.2236 95.4916L70.6962 86.8228C69.5482 85.6558 68.499 84.3875 66.2702 84.3875C63.9542 84.3875 62.8547 85.6304 61.6 86.9054L54.7784 93.8406C53.9343 94.6987 52.2598 96.9366 51.002 96.9366C50.1809 96.9366 49.3774 96.3406 49.3774 95.4503C49.3774 94.3111 50.2563 93.6492 50.9614 92.9324C52.9539 90.9069 60.3262 82.9977 61.9371 82.1293C62.8515 81.6361 63.7269 81.4538 64.4831 81.0849V72.4987C62.5207 72.6647 60.5544 72.438 58.5716 71.7383C56.7522 71.0962 55.6854 70.2127 54.3183 69.1274C53.2113 68.2487 51.9699 66.4439 51.2723 65.1236C50.6461 63.9379 49.8649 61.3648 49.8649 59.6196C49.2903 59.7753 48.9525 60.1616 48.3626 60.4039C47.8037 60.6334 47.3533 60.7751 46.6162 60.7751H30.6985V64.9032H39.3071C41.8488 64.9032 43.8491 66.4451 45.3577 68.1641C46.0561 68.9599 46.6385 70.1202 47.0037 71.2797C47.7783 73.7392 47.4287 87.3414 47.4287 90.4967C47.4287 94.2392 45.7108 96.9366 41.9058 96.9366C39.3075 96.9366 37.0334 94.4918 37.0334 91.8178V77.4524H31.1859V88.1852C31.1859 92.7331 27.2173 96.9366 22.7398 96.9366C21.332 96.9366 18.354 97.4969 18.354 95.2852C18.354 93.7588 19.575 93.6174 20.7879 93.6317C22.4413 93.6503 23.2136 93.5932 24.3889 93.1643C26.0943 92.5425 27.7747 90.6392 27.7747 88.3504V77.4524L22.9019 77.2872V87.5245C22.9019 89.0072 22.4269 89.8216 20.9633 89.847C18.0888 89.8967 5.91814 89.5564 4.49827 89.9511C3.50416 90.2275 2.83856 91.3353 3.29636 92.417C3.78697 93.5761 4.76857 93.6547 6.33765 93.6309C7.21809 93.6174 7.57862 93.565 8.0911 93.995C9.16176 94.8932 8.78053 96.9366 7.14661 96.9366C5.16387 96.9366 3.03817 97.1066 1.57846 95.662C0.357018 94.4529 0.0605446 93.6329 0 92.5254ZM53.2757 59.7844V57.8029C57.0705 57.8029 58.1884 57.978 61.0504 60.3022C63.3918 62.2038 64.4831 65.0923 64.4831 68.701C64.4831 69.326 64.1042 69.1966 63.184 69.1966C60.2419 69.1966 57.9197 67.8611 56.3201 66.4316C54.7557 65.0339 53.2757 62.1228 53.2757 59.7844ZM27.4501 57.6381V64.9032H17.7044V48.8867C17.7044 47.8563 17.8982 47.1614 18.2083 46.4268C19.8551 42.521 25.1268 41.5466 28.0626 44.7964C28.5021 45.2824 29.0348 46.05 29.3981 46.5761L33.296 52.0249C33.7729 52.7202 33.9835 53.319 34.9522 53.4787C36.267 53.6955 46.1881 53.2849 47.1369 53.6411C49.1767 54.4074 48.3126 57.3078 46.9412 57.3078H32.1605C31.325 57.3078 28.8602 53.1796 27.7747 53.1796C26.6842 53.1796 25.7381 53.998 25.8869 55.1023C26.0318 56.1781 27.4501 56.9945 27.4501 57.6381ZM69.0314 56.4822H67.8943C67.8943 53.5771 68.2193 51.0755 70.5302 48.9245C73.5687 46.0956 77.8021 46.0492 77.8021 46.7401C77.8021 52.3533 73.8445 56.4822 69.0314 56.4822ZM56.1994 41.4565V40.7957C57.1119 40.7751 56.8291 40.679 57.822 40.7862C58.5119 40.8604 58.7993 40.9585 59.4142 41.1606C61.2563 41.7658 62.8383 43.3565 63.6749 45.085C64.3515 46.4824 64.4831 47.3512 64.4831 49.0519C61.7024 49.0519 60.4298 48.8065 58.3498 46.7008C57.1978 45.5341 56.1994 43.7302 56.1994 41.4565ZM26.1506 38.1539C25.1158 38.1539 24.6245 38.2178 23.6136 37.7608C20.5008 36.3527 21.1152 32.5935 21.1152 29.7329H30.2114C30.2114 32.2012 30.5531 34.9192 29.1161 36.5449C28.4595 37.2878 27.4568 38.1539 26.1506 38.1539ZM63.8335 30.228C63.8335 28.1092 64.9897 26.0971 66.1077 25.1092C69.0181 27.0906 69.279 33.1875 66.1077 35.3469C64.9241 34.5412 63.8335 32.281 63.8335 30.228ZM20.3031 23.6233C20.3031 22.7711 20.9793 22.3022 21.7652 22.3022H28.9118C31.0238 22.3022 30.6985 24.2324 30.6985 26.2651H20.3031V23.6233Z" fill="white"/>
<path fill-rule="evenodd" clip-rule="evenodd" d="M11.8574 95.2854C11.8574 97.4924 15.2686 97.39 15.2686 95.2854C15.2686 93.1808 11.8574 93.0788 11.8574 95.2854Z" fill="white"/>
</svg>
