<?xml version="1.0" encoding="UTF-8"?>
<!DOCTYPE svg PUBLIC "-//W3C//DTD SVG 1.1//EN" "http://www.w3.org/Graphics/SVG/1.1/DTD/svg11.dtd">
<!-- Creator: CorelDRAW -->
<svg xmlns="http://www.w3.org/2000/svg" xml:space="preserve" width="3508px" height="1181px" version="1.1" style="shape-rendering:geometricPrecision; text-rendering:geometricPrecision; image-rendering:optimizeQuality; fill-rule:evenodd; clip-rule:evenodd"
viewBox="0 0 3508 1181.14"
 xmlns:xlink="http://www.w3.org/1999/xlink"
 xmlns:xodm="http://www.corel.com/coreldraw/odm/2003">
 <defs>
  <style type="text/css">
   <![CDATA[
    .fil1 {fill:#242021}
    .fil0 {fill:#ED1C24}
   ]]>
  </style>
 </defs>
 <g id="Layer_x0020_1">
  <metadata id="CorelCorpID_0Corel-Layer"/>
  <g id="_1969232719584">
   <path class="fil0" d="M37.67 962.06l178.54 0 0 -586.38c4.92,2.36 22.1,0.41 30.64,0.87 4,0.22 4.75,0.88 9.62,0.88l0 584.63 178.54 0 0 -586.38 42.01 0 0 586.38 178.54 0 0 -715.04c0,-7.34 -13.45,-22.5 -18.24,-26.39 -7.83,-6.36 -19.41,-12.11 -33.39,-12.11l-91.02 0c-18.19,0 -34.39,4.75 -46.82,10.94 -3.27,1.63 -5.88,3.22 -8.93,5.07 -3.55,2.14 -5.34,3.89 -8.53,6.36 -2.98,2.31 -4.81,3.91 -7.13,6.87 -3.11,3.99 -4.31,6.7 -7.36,7.51 -3.66,-15.68 -27.19,-36.75 -46.39,-36.75l-97.14 0c-18.71,0 -46.5,9.91 -60.2,21.2 -3.11,2.57 -4.53,3.68 -7.43,6.57 -2.53,2.54 -3.91,5.32 -6.77,7.23l0 -35 -178.54 0 0 753.54z"/>
   <path class="fil0" d="M2048.88 614.61l0 181.16 -40.26 0 0 -420.09 41.13 0c0,80.55 -0.87,158.36 -0.87,238.93zm-207.42 556.62l168.03 0.88 0 -210.92 143.54 0c20.7,0 35.25,-4.94 45.73,-15.53 10.93,-11.05 18.16,-25.93 18.16,-43.11l0 -613.52c0,-45.26 -36.32,-81.39 -84.9,-81.39l-290.56 0 0 963.59z"/>
   <path class="fil0" d="M2646.64 540.22l0 -165.42c7.24,0 10.97,0.88 18.38,0.88l22.75 0 0 168.04 -32.39 -0.86c-4.05,0.05 -8.74,1.17 -8.74,-2.64zm-168.91 -287.07l0 667.78c0,25.24 24.11,44.24 47.62,40.63 8.29,-1.28 240.84,-0.37 269.2,-0.37 22.45,0 37.13,1.04 48.8,-10.71 5.93,-5.98 8.08,-9.7 11.06,-18.7 2.46,-7.43 3.15,-17.92 3.15,-27.48l0 -171.54 -169.79 0 0 98.02 -32.39 -0.86c-4.05,0.06 -8.74,1.17 -8.74,-2.64l0 -137.41c57.3,0 114.31,1.48 170.7,0.92 10.52,-0.11 17.65,-3.66 23.99,-8.4 5.83,-4.35 10.33,-12.05 12.85,-19.53 2.46,-7.3 3.38,-18.97 3.38,-29l0 -373.71c0,-26.81 -19.18,-51.63 -43.76,-51.63l-294.94 0c-13.07,0 -22.79,6.7 -29.1,13.78 -5.66,6.38 -12.03,19.09 -12.03,30.85z"/>
   <path class="fil0" d="M699.32 888.54c0,24.84 11.38,46.69 30.37,60.66 11.44,8.42 26.5,12.86 42.28,12.86l304.56 0 0 -753.54 -169.79 0 0 585.5 -40.25 0 0 -585.5 -167.17 0 0 680.02z"/>
   <path class="fil0" d="M2896.95 527.96c0,25.56 15.92,40.18 35.92,51.6 2.87,1.63 5.96,2.73 7.84,5.29 -12.83,8.59 -18.6,9.43 -29.99,20.77 -8.19,8.16 -13.77,20.94 -13.77,36.99l0 319.45 168.03 0 0 -289.69 41.14 0 0 289.69 168.04 0 0 -321.2c0,-11.04 -8.54,-26.77 -14.99,-34.89 -5.47,-6.88 -19.94,-19.06 -28.77,-21.12 1.39,-1.9 4.81,-3.49 7.18,-5.07 2.58,-1.73 4.8,-3.01 7.33,-4.92 13.64,-10.27 29.25,-30.96 29.25,-46.9l0 -319.44 -168.04 0 0 295.81 -41.14 -0.87 0 -294.94 -168.03 0 0 319.44z"/>
   <path class="fil0" d="M1349.6 887.67c0,20.1 3.55,48.56 19.23,60.41 18.06,13.64 40.75,13.98 65.66,13.98 54.1,0 105.64,0.88 159.29,0.88l0 -166.29c0,-3.58 -2.72,-2.31 -4.52,-2.09 -3.1,0.39 -5.44,0.35 -8.61,0.34l-33.27 -0.01c-6.86,-0.03 -9.92,0.88 -16.62,0.88l0 -420.97c10.1,0 16.94,0.88 27.13,0.88l35.89 0 0 -167.16 -63.02 0 0 -168.92 -181.16 0 0 848.07z"/>
   <polygon class="fil0" points="1123.79,962.94 1304.96,962.94 1304.96,39.6 1123.79,39.6 "/>
   <path class="fil0" d="M2258.05 962.94l178.54 0c2.02,0 2.63,-0.61 2.63,-2.63l0 -918.08c0,-2.02 -0.61,-2.63 -2.63,-2.63l-178.54 0 0 923.34z"/>
   <polygon class="fil0" points="1622.66,962.94 1803.82,962.94 1803.82,208.52 1622.66,208.52 "/>
   <path class="fil0" d="M1622.66 73.73c0,19.33 6.44,36.98 15.91,51.48 4.75,7.28 9.78,12.54 16.2,17.94 32.2,27.07 71.57,29.92 107.33,7.89l11.76 -9.25c2.22,-2.03 3.05,-3.1 4.96,-5.54 26.3,-33.65 21.5,-50.51 21.5,-96.65l-177.66 0 0 34.13z"/>
   <path class="fil1" d="M3368.77 29.65c42.87,-6.54 77.41,24.39 82.6,60.21 6.31,43.59 -24.53,77.86 -60.85,82.82 -41.34,5.63 -76.85,-23.25 -82.04,-60.6 -6.03,-43.36 24.06,-76.9 60.29,-82.43zm-79.74 71.22c0,49.81 40.17,91.02 91.9,91.02 48.95,0 89.27,-43.04 89.27,-84.02l0 -12.26c0,-43.37 -41.52,-84.89 -84.89,-84.89 -30.52,0 -49.03,5.86 -70.68,27.34 -11.26,11.17 -19.56,26.77 -23.16,42.48 -1.02,4.46 -2.44,14.75 -2.44,20.33z"/>
   <path class="fil1" d="M3362.51 92.65l0.32 -23.89c51.62,-8.87 53.98,31.9 -0.32,23.89zm-20.14 -35.54l0 88.39c0,7.55 4.73,6.18 14.06,6.18 4.62,0 6.05,-0.64 6.47,-5.22l0.09 -34.66c21.29,-2.89 25.07,9.29 36.42,28.34 7.38,12.4 3.35,11.54 21.78,11.54 12.33,0 3.23,-10.68 -2.78,-21.78 -2.45,-4.54 -4.31,-7.44 -7.17,-11.21l-8.17 -10.82c5.25,-3.97 15.98,-6.02 19.52,-21.31 3.17,-13.69 -3.64,-24.1 -11.05,-29.41 -11.95,-8.57 -38.25,-6.64 -55.12,-6.66 -8.62,-0.01 -14.05,-2.27 -14.05,6.62z"/>
  </g>
 </g>
</svg>
