<?xml version="1.0" encoding="UTF-8"?>
<!DOCTYPE svg PUBLIC "-//W3C//DTD SVG 1.1//EN" "http://www.w3.org/Graphics/SVG/1.1/DTD/svg11.dtd">
<!-- Creator: CorelDRAW -->
<svg xmlns="http://www.w3.org/2000/svg" xml:space="preserve" width="591px" height="591px" version="1.1" style="shape-rendering:geometricPrecision; text-rendering:geometricPrecision; image-rendering:optimizeQuality; fill-rule:evenodd; clip-rule:evenodd"
viewBox="0 0 591 591"
 xmlns:xlink="http://www.w3.org/1999/xlink"
 xmlns:xodm="http://www.corel.com/coreldraw/odm/2003">
 <defs>
  <style type="text/css">
   <![CDATA[
    .fil0 {fill:none}
    .fil1 {fill:white}
   ]]>
  </style>
 </defs>
 <g id="Layer_x0020_1">
  <metadata id="CorelCorpID_0Corel-Layer"/>
  <rect class="fil0" x="-0.72" y="0.72" width="591" height="591"/>
  <g id="_2211187661968">
   <path class="fil1" d="M303.59 554.04l0 -172.4 22.97 39.31c8.87,16.37 10.72,12.2 45.67,-1.81 11.86,-4.76 22.6,-8.57 34.48,-13.34l51.14 -20.04c4.11,-1.61 14.54,-6.05 18.13,-6.34l0 107.88c-10.46,5.53 -170.12,66.55 -172.39,66.74zm-190.2 -174.62c3.94,0.32 60.32,22.77 68.48,26.05 11.97,4.83 22.52,8.55 34.49,13.35 48.07,19.29 34.14,21.82 65.19,-30.3 0.8,-1.33 1.3,-2.34 2.01,-3.55l0.83 -1.4c1.27,-1.99 0.4,-0.78 1.4,-1.93l0 172.4c-5.03,-0.43 -120.21,-46.07 -129.34,-49.73l-43.06 -17.01 0 -107.88zm228.01 31.14l-33.37 -58.95c4.25,-0.99 6.5,-2.25 10.71,-3.75l32.84 -12.77c14.77,-5.46 28.91,-11.52 43.34,-16.72 12.11,-4.36 82.41,-33.05 87.74,-33.49 1.17,5.05 5.33,10.33 7.73,14.51l25.63 44.43 -86.75 33.37c-4.79,1.92 -81.77,32.86 -87.87,33.37zm-234.68 -125.68c5.1,0.42 16.85,6.01 22.12,7.91 7.35,2.65 13.84,5.57 21.67,8.35 7.82,2.77 13.92,5.51 21.67,8.37l109.16 42.1c-10.63,20.1 -22.68,38.76 -33.37,58.95 -4.19,-0.35 -17.48,-5.88 -22.25,-7.78l-152.36 -58.96c4.04,-6.04 32.46,-55.06 33.36,-58.94zm22.25 -12.24c5.69,-1.33 11.42,-4.12 17,-6.35 7.37,-2.95 48.8,-19.99 53.07,-20.34 1.43,6.14 10.54,18.89 14.71,23.1 3.39,3.42 6.04,6.01 9.46,9.45 36.25,36.46 106.71,36.46 142.95,0 7.65,-7.69 21.54,-21.23 24.18,-32.55 4.45,0.37 12.54,4.44 17.15,6.2l52.92 20.49 -165.72 64.51 -165.72 -64.51zm76.74 -72.3c0,-19.13 5.31,-36.35 14.89,-50.73 2.8,-4.21 6.45,-8.96 9.83,-12.41 44.09,-44.94 119.89,-32.1 145.45,25.33 17.96,40.34 3.09,85.73 -30.02,109.01 -43.37,30.49 -104.87,17.87 -131.63,-35.22 -4.45,-8.83 -8.52,-23.22 -8.52,-35.98zm-17.8 -8.89l0 16.68c0,9.09 3.17,13.67 3.34,21.13l-23.37 8.89c-7.67,3.05 -15.3,5.9 -23.18,9.07 -7.44,2.99 -15.24,5.87 -23.2,9.06 -25.16,10.08 -22.19,4.49 -35.53,28.98 -4.76,8.74 -34.86,58.19 -34.86,63.01 0,5.66 3.12,7.45 7.43,9.26l24.02 9.34c4.23,1.69 8.33,2.86 11.93,4.76 0,10.43 -0.97,120.91 0.51,125.17 1.94,5.58 10.47,7.34 16.01,9.57l183.68 71.02 182.08 -70.39c22.44,-8.99 18.12,-5.42 18.12,-33.04 0,-34.11 0,-68.22 0,-102.33 3.59,-1.9 7.7,-3.07 11.92,-4.76 4.34,-1.74 7.49,-3.1 11.91,-4.78 30.13,-11.46 23.02,-7.79 -3.08,-55.7 -2.45,-4.51 -20.72,-37.17 -24.35,-40.16 -3.94,-3.24 -38.16,-15.62 -45.81,-18.69l-35.28 -13.67c-3.75,-1.51 -8.35,-3.74 -12.07,-4.61 0.15,-7.12 3.33,-9.87 3.33,-37.81 0,-50.78 -49.79,-100.1 -106.77,-100.1 -36.25,0 -68.34,19.37 -85.82,43.2 -10.93,14.91 -20.96,36.25 -20.96,56.9z"/>
   <path class="fil1" d="M274.44 235.59c-5.57,0 -6.98,-4.55 -9.93,-8.2 -9.6,-11.87 -34.22,-36.57 -18.86,-36.57 6.25,0 19.3,28.78 28.79,28.78 6.4,0 27.31,-23.58 32.77,-29.05 5.2,-5.19 27.92,-30.65 33.32,-30.65 2.8,0 7.12,3.99 0.85,10.44l-56.55 56.46c-2.2,2.19 -7.24,8.79 -10.39,8.79zm1.06 -38.38c-7.24,-5.3 -13.35,-24.51 -30.91,-24.51 -10.62,0 -34.94,14.51 -14.01,40.65 4.27,5.33 7.98,9.84 12.33,15.38 10.76,13.69 25.76,39.06 48.32,16.2 12.02,-12.18 65.74,-63.41 69.26,-71.46 4.42,-10.08 0.51,-21.9 -8.82,-27.91 -18.7,-12.06 -31.76,7.77 -45.52,21.54 -5.24,5.23 -9.69,9.69 -14.93,14.92 -4.4,4.41 -11.11,12.1 -15.72,15.19z"/>
   <path class="fil1" d="M417.28 200.41c0,4.21 4.84,8.53 9.6,8.53l39.44 0c11.11,0 13.09,-18.12 -3.2,-18.12 -9.65,0 -35.58,-1.48 -41.62,2.08 -2.3,1.36 -4.22,4.23 -4.22,7.51z"/>
   <path class="fil1" d="M120.93 204.67l35.18 0c15.26,0 14.85,-18.11 0,-18.11l-35.18 0c-15.26,0 -14.85,18.11 0,18.11z"/>
   <path class="fil1" d="M177.43 137.52c9.02,0 8.53,-7.11 8.53,-10.66 0,-3.76 -5.93,-6.69 -8.71,-8.34 -5.03,-2.99 -30.26,-18.31 -33.93,-18.31 -6.52,0 -10.87,6.29 -8.68,11.77 2.3,5.75 27.27,18.11 34.31,22.3 2.16,1.29 5.28,3.24 8.48,3.24z"/>
   <path class="fil1" d="M198.75 45.84c0,3.91 3.77,9.72 5.53,12.6l13.28 22.96c7.9,14.85 18.5,7.01 18.5,-0.38 0,-3.91 -3.76,-9.72 -5.52,-12.6 -2.47,-4.07 -4.13,-7.2 -6.66,-11.47 -4.99,-8.45 -11.86,-26.87 -22.63,-17.14 -1.8,1.63 -2.5,2.98 -2.5,6.03z"/>
   <path class="fil1" d="M352.25 83.15c0,4.33 4.51,8.53 10.66,8.53 5.47,0 13.94,-18.08 18.33,-25.38l7.98 -14.5c3.99,-10.03 -9.24,-19.77 -17.44,-4.55 -3.53,6.54 -19.53,32.3 -19.53,35.9z"/>
   <path class="fil1" d="M408.75 141.78c4.96,0 27.19,-14.09 34.17,-18.06 9.58,-5.45 9.54,-4.72 9.54,-12.85 0,-2.74 -2.96,-6.4 -8.53,-6.4 -3.84,0 -40.28,20.14 -42.34,24.9 -2.31,5.32 1.26,12.41 7.16,12.41z"/>
   <path class="fil1" d="M286.16 23.46l0 40.5c0,11.45 17.06,11.45 17.06,0l0 -40.5c0,-11.2 -17.06,-11.2 -17.06,0z"/>
  </g>
 </g>
</svg>
