<?xml version="1.0" encoding="UTF-8"?>
<!DOCTYPE svg PUBLIC "-//W3C//DTD SVG 1.1//EN" "http://www.w3.org/Graphics/SVG/1.1/DTD/svg11.dtd">
<!-- Creator: CorelDRAW -->
<svg xmlns="http://www.w3.org/2000/svg" xml:space="preserve" width="591px" height="591px" version="1.1" style="shape-rendering:geometricPrecision; text-rendering:geometricPrecision; image-rendering:optimizeQuality; fill-rule:evenodd; clip-rule:evenodd"
viewBox="0 0 591 591"
 xmlns:xlink="http://www.w3.org/1999/xlink"
 xmlns:xodm="http://www.corel.com/coreldraw/odm/2003">
 <defs>
  <style type="text/css">
   <![CDATA[
    .fil0 {fill:none}
    .fil2 {fill:white}
    .fil1 {fill:#0F6A36;fill-rule:nonzero;fill-opacity:0.650980}
   ]]>
  </style>
 </defs>
 <g id="Layer_x0020_1">
  <metadata id="CorelCorpID_0Corel-Layer"/>
  <rect class="fil0" x="-0.72" y="0.72" width="591" height="591"/>
  <g id="_1843287366368">
   <path class="fil1" d="M587.4 283.51c0,-148.94 -120.73,-269.68 -269.67,-269.68 -148.94,0 -269.68,120.74 -269.68,269.68 0,148.94 120.74,269.68 269.68,269.68 148.94,0 269.67,-120.74 269.67,-269.68z"/>
   <g>
    <path class="fil2" d="M209.97 559.39l0 -141.91 18.91 32.36c7.3,13.47 8.83,10.04 37.59,-1.49 9.76,-3.92 18.61,-7.06 28.38,-10.98l42.1 -16.5c3.38,-1.32 11.96,-4.97 14.92,-5.22l0 88.81c-8.6,4.55 -140.03,54.77 -141.9,54.93zm-156.56 -143.74c3.24,0.27 49.65,18.75 56.37,21.45 9.85,3.97 18.54,7.03 28.39,10.99 39.56,15.87 28.1,17.96 53.66,-24.94 0.66,-1.1 1.07,-1.93 1.65,-2.92l0.68 -1.16c1.05,-1.64 0.34,-0.64 1.16,-1.59l0 141.91c-4.14,-0.35 -98.95,-37.92 -106.46,-40.94l-35.45 -13.99 0 -88.81zm187.69 25.64l-27.47 -48.53c3.5,-0.81 5.35,-1.85 8.81,-3.09l27.03 -10.5c12.17,-4.5 23.8,-9.49 35.68,-13.76 9.97,-3.6 67.83,-27.21 72.22,-27.58 0.97,4.17 4.39,8.51 6.36,11.95l21.1 36.57 -71.41 27.47c-3.94,1.58 -67.31,27.05 -72.32,27.47zm-193.18 -103.46c4.2,0.35 13.87,4.96 18.2,6.52 6.06,2.18 11.4,4.58 17.85,6.87 6.43,2.28 11.46,4.53 17.83,6.89l89.86 34.65c-8.76,16.55 -18.67,31.91 -27.47,48.53 -3.45,-0.29 -14.39,-4.84 -18.32,-6.4l-125.41 -48.54c3.33,-4.97 26.72,-45.32 27.46,-48.52zm18.31 -10.07c4.69,-1.09 9.4,-3.39 14,-5.23 6.07,-2.43 40.17,-16.45 43.68,-16.74 1.18,5.06 8.67,15.55 12.11,19.01 2.79,2.82 4.97,4.95 7.79,7.78 29.84,30.01 87.83,30.01 117.67,0 6.29,-6.33 17.73,-17.47 19.9,-26.79 3.66,0.3 10.32,3.66 14.12,5.11l43.56 16.86 -136.42 53.1 -136.41 -53.1zm63.17 -59.51c0,-15.75 4.37,-29.92 12.26,-41.76 2.31,-3.47 5.31,-7.37 8.09,-10.21 36.29,-37 98.69,-26.43 119.73,20.84 14.78,33.21 2.54,70.57 -24.71,89.73 -35.7,25.1 -86.33,14.71 -108.36,-28.99 -3.66,-7.27 -7.01,-19.11 -7.01,-29.61zm-14.65 -7.32l0 13.73c0,7.48 2.61,11.25 2.75,17.4l-19.23 7.31c-6.32,2.51 -12.6,4.86 -19.09,7.46 -6.12,2.47 -12.54,4.84 -19.09,7.46 -20.71,8.3 -18.27,3.7 -29.25,23.86 -3.92,7.19 -28.69,47.9 -28.69,51.87 0,4.65 2.56,6.12 6.11,7.62l19.78 7.69c3.48,1.39 6.85,2.35 9.81,3.91 0,8.59 -0.79,99.53 0.42,103.04 1.6,4.59 8.62,6.04 13.18,7.87l151.19 58.47 149.89 -57.95c18.46,-7.4 14.91,-4.46 14.91,-27.2 0,-28.07 0,-56.15 0,-84.23 2.96,-1.56 6.33,-2.52 9.81,-3.91 3.57,-1.44 6.16,-2.56 9.8,-3.94 24.81,-9.43 18.95,-6.41 -2.53,-45.85 -2.02,-3.71 -17.06,-30.59 -20.05,-33.06 -3.24,-2.66 -31.4,-12.85 -37.71,-15.38l-29.03 -11.25c-3.09,-1.24 -6.87,-3.08 -9.94,-3.79 0.13,-5.87 2.74,-8.13 2.74,-31.13 0,-41.8 -40.98,-82.4 -87.89,-82.4 -29.83,0 -56.25,15.95 -70.63,35.56 -9.01,12.28 -17.26,29.85 -17.26,46.84z"/>
    <path class="fil2" d="M185.97 297.26c-4.58,0 -5.74,-3.74 -8.17,-6.74 -7.9,-9.77 -28.16,-30.11 -15.52,-30.11 5.14,0 15.88,23.69 23.69,23.69 5.28,0 22.49,-19.41 26.99,-23.91 4.27,-4.28 22.98,-25.23 27.42,-25.23 2.3,0 5.86,3.28 0.7,8.59l-46.55 46.47c-1.81,1.81 -5.96,7.24 -8.56,7.24zm0.88 -31.59c-5.96,-4.36 -10.99,-20.18 -25.45,-20.18 -8.73,0 -28.75,11.95 -11.52,33.47 3.51,4.39 6.57,8.1 10.15,12.66 8.85,11.26 21.2,32.15 39.77,13.33 9.9,-10.03 54.11,-52.19 57.01,-58.82 3.64,-8.3 0.41,-18.03 -7.26,-22.97 -15.4,-9.93 -26.14,6.4 -37.47,17.73 -4.31,4.31 -7.98,7.97 -12.29,12.28 -3.62,3.63 -9.14,9.96 -12.94,12.5z"/>
    <path class="fil2" d="M303.56 268.31c0,3.46 3.98,7.02 7.9,7.02l32.46 0c9.15,0 10.78,-14.92 -2.63,-14.92 -7.94,0 -29.29,-1.21 -34.26,1.71 -1.9,1.12 -3.47,3.48 -3.47,6.19z"/>
    <path class="fil2" d="M59.62 271.82l28.95 0c12.57,0 12.23,-14.92 0,-14.92l-28.95 0c-12.57,0 -12.22,14.92 0,14.92z"/>
    <path class="fil2" d="M106.13 216.53c7.42,0 7.02,-5.85 7.02,-8.77 0,-3.09 -4.89,-5.5 -7.18,-6.86 -4.13,-2.46 -24.9,-15.08 -27.92,-15.08 -5.37,0 -8.95,5.19 -7.15,9.7 1.89,4.73 22.45,14.91 28.24,18.35 1.79,1.06 4.35,2.66 6.99,2.66z"/>
    <path class="fil2" d="M123.68 141.07c0,3.22 3.1,8 4.54,10.37l10.94 18.9c6.5,12.22 15.23,5.77 15.23,-0.31 0,-3.22 -3.1,-8 -4.55,-10.37 -2.03,-3.35 -3.4,-5.93 -5.48,-9.44 -4.11,-6.95 -9.76,-22.12 -18.63,-14.11 -1.48,1.34 -2.05,2.45 -2.05,4.96z"/>
    <path class="fil2" d="M250.03 171.79c0,3.55 3.71,7.01 8.77,7.01 4.5,0 11.47,-14.87 15.09,-20.89l6.57 -11.94c3.28,-8.24 -7.61,-16.26 -14.36,-3.74 -2.9,5.38 -16.07,26.59 -16.07,29.56z"/>
    <path class="fil2" d="M296.54 220.05c4.08,0 22.37,-11.6 28.12,-14.87 7.89,-4.49 7.86,-3.89 7.86,-10.58 0,-2.25 -2.44,-5.27 -7.03,-5.27 -3.16,0 -33.15,16.58 -34.85,20.5 -1.9,4.38 1.04,10.22 5.9,10.22z"/>
    <path class="fil2" d="M195.63 122.65l0 33.34c0,9.42 14.04,9.42 14.04,0l0 -33.34c0,-9.22 -14.04,-9.22 -14.04,0z"/>
   </g>
  </g>
 </g>
</svg>
