<svg width="103" height="97" viewBox="0 0 103 97" fill="none" xmlns="http://www.w3.org/2000/svg">
<circle cx="54.5" cy="48.5" r="48.5" fill="#0F6A36" fill-opacity="0.65"/>
<path fill-rule="evenodd" clip-rule="evenodd" d="M35.8225 93.4641V69.0039L39.0818 74.5817C40.3399 76.9034 40.6032 76.3124 45.5612 74.3242C47.2442 73.6491 48.7684 73.1084 50.454 72.4315L57.7104 69.5884C58.293 69.3608 59.7721 68.7308 60.2822 68.6886V83.9959C58.7988 84.7806 36.1444 93.4375 35.8225 93.4641ZM8.83709 68.6886C9.39531 68.7348 17.3949 71.9195 18.5532 72.386C20.2515 73.0702 21.7481 73.5978 23.4457 74.2791C30.2662 77.0159 28.2908 77.376 32.6957 69.9805C32.8089 69.7908 32.881 69.6484 32.9808 69.4766L33.0981 69.2781C33.2787 68.9956 33.1556 69.1671 33.2972 69.0039V93.4641C32.5832 93.4047 16.2413 86.9275 14.9465 86.4083L8.83709 83.9959V68.6886ZM41.1876 73.107L36.4535 64.7432C37.0558 64.603 37.3748 64.4243 37.9727 64.2109L42.6314 62.3997C44.7284 61.6252 46.7337 60.7647 48.7808 60.0274C50.4999 59.4083 60.4734 55.3377 61.2294 55.2747C61.3965 55.9924 61.9867 56.7415 62.3261 57.3343L65.9634 63.6385L53.6547 68.3729C52.9745 68.6456 42.0528 73.0352 41.1876 73.107ZM7.89035 55.2747C8.61425 55.3352 10.2805 56.1286 11.0281 56.3981C12.072 56.7739 12.9918 57.1882 14.1039 57.583C15.2123 57.9762 16.0786 58.364 17.1775 58.77L32.6662 64.7432C31.1572 67.5951 29.4476 70.2427 27.9318 73.107C27.3364 73.0574 25.4513 72.2731 24.774 72.004L3.15629 63.6385C3.73089 62.7806 7.76182 55.8268 7.89035 55.2747ZM11.0466 53.5389C11.8543 53.3507 12.667 52.9545 13.459 52.6373C14.5052 52.2186 20.3833 49.8018 20.9885 49.7516C21.1913 50.6233 22.484 52.4316 23.0761 53.0291C23.5571 53.5145 23.9332 53.8819 24.4183 54.3699C29.5612 59.5427 39.5585 59.5427 44.7011 54.3699C45.7862 53.2786 47.7572 51.3578 48.1312 49.7516C48.7626 49.804 49.9103 50.3826 50.5651 50.6317L58.0731 53.5389L34.5597 62.6917L11.0466 53.5389ZM21.9353 43.2814C21.9353 40.566 22.6886 38.1234 24.0476 36.0832C24.4452 35.4857 24.9626 34.812 25.4429 34.3223C31.698 27.9452 42.4529 29.7674 46.0797 37.9159C48.6275 43.6397 46.5185 50.0789 41.8201 53.3823C35.6666 57.7089 26.941 55.9178 23.1438 48.385C22.5124 47.1324 21.9353 45.0911 21.9353 43.2814ZM19.4104 42.0189V44.3861C19.4104 45.6755 19.8601 46.3255 19.8837 47.3844L16.5683 48.6454C15.4792 49.078 14.397 49.4825 13.2784 49.9318C12.2228 50.3561 11.1166 50.7642 9.98702 51.2172C6.41817 52.6483 6.83911 51.8541 4.94599 55.329C4.27053 56.5692 0 63.5853 0 64.2699C0 65.0724 0.442783 65.3262 1.0538 65.5833L4.46279 66.9084C5.06251 67.149 5.64476 67.314 6.15454 67.5838C6.15454 69.0644 6.01799 84.7398 6.22737 85.3432C6.50192 86.1352 7.71229 86.385 8.49918 86.7011L34.5597 96.778L60.3948 86.791C63.5773 85.5147 62.9652 86.0212 62.9652 82.1021C62.9652 77.2628 62.9652 72.4231 62.9652 67.5838C63.475 67.314 64.0572 67.149 64.6569 66.9084C65.2723 66.6611 65.7191 66.4685 66.3458 66.23C70.6217 64.6041 69.6124 65.1245 65.9095 58.3272C65.5611 57.6878 62.9699 53.0535 62.4543 52.6293C61.8957 52.1701 57.0404 50.4129 55.9542 49.977L50.9488 48.0387C50.4165 47.8242 49.7647 47.5075 49.236 47.3844C49.2585 46.3736 49.7093 45.9839 49.7093 42.0189C49.7093 34.8139 42.6452 27.8163 34.5597 27.8163C29.4167 27.8163 24.8636 30.5648 22.3839 33.9461C20.8323 36.0617 19.4104 39.0902 19.4104 42.0189Z" fill="white"/>
<path fill-rule="evenodd" clip-rule="evenodd" d="M31.561 48.6468C30.7373 48.6468 30.528 47.9732 30.0917 47.4336C28.6709 45.6766 25.0259 42.0189 27.3003 42.0189C28.2245 42.0189 30.1565 46.2796 31.561 46.2796C32.5099 46.2796 35.6043 42.7887 36.4138 41.9796C37.1828 41.2106 40.5467 37.4425 41.3452 37.4425C41.7596 37.4425 42.3993 38.0324 41.4715 38.9872L33.0998 47.3451C32.7746 47.6699 32.0278 48.6468 31.561 48.6468ZM31.7187 42.9657C30.6463 42.1802 29.7425 39.3364 27.1426 39.3364C25.5714 39.3364 21.9712 41.4851 25.0693 45.3547C25.7007 46.1438 26.2509 46.8116 26.895 47.632C28.4863 49.6577 30.7082 53.4133 34.048 50.0291C35.8275 48.2259 43.7798 40.6422 44.3012 39.4511C44.9548 37.9581 44.3751 36.2089 42.9951 35.3193C40.2259 33.5336 38.2934 36.4703 36.2557 38.5076C35.4809 39.2829 34.8214 39.9423 34.0465 40.7172C33.3948 41.369 32.4014 42.5087 31.7187 42.9657Z" fill="white"/>
<path fill-rule="evenodd" clip-rule="evenodd" d="M52.708 43.4394C52.708 44.0628 53.4246 44.7018 54.1285 44.7018H59.9673C61.6121 44.7018 61.9056 42.0189 59.4936 42.0189C58.0651 42.0189 54.2261 41.8008 53.3321 42.3273C52.9909 42.5283 52.708 42.9533 52.708 43.4394Z" fill="white"/>
<path fill-rule="evenodd" clip-rule="evenodd" d="M8.83662 44.0704H14.0444C16.3042 44.0704 16.2423 41.3879 14.0444 41.3879H8.83662C6.57718 41.3879 6.63872 44.0704 8.83662 44.0704Z" fill="white"/>
<path fill-rule="evenodd" clip-rule="evenodd" d="M17.2015 34.1285C18.5364 34.1285 18.464 33.0762 18.464 32.5504C18.464 31.994 17.5853 31.5611 17.1735 31.316C16.4296 30.8736 12.695 28.6054 12.1514 28.6054C11.1868 28.6054 10.5416 29.5372 10.866 30.3485C11.2061 31.1995 14.9031 33.0296 15.9449 33.6493C16.2657 33.8402 16.7267 34.1285 17.2015 34.1285Z" fill="white"/>
<path fill-rule="evenodd" clip-rule="evenodd" d="M20.3574 20.5569C20.3574 21.1355 20.9153 21.9952 21.1749 22.4224L23.1419 25.8204C24.3108 28.0191 25.8806 26.8589 25.8806 25.7647C25.8806 25.1865 25.3231 24.3264 25.0631 23.8996C24.6968 23.2977 24.451 22.8338 24.0777 22.2024C23.3378 20.9513 22.3219 18.2239 20.7274 19.6644C20.4605 19.9059 20.3574 20.1054 20.3574 20.5569Z" fill="white"/>
<path fill-rule="evenodd" clip-rule="evenodd" d="M43.0811 26.0805C43.0811 26.7203 43.7481 27.343 44.6592 27.343C45.4687 27.343 46.722 24.667 47.3723 23.5859L48.5539 21.4386C49.1446 19.9551 47.1859 18.5128 45.9719 20.7653C45.4497 21.7332 43.0811 25.5471 43.0811 26.0805Z" fill="white"/>
<path fill-rule="evenodd" clip-rule="evenodd" d="M51.4453 34.76C52.1794 34.76 55.4697 32.6739 56.5038 32.0858C57.9214 31.2793 57.9156 31.3874 57.9156 30.1836C57.9156 29.7787 57.4771 29.2365 56.6531 29.2365C56.0843 29.2365 50.6897 32.2177 50.3842 32.9226C50.0427 33.7106 50.571 34.76 51.4453 34.76Z" fill="white"/>
<path fill-rule="evenodd" clip-rule="evenodd" d="M33.2969 17.2434V23.2399C33.2969 24.9339 35.8221 24.9339 35.8221 23.2399V17.2434C35.8221 15.5855 33.2969 15.5855 33.2969 17.2434Z" fill="white"/>
</svg>
