<svg width="100" height="98" viewBox="0 0 100 98" fill="none" xmlns="http://www.w3.org/2000/svg">
<circle cx="51.5" cy="48.5" r="48.5" fill="#0F6A36" fill-opacity="0.65"/>
<path fill-rule="evenodd" clip-rule="evenodd" d="M77.0971 94.201H6.46889C2.11894 94.201 2.12975 86.9943 3.86231 85.0003C4.43273 84.3437 5.60279 83.6157 6.81612 83.6157H76.7503C79.1228 83.6157 80.7415 85.5722 80.7415 88.301C80.7415 89.929 80.8082 91.469 79.9053 92.6708C79.3338 93.4309 78.3754 94.201 77.0971 94.201ZM64.6029 71.9887C64.6029 71.5888 64.7237 71.4684 65.1236 71.4684H73.9735V80.8389H64.6029V71.9887ZM52.629 71.4684H61.8262V80.8389H52.629V71.4684ZM60.6118 59.4945H69.9823V68.6916H60.6118V59.4945ZM57.835 58.4531V68.6916H51.7615C50.7285 68.6916 49.8526 69.0259 49.8526 70.0798V80.8389H6.98955C4.66819 80.8389 3.18443 81.7555 1.99634 82.9609C-0.291492 85.2826 -0.406876 90.3126 0.638064 92.9171C1.88024 96.0122 4.75112 97.1513 8.37776 97.1513H75.1883C78.8214 97.1513 80.4364 96.3735 82.174 94.2454C82.5303 93.8087 82.695 93.4972 82.928 92.9171C83.9491 90.3765 83.8467 85.3256 81.6573 83.0467C80.5449 81.8897 78.8979 80.8869 76.7503 80.8389V70.2536C76.7503 68.3404 74.4026 68.6916 72.7591 68.6916V58.2797C72.7591 57.4403 72.2662 56.7177 71.3705 56.7177H59.2232C58.1891 56.7177 57.835 57.4183 57.835 58.4531Z" fill="white"/>
<path fill-rule="evenodd" clip-rule="evenodd" d="M8.55164 31.2081L12.1534 27.5216C14.0432 28.82 16.7561 32.8848 18.2453 32.8469C18.8532 32.8314 20.7819 31.5604 22.1092 31.0567C22.8794 30.7646 23.638 30.6081 24.3718 30.3691C25.103 30.1311 25.7315 29.6966 25.7315 28.7786V21.8372H30.9374C30.9374 30.9622 30.2971 29.6057 34.1721 30.9233C34.8381 31.1497 35.6519 31.4804 36.2606 31.785C36.9309 32.1204 37.427 32.61 38.1914 32.8004C39.7834 33.1974 42.4786 28.8994 44.473 27.5638L48.1595 31.1659C46.7803 33.1736 42.5731 35.9727 42.801 37.3927C42.8677 37.8091 44.2047 39.8896 44.7167 41.3763C46.0862 45.3519 44.4553 44.7437 53.8439 44.7437V49.95H46.7291C45.2709 49.95 45.3337 51.4207 44.583 53.5305C44.2754 54.3951 42.7375 57.1113 42.7375 57.4117C42.7375 58.7645 47.2433 62.1806 48.1173 63.4855L44.5155 67.172C43.3018 66.3452 39.6262 61.7501 38.5729 61.7501C38.0227 61.7501 35.9141 63.0171 34.5104 63.5879C30.3944 65.261 30.9374 62.5736 30.9374 72.8564H25.7315V65.7412C25.7315 63.8594 23.1501 64.3361 20.2508 62.7189C17.5901 61.2352 18.2254 61.1865 15.1025 64.3098C14.345 65.0673 12.9614 66.6167 12.1956 67.1298L8.5091 63.5277C9.42531 62.1806 13.931 58.7645 13.931 57.4117C13.931 57.0976 12.6005 54.8429 12.0946 53.5214C10.4327 49.1794 12.8706 49.95 2.82503 49.95V44.7437H9.41918C11.5487 44.7437 11.2476 43.433 11.9937 41.4185C12.3171 40.5452 12.5158 40.1121 12.8886 39.3628C14.2934 36.5395 14.7658 37.5091 11.3713 34.1147C10.6138 33.3575 9.06438 31.974 8.55164 31.2081ZM22.9547 27.911C21.6484 28.0196 19.1413 29.4839 18.4429 29.6465C16.6382 28.4378 13.5474 24.0933 12.1956 24.0933C11.274 24.0933 10.6812 24.9998 10.1566 25.5248C3.80615 31.8806 3.95578 30.5173 7.81391 34.375C8.58842 35.1499 10.0264 36.7588 10.8074 37.282C10.0632 38.6882 9.30235 40.234 8.89851 41.9672C7.16308 41.9672 5.428 41.9676 3.69256 41.9672C-0.699571 41.9669 0.0482569 41.0579 0.0482569 51.1644C0.0482569 52.9874 1.87312 52.7267 3.69256 52.7264C5.42764 52.726 7.16308 52.7264 8.89851 52.7264C9.01101 53.2095 9.48733 54.5022 9.71305 55.0355C10.0267 55.775 10.4526 56.5676 10.8074 57.2382C10.3761 57.527 5.08077 62.4781 5.08077 63.4855C5.08077 64.4728 10.8323 69.9109 11.3583 70.2315C12.8176 71.1206 13.9685 69.435 15.1891 68.2144C16.0321 67.3714 17.8793 65.7153 18.4429 64.8737C19.0876 65.2148 19.8646 65.619 20.5252 65.915C21.2748 66.2504 22.2336 66.4364 22.9547 66.7826C22.9547 68.5757 22.9554 70.3688 22.9547 72.1623C22.9536 76.27 22.3298 75.6328 31.805 75.6328C34.0686 75.6328 33.7146 74.3027 33.7138 72.1623C33.7135 70.3688 33.7138 68.5757 33.7138 66.7826C34.9928 66.1689 35.4291 66.3535 38.2257 64.8737L43.1259 69.6917C44.9558 71.576 45.6445 70.0364 48.5943 67.0862C52.6464 63.0344 52.464 63.7541 48.9416 60.2317C48.1667 59.4572 46.5578 58.0192 46.035 57.2382C46.1594 56.7039 46.6894 55.6499 46.9624 55.0423C47.306 54.2786 47.5771 53.5543 47.7701 52.7264L55.5393 52.6864C56.1256 52.5443 56.6203 51.967 56.6203 51.1644V43.3555C56.6203 41.4974 54.6408 41.9672 52.976 41.9672C51.2409 41.9672 49.5055 41.9672 47.7701 41.9672C47.2021 39.5298 46.2445 38.355 46.035 37.4554C46.8899 36.1783 51.5878 32.4521 51.5878 31.2081C51.5878 30.2281 49.3476 28.3607 48.334 27.3471C44.0868 23.0996 44.9334 23.0256 41.2192 26.7395C40.4447 27.5144 39.0067 29.1233 38.2257 29.6465C37.3982 29.4536 36.8808 28.9964 36.0723 28.6762C35.4273 28.4202 34.356 27.9644 33.7138 27.911C33.7138 26.2337 33.7138 24.5559 33.7138 22.8785C33.7142 18.2095 34.7281 19.0608 24.3429 19.0608C22.5725 19.0608 22.9547 20.9599 22.9547 22.7051C22.9551 24.4402 22.9547 26.1756 22.9547 27.911Z" fill="white"/>
<path fill-rule="evenodd" clip-rule="evenodd" d="M16.3608 48.0412C16.3608 45.5298 16.4282 44.4268 17.4583 42.1974C18.0381 40.9433 18.4016 40.5161 19.1595 39.5602C23.2318 34.4224 31.7154 33.8004 36.5377 38.4496C40.345 42.1206 41.4631 47.8937 39.1565 52.6158C38.4923 53.9752 37.7077 54.8892 36.7079 55.8938C32.0911 60.53 24.4877 60.4395 19.9614 55.8938C18.9601 54.8881 18.1809 53.9744 17.5121 52.6162C17.012 51.6012 16.3608 49.4676 16.3608 48.0412ZM13.584 46.4792C13.584 51.3033 14.8644 54.7984 17.7904 57.7176C23.0184 62.9332 31.0728 63.6082 37.1121 59.2478C43.0334 54.9725 44.9419 46.917 41.2926 40.1155C40.5209 38.6768 39.8917 38.057 38.9189 36.9363C35.3449 32.8196 28.0509 31.3272 22.7285 33.5848C20.2625 34.6304 18.0417 36.3569 16.5569 38.3461C15.1186 40.2734 13.584 43.1746 13.584 46.4792Z" fill="white"/>
<path fill-rule="evenodd" clip-rule="evenodd" d="M20.3516 47.3471C20.3516 44.2938 21.6122 42.5324 23.512 40.9632C27.9204 37.3225 36.3167 39.8696 36.3167 47.5206C36.3167 50.7762 34.1597 53.465 31.6015 54.6055C26.2625 56.9863 20.3516 52.9436 20.3516 47.3471ZM17.5752 46.8265C17.5752 57.6202 29.5736 61.3309 35.8404 55.0266C39.145 51.7025 40.0847 46.8769 38.1123 42.7747C37.5718 41.6508 36.9416 40.6423 36.1054 39.7491C35.4794 39.0806 34.1395 38.1453 33.2789 37.717C30.179 36.1741 26.6299 36.1409 23.5322 37.6863C20.1908 39.3532 17.5752 42.9262 17.5752 46.8265Z" fill="white"/>
<path fill-rule="evenodd" clip-rule="evenodd" d="M16.187 88.995C16.187 91.3759 12.2106 89.7382 14.0225 88.0413C14.7775 87.3339 16.187 87.7579 16.187 88.995ZM10.8076 88.995C10.8076 92.5326 15.177 94.2843 17.7129 91.9092C20.3491 89.4396 18.5801 84.7482 14.8132 84.8575C12.6977 84.9191 10.8076 86.7768 10.8076 88.995Z" fill="white"/>
<path fill-rule="evenodd" clip-rule="evenodd" d="M68.5947 90.21C66.2827 90.21 67.7315 86.3429 69.5466 88.0433C70.4091 88.8514 69.7868 90.21 68.5947 90.21ZM64.6035 88.6484C64.6035 89.9489 64.8938 90.9582 65.7656 91.8243C67.4333 93.4808 70.2104 93.2983 71.5727 91.7998C74.1154 89.0024 72.186 85.1429 68.8994 84.8688C66.7417 84.6886 64.6035 86.5949 64.6035 88.6484Z" fill="white"/>
<path fill-rule="evenodd" clip-rule="evenodd" d="M27.1195 88.995C27.1195 87.2142 29.5491 87.2142 29.5491 88.995C29.5491 90.662 27.1195 90.662 27.1195 88.995ZM24.3428 88.4744V89.3423C24.3428 93.2054 30.4721 94.6391 32.089 90.4932C33.3755 87.1943 30.479 84.1129 27.051 85.1081C25.7642 85.4816 24.3428 86.9455 24.3428 88.4744Z" fill="white"/>
<path fill-rule="evenodd" clip-rule="evenodd" d="M40.4818 88.9951C40.4818 87.2672 43.0848 87.3242 43.0848 88.9951C43.0848 90.6137 40.4818 90.6137 40.4818 88.9951ZM37.7051 88.8217C37.7051 94.3781 45.8612 94.3417 45.8612 88.8217C45.8612 86.7217 43.8712 84.9163 41.856 84.8575C39.7625 84.7969 37.7051 86.7357 37.7051 88.8217Z" fill="white"/>
<path fill-rule="evenodd" clip-rule="evenodd" d="M54.0174 88.9951C54.0174 87.2142 56.447 87.2142 56.447 88.9951C56.447 90.662 54.0174 90.662 54.0174 88.9951ZM54.885 92.9863C60.3779 92.9863 60.2773 86.487 56.7787 85.1929C55.0966 84.5705 53.3323 84.9964 52.318 86.0813C49.6941 88.8884 51.9142 92.9863 54.885 92.9863Z" fill="white"/>
</svg>
