<?xml version="1.0" encoding="UTF-8"?>
<!DOCTYPE svg PUBLIC "-//W3C//DTD SVG 1.1//EN" "http://www.w3.org/Graphics/SVG/1.1/DTD/svg11.dtd">
<!-- Creator: CorelDRAW -->
<svg xmlns="http://www.w3.org/2000/svg" xml:space="preserve" width="591px" height="591px" version="1.1" style="shape-rendering:geometricPrecision; text-rendering:geometricPrecision; image-rendering:optimizeQuality; fill-rule:evenodd; clip-rule:evenodd"
viewBox="0 0 591 591"
 xmlns:xlink="http://www.w3.org/1999/xlink"
 xmlns:xodm="http://www.corel.com/coreldraw/odm/2003">
 <defs>
  <style type="text/css">
   <![CDATA[
    .fil0 {fill:none}
    .fil2 {fill:white}
    .fil1 {fill:#0F6A36;fill-rule:nonzero;fill-opacity:0.650980}
   ]]>
  </style>
 </defs>
 <g id="Layer_x0020_1">
  <metadata id="CorelCorpID_0Corel-Layer"/>
  <rect class="fil0" x="-0.72" y="0.72" width="591" height="591"/>
  <g id="_1842916141104">
   <path class="fil1" d="M586.39 283.35c0,-150.88 -122.31,-273.19 -273.19,-273.19 -150.88,0 -273.19,122.31 -273.19,273.19 0,150.87 122.31,273.18 273.19,273.18 150.88,0 273.19,-122.31 273.19,-273.18z"/>
   <g>
    <path class="fil2" d="M474.24 564.26l-431.55 0c-26.57,0 -26.51,-44.03 -15.92,-56.21 3.48,-4.01 10.63,-8.46 18.05,-8.46l427.3 0c14.5,0 24.39,11.95 24.39,28.63 0,9.94 0.4,19.35 -5.11,26.7 -3.5,4.64 -9.35,9.34 -17.16,9.34zm-76.34 -135.72c0,-2.44 0.74,-3.17 3.18,-3.17l54.07 0 0 57.25 -57.25 0 0 -54.08zm-73.16 -3.17l56.19 0 0 57.25 -56.19 0 0 -57.25zm48.77 -73.16l57.26 0 0 56.19 -57.26 0 0 -56.19zm-16.96 -6.37l0 62.56 -37.11 0c-6.32,0 -11.67,2.04 -11.67,8.48l0 65.74 -261.89 0c-14.19,0 -23.26,5.6 -30.52,12.97 -13.97,14.18 -14.68,44.92 -8.29,60.83 7.59,18.91 25.13,25.87 47.29,25.87l408.22 0c22.2,0 32.06,-4.75 42.68,-17.75 2.18,-2.67 3.18,-4.57 4.61,-8.12 6.24,-15.52 5.61,-46.39 -7.77,-60.31 -6.79,-7.07 -16.86,-13.2 -29.98,-13.49l0 -64.68c0,-11.69 -14.34,-9.54 -24.39,-9.54l0 -63.62c0,-5.13 -3.01,-9.54 -8.48,-9.54l-74.22 0c-6.32,0 -8.48,4.28 -8.48,10.6z"/>
    <path class="fil2" d="M55.42 179.37l22.01 -22.52c11.54,7.93 28.12,32.77 37.22,32.54 3.71,-0.1 15.5,-7.87 23.61,-10.94 4.7,-1.79 9.34,-2.74 13.82,-4.2 4.47,-1.46 8.31,-4.11 8.31,-9.72l0 -42.42 31.81 0c0,55.76 -3.91,47.47 19.76,55.52 4.07,1.39 9.04,3.41 12.76,5.27 4.1,2.05 7.13,5.04 11.8,6.2 9.73,2.43 26.2,-23.84 38.38,-32l22.53 22.01c-8.43,12.27 -34.14,29.37 -32.74,38.05 0.4,2.55 8.57,15.26 11.7,24.34 8.37,24.29 -1.6,20.58 55.77,20.58l0 31.81 -43.47 0c-8.91,0 -8.53,8.98 -13.11,21.87 -1.88,5.29 -11.28,21.88 -11.28,23.72 0,8.26 27.53,29.14 32.87,37.11l-22.01 22.53c-7.41,-5.06 -29.87,-33.13 -36.31,-33.13 -3.36,0 -16.24,7.74 -24.82,11.23 -25.15,10.22 -21.83,-6.2 -21.83,56.63l-31.81 0 0 -43.48c0,-11.5 -15.77,-8.58 -33.49,-18.46 -16.26,-9.07 -12.37,-9.37 -31.45,9.72 -4.63,4.62 -13.09,14.09 -17.77,17.23l-22.52 -22.01c5.6,-8.23 33.13,-29.11 33.13,-37.37 0,-1.92 -8.13,-15.7 -11.22,-23.77 -10.16,-26.53 4.74,-21.82 -56.64,-21.82l0 -31.81 40.29 0c13.01,0 11.17,-8.01 15.73,-20.32 1.98,-5.34 3.19,-7.98 5.47,-12.56 8.58,-17.25 11.47,-11.33 -9.27,-32.07 -4.63,-4.62 -14.1,-13.08 -17.23,-17.76zm88 -20.14c-7.98,0.66 -23.3,9.61 -27.57,10.6 -11.02,-7.38 -29.91,-33.93 -38.17,-33.93 -5.63,0 -9.25,5.54 -12.45,8.75 -38.81,38.83 -37.89,30.5 -14.32,54.07 4.73,4.74 13.52,14.57 18.29,17.76 -4.55,8.6 -9.19,18.04 -11.66,28.63 -10.61,0 -21.21,0 -31.81,0 -26.84,0 -22.27,-5.55 -22.27,56.2 0,11.14 11.15,9.54 22.27,9.54 10.6,0 21.2,0 31.81,0 0.69,2.95 3.6,10.85 4.97,14.11 1.92,4.52 4.52,9.36 6.69,13.46 -2.63,1.76 -34.99,32.02 -34.99,38.17 0,6.03 35.14,39.26 38.36,41.22 8.91,5.43 15.95,-4.87 23.4,-12.33 5.16,-5.15 16.44,-15.27 19.88,-20.41 3.94,2.09 8.69,4.56 12.73,6.36 4.58,2.06 10.44,3.19 14.84,5.31 0,10.95 0.01,21.91 0,32.87 0,25.1 -3.82,21.2 54.08,21.2 13.83,0 11.67,-8.12 11.66,-21.2 0,-10.96 0,-21.92 0,-32.87 7.82,-3.75 10.48,-2.63 27.57,-11.67l29.94 29.44c11.18,11.51 15.39,2.11 33.41,-15.92 24.76,-24.76 23.65,-20.36 2.13,-41.88 -4.74,-4.73 -14.57,-13.52 -17.76,-18.29 0.76,-3.27 4,-9.7 5.66,-13.42 2.1,-4.66 3.76,-9.09 4.94,-14.15l47.47 -0.24c3.58,-0.87 6.6,-4.4 6.6,-9.3l0 -47.72c0,-11.35 -12.09,-8.48 -22.26,-8.48 -10.61,0 -21.21,0 -31.81,0 -3.47,-14.89 -9.32,-22.07 -10.6,-27.57 5.22,-7.8 33.92,-30.57 33.92,-38.17 0,-5.98 -13.68,-17.4 -19.88,-23.59 -25.95,-25.95 -20.77,-26.4 -43.47,-3.71 -4.73,4.73 -13.52,14.56 -18.29,17.76 -5.05,-1.18 -8.22,-3.97 -13.16,-5.93 -3.94,-1.56 -10.48,-4.35 -14.41,-4.67 0,-10.25 0,-20.5 0,-30.75 0,-28.53 6.2,-23.33 -57.25,-23.33 -10.82,0 -8.49,11.61 -8.49,22.27 0.01,10.6 0,21.2 0,31.81z"/>
    <path class="fil2" d="M103.13 282.22c0,-15.34 0.42,-22.08 6.71,-35.7 3.54,-7.67 5.76,-10.27 10.39,-16.12 24.89,-31.39 76.72,-35.19 106.19,-6.78 23.26,22.43 30.09,57.7 16,86.56 -4.06,8.3 -8.85,13.89 -14.96,20.02 -28.21,28.33 -74.67,27.78 -102.33,0 -6.11,-6.14 -10.88,-11.72 -14.96,-20.02 -3.06,-6.21 -7.04,-19.24 -7.04,-27.96zm-16.96 -9.54c0,29.48 7.82,50.83 25.7,68.67 31.94,31.87 81.16,35.99 118.06,9.35 36.18,-26.13 47.84,-75.34 25.54,-116.9 -4.72,-8.79 -8.56,-12.58 -14.5,-19.43 -21.84,-25.15 -66.41,-34.27 -98.93,-20.48 -15.07,6.39 -28.64,16.94 -37.71,29.1 -8.79,11.77 -18.16,29.5 -18.16,49.69z"/>
    <path class="fil2" d="M127.52 277.98c0,-18.65 7.7,-29.41 19.31,-39 26.93,-22.25 78.24,-6.69 78.24,40.06 0,19.9 -13.18,36.32 -28.81,43.29 -32.63,14.55 -68.74,-10.15 -68.74,-44.35zm-16.97 -3.18c0,65.95 73.31,88.63 111.61,50.1 20.19,-20.31 25.93,-49.79 13.88,-74.85 -3.31,-6.87 -7.16,-13.03 -12.26,-18.49 -3.83,-4.09 -12.02,-9.8 -17.27,-12.42 -18.95,-9.42 -40.63,-9.63 -59.56,-0.19 -20.41,10.19 -36.4,32.02 -36.4,55.85z"/>
    <path class="fil2" d="M102.07 532.46c0,14.54 -24.29,4.54 -13.22,-5.83 4.61,-4.32 13.22,-1.73 13.22,5.83zm-32.87 0c0,21.61 26.7,32.31 42.2,17.8 16.1,-15.09 5.29,-43.75 -17.72,-43.08 -12.93,0.37 -24.48,11.72 -24.48,25.28z"/>
    <path class="fil2" d="M422.29 539.88c-14.13,0 -5.27,-23.63 5.82,-13.24 5.26,4.94 1.46,13.24 -5.82,13.24zm-24.39 -9.54c0,7.95 1.78,14.11 7.1,19.4 10.19,10.13 27.16,9.01 35.49,-0.15 15.53,-17.09 3.74,-40.67 -16.34,-42.35 -13.18,-1.1 -26.25,10.55 -26.25,23.1z"/>
    <path class="fil2" d="M168.87 532.46c0,-10.89 14.84,-10.89 14.84,0 0,10.18 -14.84,10.18 -14.84,0zm-16.97 -3.18l0 5.3c0,23.6 37.45,32.36 47.33,7.03 7.86,-20.16 -9.83,-38.98 -30.78,-32.9 -7.86,2.28 -16.55,11.22 -16.55,20.57z"/>
    <path class="fil2" d="M250.51 532.46c0,-10.56 15.91,-10.21 15.91,0 0,9.89 -15.91,9.89 -15.91,0zm-16.96 -1.06c0,33.95 49.83,33.73 49.83,0 0,-12.83 -12.15,-23.86 -24.47,-24.22 -12.79,-0.37 -25.36,11.47 -25.36,24.22z"/>
    <path class="fil2" d="M333.22 532.46c0,-10.89 14.85,-10.89 14.85,0 0,10.18 -14.85,10.18 -14.85,0zm5.3 24.38c33.56,0 32.95,-39.71 11.57,-47.62 -10.28,-3.8 -21.06,-1.2 -27.25,5.43 -16.04,17.15 -2.47,42.19 15.68,42.19z"/>
   </g>
  </g>
 </g>
</svg>
